<?xml version="1.0" encoding="UTF-8"?>
<svg id="Layer_1" xmlns="http://www.w3.org/2000/svg" version="1.1" viewBox="0 0 506.47 505.36">
  <!-- Generator: Adobe Illustrator 30.3.0, SVG Export Plug-In . SVG Version: 2.1.3 Build 182)  -->
  <path d="M44.39,173.67l-3.05-1.6-25.8-.12C47.3,80.24,129.6,14.64,226.34,4.42l16.17-1.09,10.05-.49c-8.13,8.9-13.73,17.86-18.05,28.9-86.65,7.26-158.46,62.09-190.13,141.95Z" style="fill: #ab2c2c;"/>
  <path d="M167.45,247.9l4.39,5.29c10.91,13.14,25.69,21.93,40.97,29.42l13.49,6.61,49.89,21.45c11.73,5.04,21.42,11.63,29.2,21.24l-117.2-.23-4.95,1.7-4.92-3.91c-9.49-9.29-18.1-18.95-24.47-30.76-8.54-15.83-13.16-33.11-15.51-50.38l29.12-.42Z" style="fill: #b72a2a;"/>
  <path d="M44.39,173.67l-1.82,5.5c-6.39,19.31-11.06,38.46-12.32,58.89-1.69,27.2.7,52.96,8.48,78.95l-28.92-.13c-3.36-13.42-6.23-27.03-7.1-41.47-2.25-37.34.64-68.25,12.84-103.46l25.8.12,3.05,1.6Z" style="fill: #b72a2a;"/>
  <path d="M62.42,370.34c10.82,17.4,23.32,33.05,38.35,47.01,16.77,15.24,34.46,27.45,55.33,37.79l-23.5,19.14c-43.49-23.92-78.86-59.68-101.93-103.44l5.76-1.4,20.19-.09,5.81.98Z" style="fill: #d52327;"/>
  <path d="M317.08,423.32c-3.64,14.12-13.3,25.41-24.65,34.86l-8.75,7.27-85.95-.25-5.83-1.97,49.44-41.17,6.86,1.42,68.87-.16Z" style="fill: #b72a2a;"/>
  <path d="M305.39,331.91c7.44,9.18,12.68,20.53,13.44,32.59l-84,.25c-10.85.04-39.73-21.93-51.59-31.36l4.95-1.7,117.2.23Z" style="fill: #cc2328;"/>
  <path d="M318.83,364.49l-.83,10.49-.34,33.25-.94,5.92c-5.55-14.27-20.4-20.67-33.83-26.42l-10.57-4.53-35.11-15.39c-.95-.42-2.57-1.86-2.38-3.07l84-.25Z" style="fill: #d52327;"/>
  <path d="M316.73,414.16c.96,2.46,1.03,6.53.35,9.17l-68.87.16-6.86-1.42,33.63-28,7.92-6.33c13.43,5.76,28.28,12.15,33.83,26.42Z" style="fill: #ab2c2c;"/>
  <path d="M38.73,317.01c5.68,18.96,13.25,36.54,23.69,53.33l-5.81-.98-20.19.09-5.76,1.4c-9.19-17.43-16.18-35.27-20.86-53.96l28.92.13Z" style="fill: #cc2328;"/>
  <path d="M283.68,465.45l-19.37,16.42c-1.2-.6-4.13-1.59-5.64-1.6l-85.83-.08,5.38-5.59,13.69-11.37,5.83,1.97,85.95.25Z" style="fill: #cc2328;"/>
  <path d="M264.31,481.87l-21.58,18.29-8.86-.64c-23.15-2.87-45.12-8.02-67.88-14.05,1.69-2.23,4.71-5.18,6.85-5.27l85.83.08c1.51,0,4.44,1,5.64,1.6Z" style="fill: #d52327;"/>
  <path d="M167.45,247.9l-29.12.42-.8-11.52c-1.4-20.04,2.15-39.95,12.18-57.4l.71,18.99c.69,18.25,5.54,35.68,17.02,49.5Z" style="fill: #ab2c2c;"/>
  <path d="M480.89,359.97l-6.27,12.47c-38.11,70.86-108.14,119.55-188.11,130.29-4.51.61-7.59.81-11.84.46l11.29-10.59,10.97-10.01c5.02-4.58,9.55-9.42,15.3-13.42,48.01-13.3,90.18-41.98,119.66-81.42l8.3-2.03c15.61-5.69,28.03-18.12,40.7-25.76Z" style="fill: #fff;"/>
  <path d="M278.28,265.65l.38-64.02.89-6.87c33.86,20.41,59.31,44.48,69.57,84.14,2.93,11.35,5.42,22.26,5.39,33.89l-.03,9.98c-.04,16.68-4.02,33.03-13.01,48.14l-.23-22.24c-1.74-24.3-11.84-46.23-30.54-61.9-10.18-8.63-21.19-14.84-32.44-21.12Z" style="fill: #fff;"/>
  <path d="M502.7,224.58l.78,8.44,1,14.34-.05,13.19-.7,10.7c-2.04,30.95-9.03,61.25-22.83,88.73-12.67,7.64-25.09,20.06-40.7,25.76l-8.3,2.03c24.92-33.34,40.41-72.77,43.71-114.92,2.61-33.33-1.45-65.79-13.18-96.9,9.65,3.34,24.24,20.86,29.28,29.89l3.05,5.45,4.93,10.32.99,2.66c.21.58,1.7.52,2.03.33Z" style="fill: #fff;"/>
  <path d="M502.7,224.58c-.32.19-1.81.24-2.03-.33l-.99-2.66-4.93-10.32-3.05-5.45c-5.04-9.03-19.63-26.55-29.28-29.89-16.39-43.44-45.38-80.47-83.63-106.41,1.88-11.23,1.26-21.47-1.01-33.5,69.25,40.24,115.16,108.32,124.91,188.56Z" style="fill: #fff;"/>
  <path d="M279.56,194.76l-.89,6.87-.38,64.02-3.94-1.55-15-7.02-39.53-16.75c-.97-.41-2.11-1.83-2.26-2.69l-.81-4.67v-61.75s1.07-5.93,1.07-5.93c20.76,9.35,42.23,17.69,61.75,29.46Z" style="fill: #fff;"/>
  <path d="M234.13,140.6l-21.43,17.93-4.07,2.64c-14.27-6.43-29.05-12.1-34.67-28.42.03-13.94,10.9-29.69,22.2-39.21l35.82-30.19,1.63,4-.07,67.61.58,5.65Z" style="fill: #fff;"/>
  <path d="M359.49,49.11c0,26.02-21.12,47.11-47.18,47.11s-47.18-21.09-47.18-47.11S286.26,2,312.31,2s47.18,21.09,47.18,47.11ZM345.69,49.27c0-18.53-15.04-33.55-33.59-33.55s-33.59,15.02-33.59,33.55,15.04,33.55,33.59,33.55,33.59-15.02,33.59-33.55Z" style="fill: #fff;"/>
  <path d="M208.63,161.17l9.18,4.13-1.08,5.93v61.75s.82,4.67.82,4.67c-21.52-4.1-43.74-29.76-43.7-51.24l.11-53.66c5.61,16.32,20.4,22,34.67,28.42Z" style="fill: #fff;"/>
  <path d="M234.13,140.6l-.58-5.65.07-67.61-1.63-4,14.98-12.68c1.3,22.47,11.93,41.57,30.65,53.64l-43.49,36.3Z" style="fill: #fff;"/>
  <path d="M345.69,49.27c0,18.53-15.04,33.55-33.59,33.55s-33.59-15.02-33.59-33.55,15.04-33.55,33.59-33.55,33.59,15.02,33.59,33.55ZM330.05,49.28c0-9.92-8.05-17.95-17.98-17.95s-17.98,8.04-17.98,17.95,8.05,17.95,17.98,17.95,17.98-8.04,17.98-17.95Z" style="fill: #fff;"/>
  <ellipse cx="312.07" cy="49.28" rx="17.98" ry="17.95" style="fill: #fff;"/>
</svg>