<?xml version="1.0" encoding="UTF-8"?>
<svg id="Layer_1" xmlns="http://www.w3.org/2000/svg" version="1.1" viewBox="0 0 757.4 933.64">
  <!-- Generator: Adobe Illustrator 30.3.0, SVG Export Plug-In . SVG Version: 2.1.3 Build 182)  -->
  <g id="qSI2aT.tif">
    <g>
      <path d="M2,918.4l.16-3.05,8.79-62.42c.44-.16,1.97-.21,2.22.25l1.06,2.01,25.92,47.85c9.98-16.94,17.84-34.13,28.79-51.42,3.22,18.74,3.91,36.05,6.47,53.61l1.92,13.19-9.53-.11-4.67-47.15-25.11,47.82-24.49-47.51-3.14,26.67-1.43,20.18-6.94.08Z" style="fill: #b7120e;"/>
      <path d="M535.81,873.37c2.62.63,4.27.38,6.61.34-7.56,14.81-13.14,29.2-18.92,44.49-1.88.24-3.83.24-5.86.06-3.55-11.39-6.89-22.2-11.64-33.16l-11.95,33.27-6.08-.03-16.53-44.96c3.21.63,5.92.86,9.25-.09,3.47,11.81,7.34,23.1,12.12,34.61l12.52-34.55c1.95.69,3.52.66,5.47.06,3.38,11.87,7.16,23.1,12,34.9l13-34.93Z" style="fill: #b7120e;"/>
      <path d="M108.31,919.75c-14.63.24-24.57-10.97-23.77-25.15.77-13.74,11.94-22.89,25.86-22.13,12.34.68,20.99,11.14,20.8,23.44-.2,13.15-9.18,23.61-22.89,23.84ZM118.66,881.56c-2.27-3.85-6-5.44-9.95-5.32s-7.99,1.13-10.48,4.74c-6.06,8.77-6.51,21.4-.28,30.35,2.68,3.85,7.99,5.14,12.57,4.18,12.4-2.59,14.74-22.73,8.14-33.95Z" style="fill: #b7120e;"/>
      <path d="M250,919.72c-12.12.49-22.8-7.93-23.63-19.63-.54-7.67.31-14.7,5.47-20.03s11.52-8.1,19.39-7.44c12.16-.22,22.22,11.08,20.97,23.23.79,13.19-8.88,23.41-22.21,23.86ZM259.29,880.33c-2.8-4.1-8-4.51-12.58-3.7-11.99,2.13-15.09,23.32-7.62,34.47,2.71,4.05,8.29,5.41,13.07,4.36,12.57-2.77,14.46-24.39,7.13-35.14Z" style="fill: #b7120e;"/>
      <path d="M290.93,889.53l-.26,28.87h-8.12c.57-15.06,1.15-29.71.02-45.05,2.9.6,5.04.88,8.06.04l.13,7.83c3.58-5.86,9.11-8.46,15.79-8.3,7.63.18,14.21,5.17,14.2,13.38l-.03,32.02h-8.09s.84-27.78.84-27.78c.21-6.94-4.15-12.35-10.74-12.42s-11.74,4.16-11.8,11.41Z" style="fill: #b7120e;"/>
      <path d="M585.68,909.48c.64,1.55.3,4.25-.53,5.58-5.88,3.56-12.19,5.8-18.42,4.81-12.47-1.98-20.95-11.36-19.85-23.95-.41-8.52,3.45-16.81,10.97-21.16,6.64-2.82,14.91-3.44,21.32.31,7.32,4.29,10.02,13.26,8.74,21.37-11.36-.43-21.79-.95-32.63,0,.28,6.28,1.64,12.96,6.96,16.64,7.48,5.17,16.57,2.67,23.43-3.59ZM579.83,891.82c.18-4-.48-8.41-2.97-11.79s-6.77-4.24-10.78-3.56c-6.83,1.17-9.69,8.02-10.64,15.32,8.16.78,15.7.74,24.39.02Z" style="fill: #b7120e;"/>
      <path d="M685.14,909.48c.64,1.55.3,4.25-.53,5.58-5.88,3.56-12.19,5.8-18.42,4.81-12.47-1.98-20.95-11.36-19.85-23.95-.41-8.52,3.45-16.81,10.97-21.16,6.64-2.81,14.91-3.44,21.32.31,7.32,4.29,10.02,13.26,8.74,21.37-11.36-.43-21.79-.95-32.64,0,.29,6.27,1.65,12.96,6.97,16.64,7.48,5.17,16.57,2.67,23.43-3.59ZM679.29,891.82c.18-4-.48-8.41-2.97-11.79s-6.77-4.24-10.78-3.56c-6.83,1.17-9.69,8.02-10.64,15.32,8.16.78,15.7.74,24.39.02Z" style="fill: #b7120e;"/>
      <path d="M441.53,913c7.51,5.29,16.91,2.78,23.28-3.6,1.02.95.53,3.25.16,4.74-.27,1.11-2.34,1.7-3.45,2.4-7.15,4.48-14.41,4.38-22.07,1.44-9.22-3.53-13.8-12.63-13.35-22.47.32-7.06,2.34-13.83,7.53-18.19,5.66-4.75,12.91-5.69,20.48-4.09,9.84,2.08,15.2,13.74,12.63,23.26-11.28-.61-21.46-.94-32.24-.05.16,6.06,1.74,12.84,7.03,16.56ZM459.27,891.81c-.03-4.49-.57-9.55-4.14-12.91-3.8-3.58-10.44-3.53-14.39-.24-3.89,3.24-5.25,7.96-5.79,13.13,8.04.83,15.58.7,24.33.02Z" style="fill: #b7120e;"/>
      <path d="M416.25,909.02c0,22.02-18.47,23.68-20.06,22.24-.52-.47-.77-2.11-.27-2.71,6.28.22,10.82-3.92,10.84-10.62l.14-64.34c3.08.66,6.1.8,9.37,0l-.02,55.43Z" style="fill: #b7120e;"/>
      <path d="M748.79,916.55c-6.86,4.77-15.98,3.95-23.29.07l2.49-7.58c3.79,4.41,7.92,7.84,12.96,6.91,3.33-.62,5.93-2.57,6.89-5.11,1.06-2.82.9-6.62-2.07-8.34l-13.76-5.5c-4.3-2.34-6.3-6.93-5.82-11.49.5-4.68,2.99-8.57,7.71-10.85,5.71-2.77,12.85-1.96,18.9.82l-3.1,7.48c-2.79-5.48-5.83-7.11-10.85-6.32-4.19.65-7.2,5.66-5.33,10.26,3.03,7.43,18.8,3.22,21.55,15.13,1.27,5.52-1.22,11.01-6.28,14.53Z" style="fill: #b7120e;"/>
      <path d="M214.7,915.4c-6.81,5.98-16.55,5.42-24.68,1.27l2.55-7.54c3.43,4.06,7.55,7.5,12.55,6.93,3.02-.34,5.87-2.47,6.95-4.55,1.35-2.62,1.4-7.11-1.19-8.7l-14.39-5.87c-4.57-2.65-6.14-6.64-5.75-11.74.3-3.94,2.96-8.16,7.27-10.4,5.8-3,13.38-2.2,19.29.75l-2.92,7.32c-2.32-3.39-3.87-5.9-7.16-6.31-4.58-.57-8.5.98-9.43,5.36s.9,7.69,5.41,9.19l10.85,3.61c3.91,1.3,5.74,6.19,5.75,9.76.01,4.28-1.64,7.87-5.1,10.91Z" style="fill: #b7120e;"/>
      <path d="M356.03,915.43c-6.7,5.88-16.36,5.46-24.35,1.24.55-2.46,1.23-5.05,2.36-7.55,3.93,4.23,7.93,8.01,13.05,6.82,2.87-.67,5.62-2.72,6.61-4.85,1.17-2.52,1.12-6.55-1.31-8.15l-15.43-6.62c-4.32-2.82-5.51-7.81-4.43-12.74.93-4.24,4.07-8.19,8.83-9.64,5.63-1.72,11.67-1.17,17.23,1.5-.84,2.51-1.39,5.06-3.07,7.53-2.47-5.23-6.08-7.41-10.93-6.26-4.59,1.09-7.23,6.13-4.73,10.79,3.5,6.53,17.5,3.09,20.72,13.37,1.64,5.22-.26,10.79-4.55,14.56Z" style="fill: #b7120e;"/>
      <path d="M634.43,866.01v52.16s-8.74.21-8.74.21l.65-70.82c2.79.59,5.64.55,8.51.13l-.42,18.32Z" style="fill: #b7100b;"/>
      <path d="M608.03,866v52.3s-8.74.09-8.74.09l.66-70.85c2.78.6,5.63.56,8.5.14l-.42,18.32Z" style="fill: #b7100b;"/>
      <path d="M156.3,919.33c-3.75.94-7.57.62-10.87-1.42-2.51-1.55-4.33-5.14-4.28-8.87l.35-30.16-6.14-.14v-4.33s6.19-.02,6.19-.02l-.03-10.18,8.55-3.59-.75,13.77,10.1.03-.35,4.44-10.08-.3.31,31.36c.02,2.54,2.39,5.04,3.65,5.66,2.76,1.19,4.76.35,7.4-.35.22.89.35,3-.35,3.17l-3.67.92Z" style="fill: #b7120e;"/>
      <path d="M705.7,918.39h-7.87s-.02-44.98-.02-44.98c2.52.68,4.84.55,7.66-.03l-.16,8.53c3.84-5.41,8.21-9.98,15.33-8.74l-.7,8.88c-3.21-1.76-5.52-1.92-8.73-1.15-2.2.53-3.62,3.33-5.22,6.08-1.27,10.16-.85,20.72-.31,31.4Z" style="fill: #b7120e;"/>
      <rect x="169.24" y="873.51" width="8.8" height="44.9" style="fill: #b7120e;"/>
      <path d="M172.36,852.67c2.88-1.08,5.77.38,6.44,3.06.64,2.57-.2,5.61-3.21,6.58-2.26.73-5.17-.36-6.22-3.14-.81-2.15.04-5.4,2.99-6.51Z" style="fill: #b7120e;"/>
      <path d="M608.03,918.3v-52.3s0,52.3,0,52.3Z" style="fill: #d17b7c;"/>
      <path d="M634.43,918.16v-52.16s0,52.16,0,52.16Z" style="fill: #d27e7f;"/>
      <g>
        <g>
          <path d="M447.8,603.02l-78.74.28-.09-68.4c0-6.22-3.42-10.75-8.9-11.37-6.11-.69-9.97,2.28-12.1,8.62l-.06,71.07-27.71.04-.08-67.37c-.39-4.69-1.44-8.73-5.22-10.98s-8.87-1.9-12.04.49c-3.62,2.73-4,7.28-4.02,11.86l-.23,65.98h-27.68s0-68.79,0-68.79c1.07-6.7,1.74-12.86,4.99-18.5,11.81-20.48,38.43-26.51,57.79-12.99,21.16-14.73,50.42-6.1,60.52,17.73,3.41-14.39,16.25-24.88,31.13-24.82l53.27.02v22.39s-53.31.06-53.31.06c-5.61.46-8.98,3.26-9.32,8.81-.33,5.49,3.12,10.51,9.37,10.64l19.93.42c19.54-.26,34.46,14.54,33.46,34.38-.82,16.23-13.76,30.34-30.98,30.4ZM444.98,561.1l-21.18-.75c-11.75-.38-21.58-7.13-27.01-17.56l-.02,37.6,52.82-.07c5.64-1.8,7.45-6.44,6.38-11.88-.61-4.67-5.59-7.77-11-7.33Z" style="fill: #b7100b;"/>
          <g>
            <polygon points="475.53 709.97 498.95 770.22 576.9 692.26 516.69 668.88 507.67 677.84 492.94 663.1 515.07 640.99 620.56 678.96 485.66 813.88 447.63 708.44 469.82 686.22 484.51 700.89 475.53 709.97" style="fill: #b7100b;"/>
            <g>
              <polygon points="403.91 739.35 391.49 739.22 391.49 719.01 422.69 719.01 470.37 820.24 279.43 820.25 327.11 719.01 358.48 719.01 358.49 739.24 345.95 739.3 319.86 798.68 429.93 798.67 403.91 739.35" style="fill: #efb438;"/>
              <polygon points="274.32 709.89 265.41 700.96 280.02 686.35 302.13 708.42 264.2 813.73 129.41 678.93 234.67 641.03 256.78 663.18 242.28 677.84 233.3 668.82 172.71 692.35 250.76 770.4 274.32 709.89" style="fill: #b7100b;"/>
            </g>
          </g>
          <polygon points="144.18 623.39 203.53 597.4 203.58 584.78 224.25 584.78 224.26 615.93 123.03 663.57 123.03 473.01 224.26 520.61 224.25 551.75 203.59 551.76 203.53 539.15 144.16 513.06 144.18 623.39" style="fill: #efb438;"/>
          <g>
            <polygon points="576.9 444.27 498.95 366.29 475.57 426.49 484.53 435.54 469.86 450.3 447.65 428.12 485.67 322.65 620.57 457.56 515.09 495.55 492.94 473.41 507.62 458.72 516.71 467.67 576.9 444.27" style="fill: #b7100b;"/>
            <polygon points="605.79 623.45 605.74 513.08 545.99 539.32 545.96 551.76 525.74 551.75 525.69 520.58 626.93 472.92 626.95 663.62 525.77 616.06 525.7 584.78 546.1 584.79 546 597.23 605.79 623.45" style="fill: #efb438;"/>
          </g>
          <path d="M374.95,640.77c-6.91-.23-12.08-4.85-12.58-11.34s4.07-12.25,10.33-13.56c8.17-1.7,15.57,3.1,16.27,10.9s-5.47,14.27-14.03,13.99ZM384.68,630.5c.82-4.01-.02-8.24-3.13-10.9-2.54-2.17-7.43-3.17-10.57-.69-3.56,2.82-5.28,8.29-4.29,12.46,1.17,4.94,4.95,7.81,9.62,7.63,4.3-.17,7.4-3.75,8.38-8.5Z" style="fill: #b7120e;"/>
          <path d="M334.84,640.37l-9.52-11.67-.35,11.54c-1.53-.22-2.31-.23-3.45-.05v-24.17s9.19.07,9.19.07c3.49.03,6.41,3.02,6.22,6.2-.19,3.34-2.68,5.61-6.65,6.54l8.61,11.15c-2.03-.04-2.15-.2-4.06.39ZM325.31,627.09c3.83.21,5.4-.47,6.79-2.09s1.19-4.32-.22-5.57c-1.76-1.58-3.92-1.33-6.8-1.14l.22,8.81Z" style="fill: #b7120e;"/>
          <path d="M290.71,628.94l3.57-.1-.14,10.41c-6.69,1.65-13.29,2.91-18.56-1.72-4.73-4.17-4.74-13.24-.22-17.95,5.08-5.28,13.47-4.94,19.33-1.6l-1.46,3.44c-2.79-3.4-6.98-4.47-10.95-3.16s-6.24,5.15-6.23,9.62c0,3.99,1.02,7.38,4.22,9.5,3.05,2.01,7.33,2.17,10.45.43v-8.87Z" style="fill: #b7120e;"/>
          <path d="M465.97,629.57l-.2,10.58c-1.17-.19-1.97-.2-3.83.06l-.04-24.11h10.52c1.69,0,3.74,1.4,4.55,2.48,1.02,1.37,1.18,4.37.47,6.04-1.77,4.12-6.09,5.35-11.47,4.95ZM471.95,618.29l-6.19-.11.11,9.25c3.19.32,5.83-.02,7.19-2.22,1.22-1.99,1.35-5.05-1.11-6.92Z" style="fill: #b7120e;"/>
          <path d="M435.09,616.86l-.47,15.41c-.02,5.48-4.75,8.64-10.14,8.57-4.76-.06-10-2.25-10.02-7.74l-.06-16.87,3.44-.14.15,15.61c.04,4.63,3.42,7.17,7.52,7.05s6.7-3.11,6.77-7.57l.25-15.01c1.52.1,2.4.16,2.56.69Z" style="fill: #b7120e;"/>
          <path d="M605.79,623.45l-.04-110.37.04,110.37Z" style="fill: #efb438;"/>
          <g>
            <polygon points="172.75 444.13 233.2 467.74 242.09 458.92 256.81 473.65 234.85 495.59 129.35 457.63 264.19 322.8 302.2 428.26 280.14 450.29 265.41 435.56 274.31 426.65 250.86 366.36 172.75 444.13" style="fill: #b7100b;"/>
            <g>
              <polygon points="422.48 417.85 391.81 417.96 391.48 396.84 404.12 396.78 429.99 337.83 319.77 337.82 345.7 396.78 358.46 396.87 358.37 417.88 327.43 418.02 279.45 316.26 470.31 316.28 422.48 417.85" style="fill: #efb438;"/>
              <path d="M422.48,417.85l-30.67.11,30.67-.11Z" style="fill: #f1d69a;"/>
              <path d="M358.37,417.88l-30.94.14,30.94-.14Z" style="fill: #f1d69a;"/>
            </g>
          </g>
          <path d="M434.62,632.27l.47-15.41-.47,15.41Z" style="fill: #d17b7c;"/>
        </g>
        <g>
          <path d="M136.23,2h.44c6.68,26.43,19.93,52.38,39.07,72.17,24.18,24.99,67.55,47.46,98.32,72.96,7.87,6.52,15.17,13.33,19.69,22.26l.5-.39c-.5-4.03-2.43-8.36-.13-12.44l10.88,2.51c-1.91-6.05-7.24-9.21-11.6-13.11,4.36-2.42,10.73-3.2,12.4-8.29,2.6-7.93,1.31-17.37-.71-25.28,3.34,0,7.9,5.95,10.46,3.22,2.04-2.17-1.09-7.25,1.03-11.37l10.26,7.78c10.09-7.78,21.36-12.2,33.56-14.75,8.27-1.73,15.41-5.34,21.07-11.41,2.93-1.97,5.87-3.76,9.13-1.89,3.74,4.78,6.03,10.65,6.38,16.86.83,14.52-16.24,20.17-27.71,25.99-5.44,12.76-10.7,24.99-22.92,29.64,5.63-.57,8.53.92,11.95,3.71,17.07,13.94,41.81,31.8,40.86,55.11-.34,8.43-2.23,16.38-3.61,24.55,4.39-8.25,5.37-17.4,6.81-26.35l17.32,1.65c20.57,1.96,26.77-5.34,38,1.16-2.62-2.49-6.03-3.44-9.78-4.42,10.97-5.19,21.97-10.57,34.13-10.37,14.2,4.73,27.89,10.28,42.44,13.82l10.83,1.21c3.01,17.18,14.03,16.61,22.79,26.66l-44.81-3.63,1.64-14.9c-10.59-4.22-20.98-7.5-31.96-10.02-11.73-2.69-11.97,6.96-25.31,1.78l41,25.52c6.74,4.2,13.5,6.76,21.42,8.39.88,5.81,4.09,10.4,8.59,14.16l11.23,9.38c-14.65,2.95-28.78,2.02-43.35.28-.78-5.87-1.36-11.45-1.18-17.37l-23.28-19.68c-7.37-6.23-15.38-8.3-24.18-3.79-18.1,9.28-28.28,25-66.1,40.38-16.98,6.9-33.37,14.16-51.04,19.32-20.45,5.97-41.3,9.6-62.39,8.53-13.6,18.93-26.05,31.95-46.71,42.54l-40.26,21.64c-19.08,24.09-34.35,49.64-65.13,60.04,3.23-3.58,5.79-6.63,8.13-10.38,10.66-17.08,28.7-28.21,34.32-54.27,20.11-6.43,38.25-16.95,55.06-29.77,11.24-8.57,21.95-17.58,30.74-28.91,6.05-1.07,12.11-1.76,18.13-3.63l-19.09-.02c-21.3,24.6-58.49,52.64-89.96,59.37-7.79,15.92-15.36,31.45-24.73,46.25-11.51,18.16-25.71,35.17-47.82,34.82l19.81-31.42c9.16-2.59,14.34,1.04,21.17-10.22,7.49-12.34,6.43-28.85,11.53-42.79,23.94-6.52,49.81-40.75,50.16-65.34.05-3.42-2.23-5.5-4.58-7.5-5.41-4.6-20.08,4.55-25.58,17.64-2.64,6.29-.07,11.96,6.59,14.52-6.14,2.42-13.87,1.22-16.4-5.26-2.98-7.6.47-14.86,5.87-20.9-11.74,4.89-6.1,14.02-9.9,27.84-6.8,24.73-37.1,23.02-56.35,17.44,9.5-1.44,17.31.14,25.51-2.38s14.64-7.95,16.25-16.94c-3.29,5.55-7.71,9.43-13.59,12.1-20.52,9.3-50.73,3.63-59.49-18.3l10.56,5.49c12.06,5.57,24.91,4.18,34.95-4.42,13.96-11.96,16-25.17,29.99-35.71-9.59,4.32-16.1,11.91-20.19,21.88-1.22-17.27,10.32-31.13,27.26-34.67,18.17-3.8,37.05.12,53.56,9.68,2.95.22,6.03-1.84,8.06-4.16,11.21-12.83,25.77-25.2,43.68-25.44l29.04-.38c9.52-.12,22.06-4.14,21.72-14.06-.15-4.3-2.83-7.72-6.65-9.97-5.33-3.15-11.37-2.88-17.55-1.79-28.45,5-47.84,23.55-69.64,31.56-18.46,6.79-38.56,7.34-58.3,4.26,11.12-3.53,18.93-11.33,29.81-12.3-15.04-1.78-24.31,7.38-37.94,9.99-11.3-3.12-22.09-8.45-31.38-16.27,21.79,8.04,30.73-6.49,49.06-7.81-9.19-.86-18.06,1.52-26.7,4.81-22.15,8.43-34.54-5.4-46.74-23.14,28.01,14.52,39.05,5.18,64.76,3.61-28.07-4.55-43.69,11.08-69.69-11.34-4.12-5.67-7.69-12.31-10.55-19.35,27.58,17.7,45.03,12.96,74.08,13.76-29.03-6.01-53.92,0-77.55-21.05-2.82-6.57-5.49-12.87-7.51-20.04,17.37,12.08,36.29,18.9,57.09,20.35l19.66,2.28-38.73-8.31c-15.14-3.66-28.7-10.53-40.39-20.84-2.12-6.82-4-13.34-5.68-20.53,24.72,17.57,48.57,25.34,78.17,29.98l-35.27-10.51c-16.58-5.75-31.72-13.93-44.7-25.68l-4.09-19.61c22.73,17.68,47.59,31.61,74.35,40.5-27.52-12.34-53.23-26.35-75.63-46.64-2.01-9.32-3.72-18.76-4.97-28.43,15.94,14.56,31.42,28.03,48.41,40.24,37.89,27.24,73.24,33.95,117.91,42.78,20.77,4.11,41.49,7,61.72,13.05l23.81,7.12c-7.42-5.19-15.4-7.71-23.79-10.19-10.4-3.08-20.61-6-31.35-8.08-23.36-4.52-72.91-9.78-89.54-22.1-11.68-8.66-18.08-23.72-17.23-38.4,9.35,11.8,18.88,22.08,32.15,27.99l31.54,11.53c-25.36-15.06-47.26-15.96-63.18-45.71.86-6.23,1.92-12.72,3.3-19.64,15.62,24.06,33.14,40.25,59.95,50.52l-17.71-10.57c-18.1-10.8-31.98-26.11-41.1-45.41,1.14-5.76,2.5-11.31,4.3-16.87,12.95,21.55,28.65,40.99,48.92,54.73-19.88-17.44-36.6-36.18-47.99-59.88l8.14-32.49ZM176.74,94.2l-.68.66,1.16,1.2.68-.66-1.16-1.2ZM179.41,96.63c0-.27-.22-.49-.49-.49s-.49.22-.49.49.22.49.49.49.49-.22.49-.49ZM180.36,98.17c-.15.02.78.12.95.14.15.01.18-.29.03-.27l-.98.13ZM181.86,99.05h-.29s.29,0,.29,0h.58s-.29,0-.29,0h-.3ZM346.93,114.8l.35.33,4.57-4.56c-3.11-.19-5.3-.32-6.6,1.85,1.8-.97,3.27-1.48,5.39-1.19l-3.7,3.57ZM344.62,112.48l-.22.22.22.22.22-.22-.22-.22ZM343.9,113.48c-1.58.6-2.31,1.58-2.79,3l2.79-3ZM294.43,169.31l-.02.25c.09,1.3.08,1.03.02-.25ZM382.4,220.22c.26-1.92-.59-3.57-1.94-4.82.33,1.74.9,3.18,1.94,4.82ZM384.04,226.35c.25-2.33-.16-4.31-1.73-5.82.44,2.12.94,3.83,1.73,5.82ZM380.31,226.59c-.07-1.4-.07-.86-.04.32l.04-.32ZM380.94,226.87l-.53.31,3.01,9.58.64-.39-3.13-9.5Z" style="fill: #efb438;"/>
          <path d="M380.27,226.91c-.03-1.19-.03-1.72.04-.32l.63.28,3.13,9.5-.64.39-3.01-9.58-.14-.27Z" style="fill: #efb438;"/>
          <path d="M384.04,226.35c-.79-1.99-1.28-3.7-1.73-5.82,1.57,1.51,1.97,3.49,1.73,5.82Z" style="fill: #efb438;"/>
          <path d="M382.4,220.22c-1.04-1.64-1.62-3.08-1.94-4.82,1.35,1.25,2.2,2.9,1.94,4.82Z" style="fill: #efb438;"/>
          <g>
            <path d="M346.93,114.8l3.7-3.57c-2.12-.29-3.59.22-5.39,1.19,1.3-2.17,3.5-2.04,6.6-1.85l-4.57,4.56-.35-.33Z" style="fill: #efb438;"/>
            <path d="M343.9,113.48l-2.79,3c.47-1.42,1.21-2.4,2.79-3Z" style="fill: #efb438;"/>
            <rect x="344.47" y="112.54" width=".31" height=".31" transform="translate(21.24 276.68) rotate(-45)" style="fill: #efb438;"/>
          </g>
        </g>
      </g>
    </g>
  </g>
</svg>