<?xml version="1.0" encoding="UTF-8"?>
<svg id="Layer_1" xmlns="http://www.w3.org/2000/svg" version="1.1" viewBox="0 0 1336.5 430.39">
  <!-- Generator: Adobe Illustrator 30.3.0, SVG Export Plug-In . SVG Version: 2.1.3 Build 182)  -->
  <rect x="223.12" y="333.14" width="899.07" height="3.36" style="fill: #fff;"/>
  <path d="M356.23,410.07l-29.54.23v17.21s-7.49-.05-7.49-.05v-52.41s35.91.13,35.91.13c5.71.02,10.82,2.45,14.93,6.04,4.84,6.74,5.42,16.3-.16,22.86-3.02,3.55-8.56,5.94-13.65,5.98ZM363.38,400.97c4.03-4.91,3.91-10.94.29-15.75-3.38-2.22-7.29-3.25-11.48-3.57h-25.5s0,22.82,0,22.82l24.75-.02c4.23-.24,8.27-1.14,11.94-3.48Z" style="fill: #fff;"/>
  <path d="M807.08,419.92c12.99,4.15,32.42,1.33,33.45-12.76l6.95.03c-.62,20.22-26.41,24.61-44.22,18.83-10.7-3.47-17.18-12.88-17.38-23.98s6.14-21.15,16.96-25.2c17.12-6.42,43.51-1.51,44.08,18.54l-6.98.06c-1.45-13.91-19.51-16.81-32.3-13-8.72,2.6-13.95,9.96-14.12,18.51s4.94,16.21,13.57,18.97Z" style="fill: #fff;"/>
  <polygon points="509.55 388.61 517.11 388.55 500.75 427.49 492.28 427.45 477.73 396.6 462.82 427.42 454.52 427.55 438.2 388.57 446.1 388.53 459.07 420.36 474.53 388.67 481.56 388.68 496.36 420.32 509.55 388.61" style="fill: #fff;"/>
  <path d="M1227.28,414.71l6.86-.06c-2.59,14.28-23.96,15.8-37.08,11.75-8.17-2.52-13.07-9.24-13.35-17.6-.31-8.92,4.86-16.17,13.41-19.06,7.72-2.61,16.17-2.62,24.05-.44,9.18,2.53,14.25,10.81,12.62,20.24h-42.69c.52,12.75,16.87,14.7,28.93,11.53,3.27-.86,5.52-2.68,7.26-6.36ZM1227.26,404.45c-.28-5.52-3.52-7.67-7.43-9.38-11.24-2.73-26-2.09-28.56,9.41l36-.03Z" style="fill: #fff;"/>
  <path d="M993.52,414.71l6.86-.06c-2.59,14.28-23.96,15.8-37.08,11.75-8.17-2.52-13.07-9.24-13.35-17.6-.31-8.92,4.86-16.17,13.41-19.06,7.72-2.61,16.17-2.62,24.05-.44,9.18,2.53,14.25,10.81,12.62,20.24h-42.69c.52,12.75,16.87,14.7,28.93,11.53,3.27-.86,5.52-2.68,7.26-6.36ZM993.5,404.45c-.28-5.52-3.52-7.67-7.43-9.38-11.24-2.73-26-2.09-28.56,9.41l36-.03Z" style="fill: #fff;"/>
  <path d="M564.22,414.71l6.86-.06c-2.59,14.28-23.96,15.8-37.08,11.75-8.17-2.52-13.07-9.24-13.35-17.6-.31-8.92,4.86-16.17,13.41-19.06,7.72-2.61,16.17-2.62,24.05-.44,9.18,2.53,14.25,10.81,12.62,20.24h-42.69c.52,12.75,16.87,14.7,28.93,11.53,3.27-.86,5.52-2.68,7.26-6.36ZM564.2,404.45c-.28-5.52-3.52-7.67-7.43-9.38-11.24-2.73-26-2.09-28.56,9.41l36-.03Z" style="fill: #fff;"/>
  <path d="M277.26,414.71l6.86-.06c-2.59,14.28-23.96,15.8-37.08,11.75-8.17-2.52-13.07-9.24-13.35-17.6-.31-8.92,4.86-16.17,13.41-19.06,7.72-2.61,16.17-2.62,24.05-.44,9.18,2.53,14.25,10.81,12.62,20.24h-42.69c.52,12.75,16.87,14.7,28.93,11.53,3.27-.86,5.52-2.68,7.26-6.36ZM277.25,404.45c-.28-5.52-3.52-7.67-7.43-9.38-11.24-2.73-26-2.09-28.56,9.41l36-.03Z" style="fill: #fff;"/>
  <path d="M218.82,427.5l-.06-20.98c-.02-5.35-3.1-9.77-8.27-11.21-14.21-3.95-30.57,1.61-30.61,14.92l-.06,17.28-6.91-.07v-55.28s6.9-.06,6.9-.06l.08,27.22c5.76-12.52,21.02-13.2,34.33-10,6.24,2.17,11.37,7.28,11.41,14.2l.13,23.95-6.95.03Z" style="fill: #fff;"/>
  <path d="M420.78,426.14c-8.8,3.03-18.32,2.91-26.81.11-8.02-2.64-13.07-9.42-13.4-17.14-.35-8.31,4.2-15.68,12.38-18.84,9.02-3.49,19.54-3.49,28.55,0,7.95,3.07,12.5,10.16,12.4,18.12-.09,7.84-4.82,14.88-13.13,17.74ZM417.91,420.27c5.62-1.92,8.83-6.74,8.92-11.9s-2.91-10.09-8.17-12.18c-7.25-2.88-15.61-2.9-22.85,0-5.47,2.19-8.48,7.37-8.15,12.83.75,12.28,17.64,15.56,30.25,11.25Z" style="fill: #fff;"/>
  <path d="M697.99,426.14c-8.8,3.03-18.32,2.91-26.81.11-8.02-2.64-13.07-9.42-13.4-17.14-.35-8.31,4.2-15.68,12.38-18.84,9.02-3.49,19.54-3.49,28.55,0,7.95,3.07,12.5,10.16,12.4,18.12-.09,7.84-4.82,14.88-13.13,17.74ZM695.12,420.27c5.62-1.92,8.83-6.74,8.92-11.9s-2.91-10.09-8.17-12.18c-7.25-2.88-15.61-2.9-22.85,0-5.47,2.19-8.48,7.37-8.15,12.83.75,12.28,17.64,15.56,30.25,11.25Z" style="fill: #fff;"/>
  <path d="M895.79,426.14c-8.8,3.03-18.32,2.91-26.81.11-8.02-2.64-13.07-9.42-13.4-17.14-.35-8.31,4.2-15.68,12.38-18.84,9.02-3.49,19.54-3.49,28.55,0,7.95,3.07,12.5,10.16,12.4,18.12-.09,7.84-4.82,14.88-13.13,17.74ZM892.92,420.27c5.62-1.92,8.83-6.74,8.92-11.9s-2.91-10.09-8.17-12.18c-7.25-2.88-15.61-2.9-22.85,0-5.47,2.19-8.48,7.37-8.15,12.83.75,12.28,17.64,15.56,30.25,11.25Z" style="fill: #fff;"/>
  <path d="M1024.58,420.87c9.69,2.65,24.6,1.08,25.4-8.43l6.86.03c-.57,15.39-21.8,18.43-35.44,14.17-8.7-2.72-13.9-10.44-13.77-18.96.14-8.54,5.72-15.83,14.46-18.35,13.83-4,33.7-1.2,34.58,14.46l-6.63.22c-1.37-10.33-16.6-11.72-26.22-8.4-5.85,2.02-9.21,7.08-9.1,12.77s3.55,10.77,9.86,12.5Z" style="fill: #fff;"/>
  <polygon points="140.89 427.38 133.39 427.48 133.4 381.65 109.2 381.65 109.19 375.08 165.1 375.08 165.2 381.62 140.88 381.66 140.89 427.38" style="fill: #fff;"/>
  <path d="M729.2,394.73v32.73s-6.93.02-6.93.02l.02-32.66-8.39-.14-.03-6.13h8.68c-1.82-8.9,2.92-16.38,11.74-18.08,5.96-1.15,11.88-.72,17.92.74l-.03,6.39c-6.43-1.42-12.97-2.69-19.03.16-3.82,1.8-4.28,6.71-3.81,10.78h23.63s-.02,6.19-.02,6.19h-23.76Z" style="fill: #fff;"/>
  <path d="M1100.81,420.34l.16,6.12c-7.12,1.46-14.29,1.67-21.19-.45-6.25-1.92-9.95-7.05-9.91-13.44l.09-17.75-8.43-.13-.05-6.06,8.27-.23.96-8.98h6.13s-.01,9.14-.01,9.14l24.09-.02-.02,6.18h-24.08s.09,17.73.09,17.73c.05,9.6,12.73,9.67,23.91,7.87Z" style="fill: #fff;"/>
  <polygon points="1174.77 388.7 1183.11 388.65 1158.06 427.41 1149.6 427.4 1124.56 388.67 1133.06 388.5 1154.15 421.28 1174.77 388.7" style="fill: #fff;"/>
  <path d="M608.85,394.41c-11.36-2.12-22.31,5.37-22.51,16.84l-.28,16.24h-6.89s0-38.89,0-38.89l6.9-.04.09,11.51c4.42-10.78,15.37-14.18,26.73-11.58,6.2,1.42,11.24,6.18,11.52,12.53l.52,11.68-6.85-.03-.73-10.5c-.3-4.29-4.08-6.93-8.5-7.76Z" style="fill: #fff;"/>
  <rect x="917.65" y="371.91" width="6.92" height="55.6" style="fill: #fff;"/>
  <rect x="934.13" y="371.91" width="6.92" height="55.6" style="fill: #fff;"/>
  <rect x="1110.38" y="388.56" width="6.92" height="38.94" style="fill: #fff;"/>
  <rect x="1110.02" y="373.59" width="7.85" height="8.42" style="fill: #fff;"/>
  <path d="M788.93,219.62c8.19-13.64,29.46-18.52,45.05-18.54l80.76-.12c.78-19.22-12.88-27.26-30.64-29.47-16.38-2.04-39.91-2.07-53.55,6.14-5.5,3.92-7.82,9.45-5.62,16.9l-36.64.09c-4.62-29.65,18.56-44.79,45.7-49.57,28.37-4.99,65.52-4.7,90.97,9.43,16.38,9.09,27.51,25.4,27.58,44.72l.31,80.01h-38.12s1.33-21.79,1.33-21.79c-9.34,13.74-24.15,19.82-39.99,22.17-24.06,3.57-54.73,3.26-75.2-10.01-16.69-10.82-22.45-32.49-11.95-49.97ZM904.14,241.65c5.58-3.99,9.8-9.39,10.71-16.36l-76.37.12c-5.73,0-11.65,1.08-16.12,3.98-3.42,2.22-3.78,6.4-3.23,10.32.96,6.86,10.74,11,18.78,12.24,20.87,3.22,49.08,1.95,66.22-10.3Z" style="fill: #ed2725;"/>
  <path d="M288.44,154.42c14.93,13.8,22.87,31.08,24.79,50.8,2.86,29.34-9.74,57.73-34.57,73.98-13.62,8.92-29.33,12.45-45.62,12.46-34.67.01-56.16-20.23-76.66-46.28-13.86,17.49-31.09,35.88-52.48,42.62-20.73,6.52-42.94,4.42-62.24-5.38-11.87-6.02-21.01-14.95-27.85-26.17C1.88,236.87-.88,214.28,4.93,192.13c4.41-16.81,12.99-31.57,27-42.06,11.78-8.81,25.31-14.33,40-16.39,24.23-3.4,47.01,7.03,63.92,24.95l-23.75,27.9c-7.27-5.93-14.38-11.32-23.44-13.72-19.49-5.16-38.88,5.86-45.04,24.92-4.58,14.19-2.65,29.28,6.46,41.16,12.86,16.77,36.47,19.37,52.94,6.14,6.96-5.59,12.9-11.77,18.51-18.91l35.21-44.83c15.08-19.2,36.06-39.94,59.99-45.77,25.51-6.22,52.38,1.02,71.71,18.91ZM219.27,250.59c16.51,6.53,34.68,2.19,46.05-10.98,5.05-5.85,7.38-12.87,8.54-20.54,2.2-14.56-2.61-29.71-14.27-38.95-15.82-12.54-37.51-11-52.83,1.77-11.27,9.39-20.07,20.51-28.27,32.6,12.07,14.42,22.73,28.96,40.78,36.1Z" style="fill: #ed2725;"/>
  <path d="M452.1,177.66c-32.71-9.66-81.99-1-84.2,38.7v62.87s-38.01-.01-38.01-.01v-134.05s38.01-.01,38.01-.01l-.39,29.93c6.86-12.73,17.31-21.64,30.72-26.71,10.45-3.88,21.17-5.57,32.4-6.03,40.97-1.67,78.58,9.66,81.64,55.34l.02,81.53h-37.99s-.07-73.29-.07-73.29c-.97-13.84-8.78-24.32-22.14-28.27Z" style="fill: #ed2725;"/>
  <path d="M574.63,232.81c12.17,20.52,43.82,21.03,66.05,16.43,5.36-1.11,10.19-3.4,14.74-6.07,6.84-4.66,10.74-11.67,10.31-20.3h34.95c1.03,18.01-7.52,34.18-22.16,44.13-22.24,15.14-57.01,17.48-83.3,13.52-35.06-5.28-62.06-28.44-63.87-64.5-1.84-36.62,22.14-62.48,57.31-70.5,20.86-4.76,42.34-4.44,63.18.24,28.38,6.38,49.52,26.17,48.43,56.31h-35.14c.51-7.54-2.32-14.07-7.85-18.94-4.36-3.62-9.28-5.82-14.83-7.65-23.07-5.44-56.21-4.04-68.39,17.73-6.81,12.17-6.53,27.6.58,39.58Z" style="fill: #ed2725;"/>
  <path d="M1237.68,252.99c20.13,2.5,58.69,1.94,62.01-20.37h34.8c-.8,26.77-23.95,41.33-48.53,46.3-21.78,4.41-44.04,4.39-65.85.1-24.52-4.82-46.12-18.43-54.26-42.58-4.63-13.74-4.95-28.24-1.33-42.32,12.34-48.07,70.72-57.49,114.62-49.33,28.44,5.29,50.13,22.37,54.25,51.72,1.2,8.56,1.07,16.99.95,25.79h-133.63c3.31,19.47,17.91,28.32,36.97,30.69ZM1299.13,197.58c-.25-8.14-4.05-13.71-9.56-18.21-15.96-10.87-44.54-10.83-62.96-5.69-12.14,3.39-21.25,11.88-24.51,23.91h97.04Z" style="fill: #ed2725;"/>
  <polygon points="1117.98 145.15 1159.63 145.22 1078.28 279.23 1036.96 279.21 955.1 145.23 1000.09 145.07 1059.33 244.49 1117.98 145.15" style="fill: #ed2725;"/>
  <rect x="722.49" y="91.24" width="38" height="187.98" style="fill: #ed2725;"/>
  <polygon points="577.68 93.44 551.52 93.48 493.05 27.48 493.01 93.49 467.54 93.49 467.54 3.62 504.33 3.61 552.14 57.5 552.24 3.62 577.68 3.62 577.68 93.44" style="fill: #fff;"/>
  <path d="M249.62,65.8c-.92,17.71-15.57,25.19-32.35,27.69-18.3,2.72-43.26,2.82-59.43-5.61-9.11-5.02-14.5-13.8-13.93-24.74h23.49c-.11,5.53,3.2,9,7.98,11.02,6.66,2.26,13.7,2.76,20.96,2.74,11.45-.22,27.01-.65,26.92-10.76-.03-3.46-3.03-6.33-7.05-6.9-19.16-2.73-37.99-1.18-56.09-5.92-5.76-1.51-11.22-4.58-14.14-9.8-6.18-11.04-2.36-24.3,7.93-31.46C169.72,1.05,194.65.83,213.98,3.24c17.74,2.21,32.41,10.64,31.1,29.97l-23.31.04c-.02-4.85-3.03-8.23-7.52-10.28-6.4-2.26-13.18-2.78-20.2-2.77-10.56.01-25.1,1.79-24.62,10.66.45,8.24,15.02,7.43,26.57,8.37l26.24,2.14c5.08.41,10.22,1.91,14.73,3.84,8.54,3.63,13.1,11.5,12.63,20.58Z" style="fill: #fff;"/>
  <path d="M302.26,74.18c9.36,2.28,18.91,1.86,27.4-1.5,6.96-2.89,11.83-8.29,11.79-16.28h23.42c.74,10.94-3.88,20.11-11.74,26.91-17.07,13.78-46.95,14.22-67.36,7.86-18.87-5.88-29.74-21.79-30.23-41.08-.52-20.58,10.95-37.81,30.98-44.18,15.29-4.87,32.09-5.14,47.86-1,17.25,4.52,31.08,17.99,29.88,35.99l-23.32.02c-.18-7.42-4.97-12.91-11.53-16.18-8.61-3.71-18.29-4.14-27.34-1.63-12.09,3.36-19.02,13.83-18.79,26.22s6.9,21.92,18.98,24.86Z" style="fill: #fff;"/>
  <path d="M104.14,75.21l-52.59-.07-9.38,18.39-27.28-.08L63.72,3.63h31.45s48.84,89.82,48.84,89.82l-30.79.06-9.07-18.31ZM96.22,59.8l-18.62-36.29-18.48,36.27,37.1.02Z" style="fill: #fff;"/>
  <polygon points="444.5 56.04 399.36 56.05 399.37 74.02 459.48 74.02 459.46 93.49 373.14 93.49 373.14 3.62 458.2 3.62 458.21 23.09 399.37 23.09 399.37 40.67 444.45 40.66 444.5 56.04" style="fill: #fff;"/>
  <polygon points="646.61 93.44 620.38 93.51 620.39 23.09 584.99 23.09 585.02 3.62 681.98 3.62 682 23.09 646.6 23.09 646.61 93.44" style="fill: #fff;"/>
  <path d="M1178.06,98.9c-5.11,19.55-27.42,24.12-45.54,19.03-16.48-4.63-22.42-21.19-19.05-37.69,4.16-20.35,27.24-25.43,45.92-20.17,17.2,4.84,23,22.26,18.67,38.83ZM1145.98,106.79c7.83.02,13.82-4.43,15.26-11.92.71-3.68.71-8.08.03-11.75-1.47-7.87-8.01-12.03-15.67-11.92-7.24.11-13.19,3.94-14.8,11.32-.93,4.28-.9,9.28.18,13.54,1.78,7.03,7.54,10.7,15,10.73Z" style="fill: #fff;"/>
  <path d="M1045.89,108.89c.8-11.3,14.49-15.19,23.32-18.39l14.28-5.18c2.64-.96,4.22-3.94,4.21-6.44-.03-6.83-9.62-9.29-18.73-6.54-5.82,1.75-8.34,6.9-6.84,13.47l-15.64-.09c-2.44-10.87,2.81-20.65,13.03-24.53,10.45-3.98,22.49-4.04,33.06-.23,10.58,3.81,15.87,15.45,10.61,25.41-1.94,3.68-6.06,6.62-9.95,7.99l-20.54,7.25c-2.76.97-5.47,1.58-7.58,4.38l42.02.1v12.88s-61.95,0-61.95,0l.71-10.06Z" style="fill: #fff;"/>
  <path d="M1185.99,108.89c.8-11.3,14.49-15.19,23.32-18.39l14.28-5.18c2.64-.96,4.22-3.94,4.21-6.44-.03-6.83-9.62-9.29-18.73-6.54-5.82,1.75-8.34,6.9-6.84,13.47l-15.64-.09c-2.44-10.87,2.81-20.65,13.03-24.53s22.49-4.04,33.06-.23,15.87,15.45,10.61,25.41c-1.94,3.68-6.06,6.62-9.95,7.99l-20.54,7.25c-2.76.97-5.47,1.58-7.58,4.38l42.02.1v12.88s-61.95,0-61.95,0l.71-10.06Z" style="fill: #fff;"/>
  <path d="M1309.85,107.89v11.06s-17.42,0-17.42,0l.05-11.04-40.21-.02-.12-13.28,40.23-35.57h17.48s0,35.93,0,35.93h11.07s0,12.93,0,12.93h-11.06ZM1292.47,94.98l-.09-19.56-22.36,19.55h22.45Z" style="fill: #fff;"/>
</svg>