<?xml version="1.0" encoding="UTF-8"?>
<svg id="Layer_1" xmlns="http://www.w3.org/2000/svg" version="1.1" viewBox="0 0 536.72 805.83">
  <!-- Generator: Adobe Illustrator 30.3.0, SVG Export Plug-In . SVG Version: 2.1.3 Build 182)  -->
  <g id="G1JVsx">
    <g>
      <g>
        <g>
          <path d="M328.52,234.25c-58.98-10.55-115.88-6.72-172.25,13.89-2.94,1.07-6.15-.54-7.42-2.72-1.5-2.56-.73-6.41,1.84-8.2l3.83-2.66c-2.64-11.45-7.78-23.65-17.12-30.91-3.56-.15-8.92.05-9.75-4.78-.77-4.45,1.73-8.86,7.36-8.82,1.7.01,4.76,1.4,5.61,2.74.95,1.51,1.25,4.6,1.29,6.7,5.92,6.17,14.38,8.89,23.07,8.84,19.33-.1,34.08-17.69,30.62-36.21-2.55-1.18-4.8-3.06-5.18-4.78-.59-2.73.76-5.8,2.96-7.21,3-1.91,6.42-1.59,8.99.69,2.2,1.95,2.62,5.29.93,8.35,6.37,11.05,19.03,17.11,32.3,15.48,11.71-1.44,23.08-10.12,26.28-22.21-3.66-2.29-5.22-6.26-3.01-9.63s6.53-4.4,9.82-2.25c3.69,2.31,4.5,6.83,1.29,10.56,3.02,12.36,13.22,21.03,24.65,23.25,12.64,2.46,25.99-2.6,32.79-13.07-.85-3.59-.84-7.75,2.25-9.72,3.99-2.55,7.72-.7,10.14,2.01,4.07,4.57-1.79,7.19-2.39,10.28-3.32,17.17,11.81,32.8,28.86,33.56,8.14.36,16.81-1.59,22.27-7.09-.09-3.68-.39-8.55,4.66-9.83,3.54-.9,7.96.9,8.78,5.39.73,4.07-2.32,8.04-7.28,8.1-8.78,8.23-14.66,18.97-17.64,30.93,2.61,1.34,5.81,3.29,6.51,6.23.97,4.09-4.47,8.1-8.44,6.61-15.34-5.78-30.23-10.59-46.6-13.52Z" style="fill: #ea1986;"/>
          <g>
            <path d="M282.08,115.28l-31.84-.02c-1.1-3.25-1.13-6.48-.28-9.86,10.47.35,19.73,1.3,30.35-.55-9.65-1.12-19.01-.86-29.03-.45l-15.27,11.15.17,9.21c.09,4.71-2.83,7.04-7.15,7.61-10.32,1.37-20.29,6.86-28.32,12.49-1.12.79-3.93.98-5.45.97l-50.37,37.44-31.47.03c-4.54,0-7.77-3.8-8.36-7.27-1.38-8.14,7.32-9.28,8.68-10.64.4-.4-.53-2.02-1.29-2.14-4.56-.72-8.61-6.5-6.43-11.44,2.3-5.22,7.31-6.38,14.21-4.89-4.46-4.33-7-7.29-5.23-12.07,1.45-3.94,6.04-6.96,11.06-5.37.78.25,2.66-.09,3.57-.58-4.1-3.6-5.19-7.71-2.6-12.18,2.22-3.82,8.28-4.84,12.06-2.55.49.3,2.11.64,2.63.7.65.08.05-2.16-.39-2.69-3.24-3.87-1.99-9.44,1.96-12.08,3.95-2.64,9.14-2.06,12.29,1.96l1.99-.68c.45-.15-.6-1.54-.81-1.97-2.31-4.78-.19-9.78,4.91-11.82,4.13-1.65,8.25.07,12.52,4.92-1.17-6.97-.9-11.66,4.39-14.11,4.53-2.1,10.28-.27,12.3,4.94l2.19-.3c-1.54-4.96.67-9.69,4.78-11.31,9.24-3.64,11.99,6.49,13.68,6.19.54-.1,1.61-1.76,1.56-2.47-.31-4.42,3.51-9.28,8.34-9.32,11.25-.09,7.58,11.78,13.45,11.78h60.78c6.17,0,2.59-12.06,14.39-11.4,8.14.45,7.35,11.47,8.98,11.47,2.29,0,5.26-9.89,13.72-6.24,4.81,2.08,5.86,6.06,5.8,12.8,4.05-5.69,8.17-8.24,13.38-6.11,4.79,1.96,6.79,7.2,4.45,12.67.48.14,2.41-.45,2.93-1.07,2.94-3.51,8.63-4.09,12.31-1.13,4.04,3.25,3.74,7.43,1.73,13.91,5.29-4.31,9.37-5.6,14.09-2.95,4.35,2.44,4.8,8.9,2.22,12.33-.37.5-.62,1.96-.55,2.38.29,1.78,7.21-5.36,13.67,1.03,3.23,3.2,3.32,8.38-.16,11.8l-1.4,1.37c-.4.39,1.92,1.26,2.51,1.05,3.56-1.3,9.21,0,11.02,3.25,2.48,4.44,1.41,8.5-2.38,11.92l-1.04.94c-.25.22.15,1.42.48,1.33l1.87-.48c5.22-1.35,10.21,1.63,11.33,6.28,1.33,5.54-2.66,10.08-8.2,10.71-.72,3.64,9.56,2.94,9.05,11.35-.26,4.36-3.76,8.23-8.62,8.24l-31.14.06-49.85-36.94-6.29-3.22c-7.87-5.41-16.46-9.48-25.9-10.88-4.26-.63-7.09-2.85-7.03-7.68l.09-7.33-14.57-10.69-.47,8.61Z" style="fill: #ea1986;"/>
            <g>
              <path d="M285.6,50.75l-42.17-.95c7.83-8.24,14.86-13.48,21.92-18.79-3.09-.24-3.94-2.58-3.72-4.6.27-2.24,2.2-3.94,4.48-3.91s4.17,1.78,4.39,4.13c-.5,3.14-1.42,3.73-3.27,4.51l19.03,15.96c.33.28.99,1.26,1.11,1.59.18.48-.88,1.37-1.77,2.05Z" style="fill: #ea1986;"/>
              <path d="M260.16,29c-7.1,5.93-9.67,13.7-19.21,18.07l-.31-38.13.81-2.67c.19-.64,2.27.02,2.76.54l15.81,16.82c.86.91,1.09,4.59.15,5.37Z" style="fill: #ea1986;"/>
              <path d="M269.17,20.39c-2.18,1.57-5.15,1.1-6.91-.56-6.16-5.8-12.7-9.38-18.61-17.13l41.01-.7c.44.09,1.93.35,2.01.71l.52,2.18-18.03,15.5Z" style="fill: #ea1986;"/>
              <path d="M290.79,47.69c-8.51-5.3-12.87-13.19-18.79-18.7-1.03-.96-.75-4.43.12-5.38l15.71-16.93c.25-.27,1.41-1.02,1.65-.79l1.8,1.73-.49,40.07Z" style="fill: #ea1986;"/>
              <path d="M276.33,65.2c.15,2.35-1.58,4.46-3.78,4.46h-14.63c-1.09,0-3.19-2.15-3.15-3.29l.49-13.28,20.29-.17.77,12.27Z" style="fill: #ea1986;"/>
            </g>
            <g>
              <path d="M281.54,129.16l-30.85.03c-.96-3.73-.96-8.51-.27-13.03l30.99.02c.65,4.09.66,7.99.13,12.98Z" style="fill: #ea1986;"/>
              <path d="M279.95,141.68l-27.75.09c-.85-3.92-.83-7.34-.07-11.75h27.38c.96,3.85.94,6.46.44,11.66Z" style="fill: #ea1986;"/>
            </g>
          </g>
        </g>
        <path d="M292.09,595.76c.53.52.95,2.55.69,3.08-.35.71-2.16,1.8-3.02,1.72l-16.69-1.61c-5.68-.55-10.51-.94-16.29-.49l-19.45,1.5c-.58.04-2.21-.84-2.53-1.3-.43-.61-.13-2.78.48-3.36l10.42-9.86c1.53-1.45,2.4-3.76,2.42-6.2l2.05-259.92c-1.69-.61-4.06-1.98-3.74-2.9s1.87-2.31,3.15-3.38c.43-4.01-1.06-9.32-2.83-13.46l-6.29-14.71c-14.33,11.3-24.62,24.49-19.1,41.9,1.04,3.27,4.03,5.39,6.83,5.51,3.62.16,6.7-1.61,8.01-5.23l2.8-7.72c7.66,8.83,5.2,21.81-3.84,28.1-7.07,4.92-16.75,3.56-22.13-2.88-4.99-5.97-6.83-13.19-6.54-20.84,1.01-26.35,21.54-43.77,44.23-56.21-32.07-4.2-60.04-4.17-84.42,18.01-33.12,30.14-36.98,81.38-13.62,119.39,6.84,11.14,15.57,20.32,26.93,27.23,10.12-15.08,30.17-20.37,46.46-13.12,6.55,2.91,10.64,8.26,11.04,14.77s-2.78,12.86-9.02,16.1c-12.44,6.47-27,4.09-40.7-.23-7.48,21.11-9.26,43.79-15.99,64.71-5.56,17.28-15.18,31.91-28.76,43.71-12.64,10.98-27.97,17.01-44.91,17.16-7.23.06-14.13-1.69-19.92-5.99-4.6-3.41-7.04-9.77-4.96-15.4,2.01-5.46,9.33-9.69,15.11-7.1-2.14,4.76-5.62,10.47-1.88,15.18,6.34,7.97,21.87,5.75,31.71-5.56,8.45-9.71,14.71-20.81,19.32-33l17.93-47.45c4.37-11.56,9.85-22.07,16.92-32.37-37.73-18.69-61.47-56.43-62.27-98.26-.48-25.25,9.36-48.42,27.57-65.59,30.29-28.58,66.75-31.88,106.82-25.07,7.62,1.3,14.43,3.25,21.98,6.43,17.54-6.36,35.78-7.74,54.63-7.79,26.21-.07,50.55,8.2,70.12,25.35,20.36,17.85,31.73,42.75,30.81,70.12-1.42,42.24-26.37,79.77-64.49,97.28,7.17,10.66,12.62,21.79,16.8,33.87l15.27,44.13c4.59,13.25,10.78,25.42,19.66,36.17,9.07,10.97,24.19,14.57,31.23,6.88,3.88-4.23,1.86-10.56-1.42-15.56,5.83-2.67,13.41,1.61,15.35,7.53,2.23,6.82-1.9,13.69-7.9,16.71-4.77,2.4-9.73,3.8-15.1,3.82-38.48.16-66.76-31.67-75.99-67.24l-6.26-30.77-7.16-30.04c-13.69,4.08-28.2,6.1-40.9-.9-5.98-3.3-8.86-9.55-8.4-16.08.43-6.1,4.29-11.49,10.69-14.33,16.59-7.35,36.76-1.4,46.82,14.04,13.37-7.6,22.99-18.38,30.42-31.23,23.7-41,15.19-96.39-24.76-123.47-21.85-14.81-47.48-14.23-73.6-11.64,22.91,12.57,43.85,32.09,43.15,59.27-.18,6.89-2.46,13.58-7.08,18.73-6.5,7.25-17.9,7.13-24.61.02-6.62-7.01-7.84-18.04-.81-26l2.57,7.16c1.25,3.48,3.87,5.74,7.19,5.89,10.67.48,12.94-19.37,3.92-32.64-4.04-5.94-9.31-10.88-14.22-14.9l-5.68,12.44c-2.12,4.64-4.08,10.15-4.19,14.85l3.78,4.38-4.24,2.46-2.07,261.41c-.02,2.34,2.1,4.6,3.55,6.03l8.9,8.77ZM266.04,302.76l18.82-15.07,5.14-3.66c-7.59-5.31-15.17-9.21-23.73-12.52-8.36,3.1-16.24,6.85-23.82,11.87l4.32,3.16,19.28,16.21ZM220.52,441.76c3.44-1.43,4.61-5.14,4.32-8.11-.25-2.56-2.47-5.55-5.54-6.7-10.39-3.88-22.63.72-27.3,11.57,8.22,5.55,19.07,7.15,28.52,3.24ZM337.15,440.52c-3.99-10.76-16.67-16.44-27.11-12.34-4.05,1.59-5.91,4.79-5.52,8.73.98,9.87,21.15,10.76,32.63,3.61Z" style="fill: #ea1986;"/>
      </g>
      <g>
        <g>
          <path d="M165.67,802.2c-14.82,3.06-29.47,1.86-42.56-5.25-15.68-8.51-24.59-25.47-24.17-43.02.41-17.17,9.84-33.66,26.05-41.43,16.52-7.91,35.88-7.97,52.86-1.57,16.55,6.23,26.45,20.83,27.67,38.09,1.82,25.7-14.11,47.87-39.86,53.19ZM166.13,796.18c22.22-6.25,24.88-38.9,17.64-59-6.17-17.14-22.21-26.85-40.01-24.53-10.78,1.41-19.86,7.69-23.65,18.32-5,14.02-4.57,29.77,1.37,43.5,7.52,17.41,26.07,26.95,44.66,21.72Z" style="fill: #ea1986;"/>
          <path d="M45.25,763.65l-14.64-.54.65,30.93c.15,7.04,8.64,4.36,13.04,7.07-6.44,1.18-11.84.88-18.01.6-7.61-.35-14.43,1.19-22.35-.7l8.9-2.52c1.42-3.81,2.16-8.11,2.16-12.38l.02-67.99c0-1.72-.82-4.55-1.72-5.54-2.98-3.32-9.26-.75-11.3-3.66l15.7-.49,18.07-.17c13.8-.13,29.45-.01,35.88,12.8,6.86,13.68-1.41,27.09-14.78,37.22l27.71,32.31c5.49,6.4,12.18,8.48,21.02,10.32-8.04,1.82-15.47,1.41-23.27.59-5.84-.61-11.4-4.45-14.96-9.08l-22.12-28.77ZM57.34,727.43c-2.56-7.96-9.68-13.81-18.08-13.43l-8.61.39-.04,41.62c5.8,1.33,11.73,2.16,17.39.77,9.37-2.29,13-17.97,9.33-29.35Z" style="fill: #ea1986;"/>
          <path d="M354.67,769.57l-31.16-.03-8.59,21.67c-.68,1.72-.85,5.65-.3,7.2l8.73,2.7c-6.48,1.3-11.84.56-18.08.55-5.51,0-10.79,1.56-16.41-1.17,8.06-.63,13.42-2.32,16.24-9.4l35.06-83.42c.48-.69,2.06-2.69,2.59-2.17l2.37,2.33,33.63,79.65c2.45,4.61,4.9,8.86,9.24,11.53,3.03.74,6.2.24,9.39,2.33-12.13,1.13-22.73.84-35.07.03l3.62-3.24-11.27-28.56ZM352.01,763.28l-12.72-33.08-13.3,33.2,26.03-.12Z" style="fill: #ea1986;"/>
          <path d="M269.78,752.66c-3.75,5.73-4.77,11.46-4.62,17.98l.55,23.16c.17,7.01,8.55,4.93,14.59,7-6.26,1.82-11.3.97-17.24.97h-24.93s.04-1.55.04-1.55l7.24-1.14c1.58-.25,3.28-4.12,3.29-5.8l.16-26.94c.03-4.44-2.38-9.16-4.81-12.85l-23.86-36.24c-3.39-5.14-8.63-5.47-14.13-8.77l35.24-.15c-1.56,1.46-2.14,1.8-4.41,3.25-.2,1.18.5,4.45,1.57,6.23l21.99,36.56,19.63-33.93c1.58-2.73,2.51-7.31.92-9.32-1.97-.73-3.4-1.45-3.96-2.7l28.35-.12,1.64.77c1.95.92-9.49,1.21-13.64,7.54l-23.6,36.04Z" style="fill: #ea1986;"/>
          <path d="M480.34,799.57l.56-20.76c.02-.55,1.29-2.36,1.51-2.01l1.4,2.34c-.12,11.3,8.53,19.13,19.58,18.58,6.95.32,14.07-2.72,16.71-9.44s.36-14.52-5.18-18.95l-14.78-11.82c-6.03-4.82-11.71-10.03-14.91-16.94-6.17-13.32.27-27.38,14.18-31.92,10.58-3.45,21.82-2.72,32.8.51-.73,7.15.92,13.54-2.05,20.27-1.88-12.22-9.79-18.55-20.85-17.3-5.15.59-10.16,2.73-12.21,7.12-2.27,4.87-1.97,11.34,2.34,14.91l12.65,10.49c6.16,5.11,12.72,9.68,17.44,16.16,5.34,7.33,6.7,16.44,3.42,25.49-6.47,17.87-33.69,21.64-52.62,13.26Z" style="fill: #ea1986;"/>
          <path d="M453.29,795.32c9.12.21,10.21-9.85,11.8-12.77.29-.52,1.92,1.48,1.8,2.14l-2.61,15.6c-.25,1.47-4.47,2.2-5.85,2.23l-44.62-.92c-5.01.51-9.49.91-14.61-.76l8.97-2.14c1.58-3.59,2.37-7.66,2.37-11.7l.03-68.89c0-4.55-2.61-7.53-7.29-7.49-1.62.01-3.45-.43-5.19-1.69l13.11-.53,16.31-.02c4.27,0,7.46-.18,12.08.97-2.8.96-4.43,1.17-6.84,1.33-3.25.22-5.7,2.4-5.7,6.01l.11,69.83c0,4.42,2.78,8.29,6.97,8.39l19.13.43Z" style="fill: #ea1986;"/>
        </g>
        <g>
          <path d="M389.17,675.12l-39.79-.04,5.17-2.07.65-24.05h-28.14s.32,23.67.32,23.67l7.31,2.38-22.26.08,4.3-1.87c.76-.33,1.39-2.47,1.39-3.39l.17-40.5c0-.87-.24-2.71-.83-3.11l-3.57-2.41h18.11s-3.67,2.26-3.67,2.26c-.73.45-1.03,2.29-1.03,3.32l-.05,15.95h28.37s-.17-17.21-.17-17.21c-.01-1.43-2.53-3.01-4.32-4.3l17.64.02c-1.7,1.12-4.4,2.73-4.4,4.21l.04,41.18c0,2.57,1.75,4.15,3.96,4.54,4.34.77,8.27.37,10.85-3.1l20.96-49.61,20.66,47.76c1.73,3.99,5.11,5.64,9.37,5.3l3.8-.71c.83-.16,1.49-2.49,1.5-3.35l1.07-48.32,41.12,40.48-.59-32.76c-.02-1.09-.4-2.89-1.11-3.34l-3.6-2.26,13.4-.13-3.11,4.76-.7,45.65-.92,1.5c-.24.39-1.25-.03-2.06-.34l-38.93-38.15.97,32.4c.03,1.15.83,3.38,1.76,3.73l4.69,1.79-36.36.12c.46-.83,1.4-2.67,1.13-3.35l-5.66-14.36-16.93-.12-4.92,12.62c-.27.69-.37,3.01.26,3.3l4.15,1.86ZM405.47,653.83l-6.97-18.26-7.17,18.39,14.14-.13Z" style="fill: #ea1986;"/>
          <path d="M61.03,654.11l-8.17-.38.38,18.62,6.71,2.61-12.59-.02h-8.78s4.39-1.7,4.39-1.7c.79-.3,1.41-2.33,1.41-3.32l.18-40.62c0-2.04-1.65-3.83-3.38-5.46l23.8.18c3.5.03,7.48,2.75,9.19,4.8,5.44,6.49,1.76,16.11-6.91,22.4l11.76,14.13c2.6,3.12,5.23,5.28,8.82,7.92,1.76-2.48,2.92-4.6,4.06-7.44l18.97-44.83,20.35,47.3c1.65,3.83,4.64,5,8.92,6.62l-17.11-.12c0-2.49-.08-4.07-.61-5.36l-4.93-12.22-16.9.03-4.74,12.24c-.33.86-.52,3.1.2,3.44l4,1.9-17.01.21c-3.43.04-7.62-2-9.72-4.77l-12.29-16.17ZM63.36,649.84c6.23-3.16,6.52-16.33.66-20.87-3.23-2.5-7.58-2.58-11.11-1.7l.12,22.69c3.19.66,7.6,1.27,10.33-.12ZM116.16,653.78l-7.01-18.22-7.19,18.35,14.2-.12Z" style="fill: #ea1986;"/>
          <path d="M196.99,657.23l-17.11-.21-4.92,12.65c-.43,1.1.43,3.2,1.24,4.91l-10.91.16,4.42-5.18,20.42-48.35,20.57,47.66c1.6,3.7,4.52,4.63,8.65,6.15l-17.48.13c.33-1.18.77-3.22.47-4l-5.37-13.93ZM195.39,653.83l-6.86-18.19-7.33,18.28,14.19-.09Z" style="fill: #ea1986;"/>
          <path d="M286.38,668.61c0,1.59.54,4.25,1.52,4.58l5.45,1.81-21.89.06,4.27-1.68c1.06-.42,1.62-3.07,1.62-4.43l.08-41.65-12.72.37c-3.56.1-4.73,1.7-7.32,4.92l1.55-9.67,10.14.94,36.11-.21-.56,9.72c-1.31-2.62-2.64-5.19-5.43-5.35l-12.9-.73.08,41.34Z" style="fill: #ea1986;"/>
          <path d="M250.7,664.5c-2.42,11.11-16.62,14.06-29,9.37-.35-4.21-.2-8.12.44-12.35,1.95,4.08,2.62,7.01,4.67,8.96,4.37,4.15,13.8,2.84,16.11-2.25,4.94-10.91-11.93-15.34-18.61-26-1.3-3.98-1.76-7.21-.53-11.67,5.46-8.7,15.31-9.16,25.94-6.55l-.44,11.04c-1.65-3.03-2.4-5.31-4.12-7.16-3.45-3.72-13.31-2.89-14.98,2.52-.78,2.53.13,6.34,2.25,8.1l13.64,11.32c4.3,3.57,5.76,9.49,4.63,14.68Z" style="fill: #ea1986;"/>
          <path d="M156.88,668.16c0,10.75-6.47,20.62-17.31,23.58,5.14-4.78,8.31-9.72,8.34-16.6l.2-45.67c0-1.17-.34-2.94-1.03-3.37l-3.7-2.27,18.07-.03-3.08,1.96c-.75.47-1.52,2.4-1.52,3.41l.02,38.99Z" style="fill: #ea1986;"/>
        </g>
      </g>
    </g>
  </g>
</svg>