<?xml version="1.0" encoding="UTF-8"?>
<svg id="Layer_1" xmlns="http://www.w3.org/2000/svg" version="1.1" viewBox="0 0 1335.51 514.74">
  <!-- Generator: Adobe Illustrator 30.3.0, SVG Export Plug-In . SVG Version: 2.1.3 Build 182)  -->
  <path d="M511.19,214.32c0-18.59,7.8-33.27,23.42-43.05,14.62-9.78,37.06-14.68,64.37-14.68,11.7,0,20.49,3.92,25.36,12.72,6.83,8.81,10.73,16.63,13.66,27.39.97,2.94,1.95,5.87,2.93,9.79.98,2.94,1.95,5.87,2.93,8.8.97,2.93,1.95,5.87,1.95,8.8,1.95,1.95,1.95,3.91,3.91,5.87,1.94-1.95,3.9-7.82,5.85-13.7,2.93-6.84,6.83-13.7,9.75-21.52,4.87-8.81,11.71-17.61,18.53-25.44,7.8-8.8,18.54-12.72,31.22-12.72,6.84,0,12.68,1.95,16.59,3.92,2.93,2.93,5.85,4.89,7.8,7.83-2.93-2.94-5.85-4.89-9.75-5.87-2.92-1.96-6.83-2.93-10.73-2.93h-1.96c-7.79,0-13.65,1.96-18.52,7.82-3.9,4.89-6.83,10.77-8.79,16.63-.97,1.96-.97,3.91-1.95,5.88v4.89c0,5.87,1.95,14.68,4.88,24.46,2.93,9.78,7.81,19.57,13.66,30.34,7.81,12.71,16.58,24.45,28.29,36.2,11.7,11.74,25.36,20.54,40.97,25.44h-20.48c-21.46,0-38.05-5.87-49.75-16.63-11.71-11.74-19.51-23.48-25.37-37.18-4.88-12.72-7.81-25.44-9.76-35.22,0-11.74-.96-17.61-.96-17.61-2.94,2.93-4.88,6.85-7.81,12.71-2.93,5.88-4.88,11.74-7.81,18.6-1.95,6.84-3.9,14.67-5.86,21.52-1.95,6.86-3.9,11.75-4.88,12.72-1.95-.98-3.91-3.91-6.82-8.81-1.96-5.86-4.88-10.76-7.81-16.63q0-1.95-.98-3.91c-.98-.98-.98-1.95-.98-2.94-3.9-7.83-5.85-15.65-8.78-22.5-2.93-5.87-4.88-9.79-5.84-11.74-.98,5.88-2.93,12.72-4.88,21.53-1.95,9.78-4.88,18.59-9.75,29.35-5.86,13.7-12.68,26.42-22.43,39.14-8.78,10.76-20.48,16.64-34.15,16.64-8.77,0-16.58-2.94-22.43-10.77-4.88-5.87-8.78-14.67-9.76-24.46,3.9,3.91,7.8,7.83,13.65,9.79,3.91,2.93,10.73,3.91,18.53,3.91,16.58,0,29.27-5.87,38.05-16.63,8.78-9.79,15.61-22.5,19.5-35.22,1.95-8.81,3.9-15.66,4.88-23.49.97-6.84.97-13.7.97-18.59,0-10.77-.97-19.57-3.9-24.46-2.93-4.89-8.78-7.82-19.51-7.82-18.53,0-32.2,3.91-42.91,11.74-9.76,7.83-15.61,18.59-15.61,31.31,0,7.83.98,14.68,3.91,19.57,1.95,4.89,3.9,8.8,6.83,11.74,2.92,3.91,5.86,5.87,7.8,7.82,1.95,1.96,3.91,2.94,3.91,4.9,0,0-1.95,1.95-2.92,1.95-.98,1.95-2.93,1.95-4.88,1.95,0,.98-1.94.98-2.92,1.96h-1.95s-1.95-.98-3.9-1.96c-1.95-1.95-3.9-3.91-6.82-6.85-1.96-3.91-4.88-7.83-6.83-12.72-1.95-5.87-2.92-11.74-2.92-18.59v-.98Z" style="fill: #ea1f27; fill-rule: evenodd;"/>
  <path d="M1236.93,263.24c0,2.94-1.94,4.9-5.84,6.85-4.88,1.96-8.79,2.93-13.66,2.93v.98h-.98v-51.85l-.98-.98c0-.97-.97-2.94-1.95-3.91-.98-.98-1.95-1.95-3.9-1.95-.98,0-1.96,0-3.91.97-1.95.98-2.93,1.96-4.88,3.92-.98,0-1.95,1.95-2.92,1.95-.98,1.95-2.93,1.95-2.93,3.91-2.92,1.96-4.87,3.91-5.85,5.87-1.95,2.94-2.93,2.94-2.93,3.92v28.37c0,1.96-1.95,3.91-5.86,4.89-2.91,1.95-6.82,2.94-10.72,3.91h-1.95s-.98.98-1.95.98v-58.7s0-.98-.97-.98h-1.95c-.97,0-2.92,0-4.88.98-1.95,0-3.9.97-6.82,1.95,9.76-7.82,16.58-12.71,18.54-14.68,2.92-1.95,5.85-2.94,6.83-2.94h.98c2.91,0,4.87.98,5.84,4.9.98,2.93,1.96,5.87,2.93,8.8,0,3.91,0,6.86.97,9.79v4.89c.97-.98,1.95-2.93,3.9-5.87,1.96-1.95,3.9-4.9,7.81-7.83,2.93-2.93,6.82-5.87,9.75-8.81,3.9-2.94,7.8-4.89,11.7-4.89q.97-.98,1.95-.98h1.95c3.9,0,6.84.98,8.78,4.9,1.96,2.93,2.93,5.87,3.9,8.8,0,1.96.97,3.91.97,6.86v6.84c.98-.98,2.93-2.94,4.89-4.89,1.95-1.95,4.88-5.88,6.83-8.81,3.9-2.93,7.8-5.87,12.68-8.8,3.91-3.92,7.8-4.9,12.69-4.9,2.92,0,5.85.98,6.82,1.96,1.96.98,2.93,3.91,4.88,5.87,0,0,.99,1.96.99,2.94v53.81h7.79c1.95-.99,3.91-1.96,6.83-4.9v.98c0,.98,0,1.95-.98,2.93-.97.99-1.95,1.96-2.93,2.94-1.95,1.95-4.88,2.93-6.82,3.91-1.96,1.96-4.89,1.96-7.81,2.93q-.98,0-.98.98h-1.94c-2.93,0-5.85-1.95-7.81-3.91-1.96-.98-3.9-3.91-4.88-5.87v-42.07c-.97,0-.97-.98-1.95-1.95,0-.98-.98-1.96-1.95-2.94-.98-.98-1.96-1.95-3.91-1.95-.97,0-2.92.97-3.9,1.95-1.94,0-2.92,1.96-4.87,2.94-.98.97-1.95,1.95-2.94,2.93-.96.97-1.95.97-2.92,2.93-2.92,1.96-4.88,3.91-5.86,5.87-1.95,2.94-2.92,2.94-2.92,3.92v28.37-.99ZM1105.24,205.51c-7.8,3.92-13.65,7.83-17.55,11.74-3.9,4.9-5.85,10.77-5.85,19.57v.97c0,3.92.98,6.85,2.92,9.79,1.96,2.94,5.85,3.92,13.66,3.92,3.9,0,7.8,0,10.72-1.95,2.93-1.96,5.86-3.92,8.78-6.86v-37.18h-12.69ZM1061.35,249.55c0-14.68,2.93-24.47,8.79-30.34,5.84-6.85,12.68-11.75,19.49-13.7,2.94-1.96,4.89-2.94,7.81-2.94,2.93-.98,4.88-1.95,7.8-2.94h35.13v64.58c2.92,0,4.87.98,6.82.98,0,.98.99.98,1.96,0l1.95-.98s1.95-.99,3.89-1.96c-4.87,3.92-7.8,5.87-10.72,7.83-1.96,1.96-2.92,1.96-3.9,2.93q-1.96.98-3.91.98h-3.9c-4.88,0-7.8-1.95-8.78-3.91-1.95-2.94-2.93-5.87-3.91-9.79v-2.94c0-.98-.97-1.95-.97-2.93s-.98-.98-.98-2.93c-.97,1.95-2.92,2.93-4.88,4.88-1.95,1.95-4.87,3.91-7.81,5.87-2.92,1.96-4.87,3.92-6.82,4.9-1.95,1.96-4.88,2.94-7.81,3.91-1.95.98-3.9.98-4.88,1.95-1.94.98-3.9.98-5.85.98-5.85,0-9.75-1.95-12.68-5.87-3.9-3.91-5.86-10.77-5.86-18.58ZM1012.57,184.97c0-6.85,1.96-11.75,5.85-17.62,4.88-5.86,9.76-8.8,16.59-8.8h27.32s-.98.99-1.96,1.96c-1.94,1.96-3.9,2.93-5.85,4.89-2.93.98-5.86,1.95-9.76,3.91-2.92.98-6.83,1.95-11.7,1.95v89.04h2.93q0,.98.98.98v.98h2.92c.97,0,2.93,0,4.88-.98,1.95-.98,5.86-1.95,9.76-4.89-.97.98-1.95.98-1.95,1.95q-1.94.98-2.92,1.96c-4.88,3.92-8.78,5.88-12.68,8.81-3.9,2.94-7.8,3.91-11.71,3.91-2.93,0-4.88-.97-6.84-1.95-1.95-1.95-3.9-3.91-3.9-5.87-.97-.98-1.96-.98-1.96-2.94v-77.29ZM970.63,205.51c-9.75,1.95-15.61,4.9-18.53,10.76-3.9,5.88-5.85,12.72-5.85,20.55,0,2.93.98,5.87,2.93,9.78,2.92,2.94,6.83,3.91,11.71,3.91s7.8-.97,11.7-2.94c1.95-1.96,4.88-4.89,8.78-6.85v-35.22h-10.73ZM981.36,308.25v-55.77c-.98.98-3.9,1.95-7.81,3.91-2.93,1.95-7.81,4.89-11.7,8.81-5.85,3.91-9.76,8.8-14.63,15.66-3.9,4.89-5.86,11.74-5.86,18.59,0,7.83,1.96,12.72,5.86,16.63,2.92,3.91,7.8,5.87,12.68,5.87h1.95c4.88-.98,8.78-1.95,12.68-3.91,4.89-1.95,6.83-5.87,6.83-9.78ZM924.78,249.55c0-14.68,1.96-24.47,7.81-32.3,6.82-5.86,12.68-11.74,19.51-14.68,2.93,0,5.85-.98,8.79-1.95,2.92,0,5.84-.98,7.8-.98h34.13v91.98c0,1.95-.97,3.91-1.95,7.82-1.95,2.94-3.9,5.87-6.83,8.81-4.87,5.87-10.73,11.74-17.56,16.64-7.8,4.89-16.58,6.84-24.39,6.84-9.75,0-16.58-1.95-20.48-6.84-2.93-3.92-4.87-9.79-4.87-15.66v-9.79c.97-2.93,1.94-5.87,2.92-9.78.98-2.94,2.93-4.89,4.88-7.83,1.95-1.95,3.9-4.9,6.82-6.85-3.89-.98-6.82-2.93-8.77-4.89-1.95-1.96-2.93-2.94-3.91-3.91-1.94-1.96-3.9-3.92-3.9-6.85v-9.78ZM816.51,217.25s.97-.98,2.92-2.93c1.95-.98,3.9-3.91,6.83-5.87.97-.98,1.95-.98,2.94-1.95q.97-.98,2.92-.98c1.95-1.96,3.91-2.94,5.86-4.89,1.94,0,2.92-.98,4.87-.98,2.93,0,3.9.98,5.86,4.9.98,2.93,1.95,5.87,1.95,9.78.97,1.95.97,3.91.97,5.87v7.82c.98,0,2.93-1.96,4.88-4.89,1.96-2.93,4.88-5.88,6.83-8.81,3.9-2.93,6.82-4.89,10.73-7.83,2.93-2.94,6.83-4.9,10.73-5.87,0,0,1.95,0,1.95-.98h2.93c2.92,0,5.85.98,7.8,2.94,1.95,1.96,3.91,3.92,3.91,5.87q.98.98.98,1.96v52.83q0,.99.97.99h2.93c.97,0,2.92,0,3.9-.99,1.95,0,4.88-.98,7.8-3.91-1.95,1.95-2.93,2.93-3.91,4.9-1.95.98-2.92,1.96-3.9,2.93-2.93,1.96-4.88,3.91-7.8,4.9-2.93.97-4.88,1.95-6.83,1.95-3.9,0-6.83-1.95-8.78-3.91-2.93-1.96-3.89-4.89-3.89-7.83v-39.13c0-1.96-.98-2.93-2.93-4.9-.98-.98-1.95-1.96-3.9-2.93-3.9,0-6.82,1.95-9.75,3.91-2.93,1.95-5.86,4.89-7.8,6.84-1.96,2.94-2.94,4.9-4.89,7.83-.97,1.96-1.95,2.94-1.95,2.94v26.41c-.97,2.94-2.92,4.9-5.85,6.85-2.93,1.96-7.8,2.93-13.66,3.91v-58.7l-.98-.98-.97-.98h-2.93c-.97,0-2.92,0-3.9.98-1.94,0-3.9.98-6.82,2.93ZM771.64,205.51c-8.78,3.92-14.64,7.83-18.54,11.74-3.9,4.9-5.85,10.77-5.85,19.57v.97c0,3.92.97,6.85,2.92,9.79,1.95,2.94,6.83,3.92,13.66,3.92,3.9,0,7.81,0,11.7-1.95,1.95-1.96,5.85-3.92,8.78-6.86v-37.18h-12.68ZM727.74,249.55c0-14.68,1.96-24.47,7.82-30.34,6.82-6.85,12.68-11.75,19.51-13.7,2.92-1.96,5.84-2.94,7.81-2.94,2.92-.98,5.85-1.95,8.78-2.94h34.13v64.58c2.93,0,5.86.98,6.82.98q.98.98,1.96,0,.97,0,.97-.98c1.95,0,2.93-.99,4.88-1.96-4.88,3.92-7.81,5.87-9.75,7.83-1.95,1.96-3.91,1.96-5.86,2.93,0,.98-.97.98-1.95.98h-3.9c-5.84,0-8.77-1.95-10.72-3.91-.97-2.94-1.95-5.87-1.95-9.79,0-.98-.99-.98-.99-1.96v-.98c0-.98-.96-1.95-.96-2.93v-2.93c-1.96,1.95-2.93,2.93-5.86,4.88-1.94,1.95-4.87,3.91-6.82,5.87-2.93,1.96-4.88,3.92-7.81,4.9-1.96,1.96-4.88,2.94-6.83,3.91-2.93.98-4.88.98-6.83,1.95-.98.98-2.92.98-4.87.98-5.86,0-9.75-1.95-13.66-5.87-2.93-3.91-3.91-10.77-3.91-18.58Z" style="fill: #ea1f27; fill-rule: evenodd;"/>
  <rect x="512.66" y="376.74" width="488.71" height="5.87" style="fill: #ea2427;"/>
  <polygon points="2 155.61 356.09 65.59 358.04 24.5 425.35 24.5 426.32 48.96 598.98 2 1085.73 131.15 1083.79 139.96 595.08 53.85 5.9 165.4 2 155.61" style="fill: #2d368e; fill-rule: evenodd;"/>
  <path d="M167.82,165.4h79.02c2.92,0,5.85,3.91,5.85,7.82v53.82c0,4.89-2.93,8.81-5.85,8.81h-79.02c-3.9,0-6.83-3.92-6.83-8.81v-53.82c0-3.91,2.93-7.82,6.83-7.82" style="fill: #2d368e; fill-rule: evenodd;"/>
  <path d="M284.88,165.4h79.99c2.92,0,5.86,3.91,5.86,7.82v53.82c0,4.89-2.94,8.81-5.86,8.81h-79.99c-2.92,0-5.85-3.92-5.85-8.81v-53.82c0-3.91,2.92-7.82,5.85-7.82" style="fill: #2d368e; fill-rule: evenodd;"/>
  <path d="M401.93,165.4h79.99c3.9,0,5.85,3.91,5.85,7.82v53.82c0,4.89-1.95,8.81-5.85,8.81h-79.99c-1.95,0-4.88-3.92-4.88-8.81v-53.82c0-3.91,2.93-7.82,4.88-7.82" style="fill: #2d368e; fill-rule: evenodd;"/>
  <path d="M167.82,251.5h79.02c2.92,0,5.85,3.91,5.85,9.78v52.84c0,4.89-2.93,8.8-5.85,8.8h-79.02c-3.9,0-6.83-3.91-6.83-8.8v-52.84c0-5.86,2.93-9.78,6.83-9.78" style="fill: #2d368e; fill-rule: evenodd;"/>
  <path d="M284.88,251.5h79.99c2.92,0,5.86,3.91,5.86,9.78v52.84c0,4.89-2.94,8.8-5.86,8.8h-79.99c-2.92,0-5.85-3.91-5.85-8.8v-52.84c0-5.86,2.92-9.78,5.85-9.78" style="fill: #2d368e; fill-rule: evenodd;"/>
  <path d="M401.93,251.5h79.99c3.9,0,5.85,3.91,5.85,9.78v52.84c0,4.89-1.95,8.8-5.85,8.8h-79.99c-1.95,0-4.88-3.91-4.88-8.8v-52.84c0-5.86,2.93-9.78,4.88-9.78" style="fill: #2d368e; fill-rule: evenodd;"/>
  <path d="M167.82,339.56h79.02c2.92,0,5.85,3.92,5.85,8.81v52.84c0,5.87-2.93,9.78-5.85,9.78h-79.02c-3.9,0-6.83-3.91-6.83-9.78v-52.84c0-4.89,2.93-8.81,6.83-8.81" style="fill: #2d368e; fill-rule: evenodd;"/>
  <path d="M284.88,339.56h79.99c2.92,0,5.86,3.92,5.86,8.81v52.84c0,5.87-2.94,9.78-5.86,9.78h-79.99c-2.92,0-5.85-3.91-5.85-9.78v-52.84c0-4.89,2.92-8.81,5.85-8.81" style="fill: #2d368e; fill-rule: evenodd;"/>
  <path d="M1041.84,350.32v20.55h16.58c6.82,0,10.73,0,12.67-.98,1.95,0,4.88-.98,6.83-2.94,1.95-1.95,1.95-3.91,1.95-5.87,0-2.93,0-4.89-1.95-5.87-.97-.97-2.92-2.93-4.89-2.93-2.91-.98-7.8-1.96-16.58-1.96h-14.62ZM1041.84,321.95v16.64h25.36c2.93-.98,4.87-.98,6.82-2.94,1.94-.97,2.93-2.93,2.93-5.86,0-1.96-.99-3.92-1.95-4.89-1.96-1.97-3.91-2.94-7.8-2.94h-25.36ZM1023.3,309.23h36.1c7.81,0,12.68.98,15.61.98,3.9,0,6.83.97,9.75,2.93,2.93.98,4.87,2.94,6.83,5.87,1.95,2.94,2.93,5.88,2.93,8.81,0,3.91-.98,6.85-3.91,9.78-1.95,1.95-4.88,4.9-8.77,5.87,5.85,1.96,9.76,3.91,12.68,6.85,2.92,3.92,3.9,6.85,3.9,10.76s0,6.85-1.95,9.79c-1.95,3.91-4.87,6.84-8.78,7.82-2.93,1.95-6.83,2.93-11.71,3.91h-52.68v-73.38ZM1151.09,322.92v47.96h12.68c3.91,0,7.8,0,9.76-.98,2.93-.98,4.87-.98,6.82-2.94,1.96-1.95,2.93-3.91,3.91-6.85.99-3.91,1.95-7.82,1.95-13.69,0-4.89-.96-9.79-1.95-12.72-.98-2.94-1.95-4.89-3.91-6.84-2.91-1.95-4.87-2.94-8.77-3.92h-20.48ZM1134.51,310.21h30.24c6.82,0,11.7,0,15.6,1.95,4.9,0,8.79,2.93,12.69,6.84,2.92,1.96,5.85,5.88,7.8,10.77.98,4.89,2.93,10.76,2.93,17.6,0,5.87-1.95,10.77-2.93,15.66-1.95,4.89-5.86,9.79-8.78,12.72-2.92,1.96-6.82,3.91-11.71,5.87-3.89.98-8.77.98-14.62.98h-31.22v-72.4ZM1239.85,382.61v-73.38h21.46v60.66h40.97v12.72h-62.44Z" style="fill: #2d368e; fill-rule: evenodd;"/>
  <path d="M303.41,481.43l2.93-1.95c2.93-.98,3.9-3.91,3.9-6.85s0-4.89-1.95-5.86v-.98h5.85v-23.48h-27.31v24.46c0,4.89.98,7.83,3.9,11.74,1.95,1.96,3.9,1.96,5.86,2.94l2.93.98c1.95,0,2.92,0,3.89-.98M314.14,483.39v.98h-.97q-.97,0-2.94.98s-1.95,0-2.92.98l-5.85.98h-4.87c-2.93,0-6.83-.98-9.76-1.95-3.9-.98-8.79-4.89-11.71-9.78-.98-2.94-.98-5.88-.98-7.83v-26.42h-1.95l-1.95-1.95-.98-1.96-.97-2.93-.98,3.91c-.99,0-.99.98-1.95,1.95-.98.98-1.95,1.96-2.92,1.96h-1.95v48.92c0,1.96-.97,2.94-1.95,4.89q-.97.97-2.92,1.95l-1.96.98h-5.85v-56.75h-1.95c-.98,0-2.92-1.96-4.87-3.91l-1.95-3.91h30.23-.97,67.3c-.97,3.91-3.9,5.86-8.78,6.85v51.86c0,1.96-1.95,3.91-3.9,4.89l-2.92.98h-5.86v-15.66ZM379.5,471.65h-7.8c1.96,0,2.93-2.94,2.93-5.87s-1.96-5.86-3.9-7.82c-.98-.99-2.94-1.96-5.86-2.94-2.93.98-4.88,1.95-6.83,4.9-1.95,1.95-3.9,5.86-3.9,7.82v4.89c0,3.92.97,6.85,2.93,9.79,2.92,3.91,5.85,4.89,9.75,6.85,2.93,0,5.85-1.96,7.81-3.91,1.95-.98,2.93-1.96,3.9-3.91.97-.97.97-2.94.97-3.91v-5.87ZM369.75,493.17h-4.88c-4.88,0-8.78-.98-10.73-1.96-2.93,0-5.86-1.96-8.78-3.92-3.9-3.91-6.83-8.8-6.83-14.68,0-6.85,2.93-11.74,6.83-15.66,1.95-1.95,4.88-2.93,6.82-3.91,2.92-.98,5.86-.98,9.76-.98h4.88c3.91,0,5.85,0,7.81.98,1.95,0,3.9.98,4.87,1.96v-10.76h-25.36l-5.86-.97c-1.95,0-4.87-.99-8.78-3.92l-2.92-2.94h100.47c-2.93,4.9-8.77,7.83-17.56,7.83h-27.31v15.66l1.95-1.96,2.92-1.96c.98-.98,2.93-1.96,4.88-2.94.98,0,1.95,0,3.9-.98h6.82c5.86,0,10.74,1.95,14.64,4.89.98,1.96,1.95,2.95,1.95,3.92,1.96.98,1.96,1.96,2.93,2.94,0,1.95.97,2.93.97,3.91v4.89c0,.99.97,1.96.97,1.96,0,1.96-.97,3.91-2.92,6.84,0,2.94-1.96,5.87-3.91,6.86l-2.93,2.93-2.92,1.96h-4.88l-3.9.98-4.87-.98h-5.86c-1.95,0-2.93-.98-3.89-1.96-2.93-1.96-3.9-3.92-3.9-6.85v-2.94l1.95-.97h5.85l-1.95.97v1.96c0,.98,1.95,3.91,2.93,4.9l1.95.97h2.93c2.93,0,6.82-1.96,8.78-5.87,1.96-3.91,3.91-6.84,3.91-10.77,0-4.89-1.95-8.8-3.91-11.74-1.95-.97-2.92-1.95-3.9-2.93-.97-.99-1.95-.99-3.9-.99-2.93,0-5.85,1.96-8.78,4.9-1.95,1.96-4.87,5.87-7.8,12.72v16.63c0,2.94-.98,5.87-4.87,7.83h-7.81v-9.79c-2.92,1.96-6.83,3.92-9.75,3.92ZM443.88,442.29c-.98,0-1.95-1.96-3.9-3.91l-1.95-3.91h29.26l-1.94,3.91s-.98.98-1.95,1.95c0,.98-.98,1.96-2.93,1.96h-1.95v48.92c0,1.96,0,2.94-1.96,4.89,0,.97-.97.97-1.95,1.95l-2.93.98h-5.86v-56.75h-1.95ZM216.59,482.41h-7.8l-1.94-.98c0,4.89-3.9,9.79-7.81,13.7-5.86,4.89-12.68,6.84-19.51,6.84h-5.84c-3.91,0-7.81,0-10.74-.98-2.92-1.95-5.85-2.94-8.78-4.89-3.9-1.96-5.84-4.89-7.8-6.85-.97-2.94-1.95-5.87-1.95-8.8,0-3.91,1.95-5.87,3.91-7.83h10.72c-.97.99-1.95,1.96-1.95,2.94l-.97,4.89c0,3.91,2.92,8.8,6.82,12.72,2.93,1.96,7.8,3.91,12.68,4.89,1.95,0,3.9-.98,6.83-1.95,7.8-2.94,10.73-9.79,10.73-17.62,0-3.91-.98-6.85-2.93-10.76-1.95-1.96-3.9-2.94-5.86-3.91l-.97.97h-.97l-2.93.98-1.94.98h-3.9v-6.84h8.77c1.95,0,3.9-.98,5.86-3.92.98-1.96,1.95-4.89,1.95-7.83,0-3.91-.97-6.85-2.93-9.79-.97-2.93-3.9-4.89-7.8-5.87,0,0-1.94.98-3.9,1.96-.98,1.95-1.94,2.93-3.9,4.89-3.9,2.93-6.82,5.87-9.74,5.87h-4.89l-2.93-.98c-.96,0-1.95-.97-2.93-1.96l-1.95-1.96-.97-3.91h9.75c.97-.97,2.93-1.95,4.88-2.93,1.95-.98,4.88-2.93,6.83-2.93.97-.98,2.93-.98,3.91-1.96h8.77c5.86,0,10.73,1.96,15.61,5.87,3.9,3.91,5.84,7.82,5.84,13.7,0,2.94-.96,6.85-2.92,8.8-1.95,2.95-3.9,4.9-7.8,5.88,2.93,0,5.86.98,7.8,2.93l2.92,2.94c.98.97.98,2.94,2.94,4.9l1.94.98,1.96.98h.96c1.96-.98,4.88-1.96,6.84-4.9v-26.41h-6.84l-2.93-.97c-.97,0-1.94-.99-2.92-.99-.98-.98-1.96-1.96-2.92-2.93l-1.96-2.94h38.05c-.98,2.94-3.91,5.87-7.8,5.87v46.96c0,1.96-.98,2.94-.98,3.92,0,1.96-1.95,3.91-3.9,5.87h-7.81v-18.59l-1.96,1.95Z" style="fill: #ea1f27; fill-rule: evenodd;"/>
  <path d="M553.14,442.29h-16.59v13.7c1.95,1.96,3.9,3.92,7.81,3.92,2.92,0,5.85-1.96,8.78-3.92v-13.7ZM607.76,482.41l3.9-1.95c1.95-1.96,3.9-3.91,3.9-6.85,0-3.92-.98-5.87-1.95-6.85h-.98l5.86-.98h.98v-23.48h-28.29v25.44c0,4.89,1.95,7.83,3.9,10.76,1.95,1.96,3.9,2.94,6.82,3.92l2.94.98c.97-.98,2.92-.98,2.92-.98ZM697.5,473.61h-4.88l.98-.99v-2.94c0-3.91-1.95-6.84-5.86-8.8-2.92-2.93-6.82-3.92-10.73-3.92-1.96,0-4.88,0-6.84,1.96-5.84,1.95-7.8,4.9-9.74,8.8-.98,1.95-.98,2.93-1.95,4.89v3.92c0,3.91.97,7.82,3.9,9.78l1.96,2.94,1.94.98,2.94-.98,1.94-1.96c1.95-2.93,2.93-4.89,2.93-8.8,0-1.95-.98-3.91-1.95-5.87-1.95-2.94-3.9-2.94-5.85-2.94v-1.95h2.94l1.94-.98h4.88c.98,0,1.96.98,2.93.98,1.95.98,3.89,2.93,4.87,6.85v3.91c0,3.92-.98,7.83-3.9,10.76-2.92,3.92-6.83,4.9-11.7,4.9h-3.9c-5.86,0-11.71-.98-14.63-4.9-3.91-2.94-5.86-7.83-5.86-12.71,0-6.86,1.95-12.72,7.8-16.63l3.9-2.95c2.93-.97,4.88-1.95,5.86-1.95l4.87-.98,6.83-.98h5.86c1.95,0,3.89.98,6.83.98,1.95.98,3.9.98,5.85,2.93h1.95l1.95.99.97.98v-14.68h-42.91c-.97,0-2.93-.97-3.9-1.96-1.96,0-3.91-.98-4.88-1.96-.97-.97-1.95-1.95-3.9-3.91h76.08c0,.98,0,1.96-.97,1.96l-.97,1.95-2.93,1.96-3.9,1.96v49.9c0,.98,0,1.96-1.95,2.93l-1.95,1.96-1.94.98h-5.86v-30.34h4.89c-.98,1.96-1.95,2.94-3.9,3.92ZM723.84,442.29c-.98,0-2.92-.98-3.91-3.91l-1.95-2.93,4.88-.98h25.36l-1.95,3.91c-.97.98-1.95,1.95-1.95,2.94-.96.98-1.95.98-2.93.98l-1.95.99v47.94c0,1.96-.98,3.91-1.95,5.87-.98,0-1.95.98-2.92,1.96h-7.8v-55.76l-2.93-.99ZM550.21,463.82h-13.66c0,.97,0,1.95-.98,3.91-1.94,1.95-4.87,3.91-9.75,4.89-1.95.99-3.91,1.96-6.83,1.96h-6.82l-2.92-.98c3.9,6.85,5.85,10.76,8.78,14.68,2.93,2.93,5.85,5.87,8.78,6.84l1.95-.98,2.92-.98c1.95-1.96,3.9-3.92,6.83-8.81h3.9l6.83,6.85c-1.95,2.94-4.88,4.89-7.8,5.87-2.93.98-4.88,1.96-5.86,1.96h-11.7c-2.92,0-5.85,0-6.83-.98-2.92-.98-4.87-.98-6.82-2.93-3.91-2.94-7.82-6.84-9.77-11.74l-7.8-19.56,7.8-4.9h4.88l1.96,3.91c0,1.95,1.95,2.93,3.9,4.89l1.95.98,2.92.97c.97,0,1.96,0,2.92-.97l2.93-1.95c0-.98.98-1.96,1.95-2.93v-21.53h-22.43c-.98,0-2.93,0-3.91-1.96-.97,0-1.95,0-3.9-1.95l-2.93-2.93,5.86-.98h78.04v.98l3.9-.98h62.43c-1.96,3.91-3.9,6.85-8.78,7.82v46.96c0,1.96,0,3.92-.97,3.92,0,1.96-.98,3.91-3.9,5.87h-7.8v-14.68h-.98c-.98.98-1.95.98-2.92.98-.98.98-1.95.98-3.9,1.95h-9.77c-3.9,0-6.82,0-9.74-.98-4.88-1.95-9.76-5.87-11.71-9.78-1.94-2.94-1.94-5.88-1.94-7.83v-26.42h-1.96l-.97-1.96-.98-1.95-.98-2.93c-1.95,2.93-3.89,5.87-7.8,6.85v45.99c0,2.93-.97,4.89-1.95,6.84,0,1.95-1.95,2.93-2.93,3.91h-7.8v-35.22h-2.93Z" style="fill: #ea1f27; fill-rule: evenodd;"/>
  <path d="M870.16,443.28h-17.55v24.45h17.55v-24.45ZM867.23,475.57l-2.92.98-6.83-.98q-1.95,0-3.9-.98h-.97v4.89c0,1.95-.98,2.94-1.95,3.91l-1.95.98-1.95.98h-5.85c-3.89,0-6.84-2.93-9.76-6.85-.97-1.95-.97-2.93-.97-3.91v-2.94l1.95-1.96.98-.97,1.95-.98h4.88v-25.44c-4.88,0-7.8-1.96-10.72-6.85h61.45c-1.95,2.93-3.91,5.87-7.8,6.85v46.96c0,.98-.98,1.96-.98,3.92-.98,1.96-1.95,2.94-3.9,4.89l-3.9.98h-3.91v-24.46l-2.92.98ZM898.45,442.29c-.98-.98-2.93-1.96-3.9-4.89l-1.96-2.93h28.29l-.98,2.93c-.97.98-1.95,1.96-1.95,2.93-.98,0-1.95.98-2.93.98l-1.95.98v47.95c0,1.95-.98,2.93-1.95,4.89-.98.98-.98,1.95-2.94,1.95l-2.92.98h-3.9v-55.77h-2.93ZM922.84,463.82l7.8-6.86h3.9l2.93,4.9v2.93l1.95,1.96,1.95.98.98.98h3.9l2.93-.98c1.96,0,2.92-1.96,4.88-3.91v-22.51h-18.53c-6.83,0-10.73-1.95-13.66-6.85h57.56c-.99,1.95-2.93,3.91-4.89,5.86-1.95,0-1.95.98-3.9.98h-3.9v21.53c0,3.91-1.95,6.84-5.84,9.78h-21.47c1.95,5.87,5.86,11.75,9.76,16.64,2.92,1.96,4.88,3.92,6.83,4.9.98,0,1.94,0,2.92-.98l1.96-.98c.97-.98,1.94-1.95,2.92-2.94l2.92-4.89h4.88l5.86,6.85c-3.9,3.91-10.73,6.84-18.54,6.84h-4.87c-1.96,0-3.91-.98-6.83-.98-3.9-.97-7.81-3.91-12.68-7.83-.98-1.96-1.95-3.91-2.93-6.85l-8.78-18.59ZM986.24,442.29c-.97-.98-2.93-1.96-4.88-4.89l-.98-2.93h28.3l-1.96,2.93c0,.98-.97,1.96-.97,2.93-1.95,0-1.95.98-2.93.98l-1.95.98v47.95c0,1.95-.98,2.93-1.95,4.89-.97.98-.97,1.95-2.93,1.95l-1.95.98h-5.85v-55.77h-1.95ZM776.52,478.49c1.94-2.93,3.9-4.89,7.8-5.87l-2.93-1.95-1.95-2.93-1.96-2.94v-2.93c0-3.91,1.96-6.85,5.86-8.81,1.94-1.95,3.91-1.95,6.83-2.94,1.96-.98,4.87-.98,7.8-.98h6.83v-5.86h-20.48l-4.88-.99c-1.96,0-3.9-.98-6.83-3.91-.97,0-1.95-1.96-1.95-2.93h58.54c-.98,2.93-5.86,5.87-11.71,7.83v13.69l-.97,1.96c0,.98-.98,1.95-1.95,2.94h-5.85v-2.94c0-1.96,0-2.94-1.96-4.9l-2.92-.98h-2.93c-1.96,0-4.87.98-6.83,1.96-1.94,1.95-2.92,3.91-2.92,6.85,0,1.96.99,2.93,3.9,3.91l3.9,1.96h5.85c2.93,0,6.84.98,9.76,1.95,6.83,1.96,10.73,6.86,10.73,13.7,0,3.91-1.95,6.85-3.9,8.81l-3.91,2.94h-8.77c-1.96,0-3.91,0-5.86-.98,0-.98-.98-.98-1.95-1.96v-4.9h5.85v1.96s0,.98.98,1.96h1.95l1.96-1.96s0-.97.96-1.96v-3.91c0-3.91-.96-6.84-3.89-8.8l-1.96-.98-1.95-.99-2.93-.97c-.97,0-2.92.97-4.88,1.96-5.85,2.94-8.77,8.8-8.77,16.63,0,4.89,1.95,8.8,5.85,13.7,2.93,1.95,6.83,3.91,12.68,4.89,1.96,0,4.89-.98,7.81-2.94,2.92-.97,4.87-2.94,6.83-4.89v-.98h4.87c1.95,1.95,3.91,2.93,3.91,5.87,0,.98-1.95,2.94-6.83,4.89l-5.85.98c-2.92.98-5.85.98-8.77.98h-9.76c-2.92,0-4.88-.98-6.82-.98-2.94-1.95-5.86-2.93-8.79-5.87-3.9-1.95-5.86-4.89-6.82-7.83-1.96-2.93-2.93-5.87-2.93-8.8,0-4.89,1.95-7.83,2.93-10.76Z" style="fill: #ea1f27; fill-rule: evenodd;"/>
  <path d="M1066.23,480.46l2.93-1.96c2.93-.97,3.89-3.91,3.89-5.87,0-3.91,0-5.86-.97-6.85l-.98-.98h6.83v-23.48h-29.27v24.46c0,4.89,1.96,8.81,4.88,11.75,1.94.97,3.9,2.94,5.85,2.94l3.9.97c.97,0,1.94,0,2.92-.97M1158.89,441.32h-9.74v15.65c0,1.96,0,2.95-.98,4.9,0,.98-.99,1.96-2.93,3.91l-3.89,1.96h-19.51l7.81,10.76c.97,1.96,1.95,1.96,2.92,3.92l3.9,1.96,1.95,1.95,2.93.98h1.95c.98,0,2.92,0,4.88-.98,2.92-.98,5.85-2.93,7.8-4.89,0-.97.98-.97.98-1.95.97-.98,1.95-1.95,1.95-2.93v-35.23ZM1143.29,491.22h-4.88c-3.9,0-6.83,0-8.78-.98-5.86-1.95-10.73-5.87-14.63-11.75-1.95-1.95-2.92-3.91-4.88-8.81l-4.88-12.72,6.84-5.86h4.88l.97,2.93c1.95,2.93,3.91,5.88,5.86,6.85l1.95.98,3.91.98,1.95-.98,1.94-.98c1.96-1.95,2.94-3.92,2.94-6.85v-12.72h-20.48c-4.88,0-8.78-2.94-11.71-7.83h76.07c0,.98-.96,1.96-1.95,2.93l-.96,1.96-2.93,1.95h-2.94v51.86c0,1.96-1.94,2.94-3.9,4.89l-2.92.98h-5.86v-11.74c-3.91,2.94-9.74,4.9-15.6,4.9ZM1188.16,441.32c-1.95-.98-2.91-1.95-4.88-3.91l-.97-3.91h29.26l-1.95,2.93c0,1.96-.98,1.96-1.96,2.94,0,.97-1.95.97-1.95,1.95l-1.95.98v46.96c0,1.96-.98,3.92-2.93,5.87,0,.98-.98,1.95-1.95,1.95l-2.93.98h-4.88v-55.77l-2.93-.98ZM1274.98,441.32h-17.56v13.7c1.95,1.95,4.88,2.94,8.78,3.91,1.95-.98,4.87-1.96,8.78-4.9v-12.72ZM1272.05,462.84h-10.73l-2.92-.98c-.98,1.96-.98,2.93-1.95,3.91-1.94,1.96-4.87,3.91-8.77,5.87-2.93.97-5.86.97-7.82.97h-8.77c1.94,5.87,4.87,10.77,7.8,14.68,2.93,2.94,5.85,5.87,8.79,5.87h1.95l2.93-1.96c1.95-.98,4.87-3.92,6.83-7.83h4.88l5.84,6.85c-1.95,2.93-3.9,3.91-7.8,4.89-1.95,1.95-4.88,1.95-5.85,1.95l-6.82.98h-3.91c-3.9,0-6.83-.98-7.81-.98-2.91-.97-4.87-1.95-6.82-3.91-4.88-1.96-7.81-5.87-9.76-10.76l-8.78-19.57,8.78-5.88h4.88l1.95,3.92c0,1.96,1.95,3.91,3.9,4.89l1.96,1.96h5.84l1.96-1.96c.98-1.95,1.95-1.95,2.92-3.91,0-.98.97-1.95.97-4.9v-15.65h-23.41c-.98-.98-2.92-.98-3.9-1.95-.97-.98-2.93-.98-3.9-2.94l-2.93-2.93h83.89c-1.95,3.91-3.89,5.87-7.79,6.84v46.97c0,1.96-.99,3.92-1.96,5.87-.98,1.96-1.95,2.94-2.93,3.91-1.94,0-1.94.98-3.9.98h-3.9v-36.2l-2.93.98ZM1077.93,482.41h-.97v.98h-.99c-.97,0-.97.98-1.94.98s-2.93,0-2.93.98h-11.7c-3.91,0-6.83,0-8.77-.98-5.86-1.96-9.77-4.89-12.69-9.78-.97-2.94-1.95-4.9-1.95-7.83v-26.42h-.98l-1.95-1.95-1.96-1.96v-2.93h68.3c-.98,3.91-4.88,5.87-8.79,6.84v47.95c0,1.95,0,2.93-.98,3.91,0,1.96-.96,2.94-3.9,4.89l-1.94.98h-5.86v-3.91c-2.92,1.96-6.83,2.93-9.76,4.89-.96,0-1.95.98-3.9,1.95-1.95.98-3.9.98-4.88,1.95-.97,0-2.93.99-3.91.99h-11.7c-.97-.99-1.94-1.96-3.9-4.9v-5.87l1.95-1.96c0-.98.97-1.96,3.9-1.96h4.89l-.99,1.96v3.91l.99.98.96.97h7.81c2.93-.97,4.88-.97,5.84-1.95,4.89-.98,8.79-2.94,12.69-5.87v-6.85Z" style="fill: #ea1f27; fill-rule: evenodd;"/>
  <path d="M401.93,339.56h79.99c3.9,0,5.85,3.92,5.85,8.81v52.84c0,5.87-1.95,9.78-5.85,9.78h-79.99c-1.95,0-4.88-3.91-4.88-9.78v-52.84c0-4.89,2.93-8.81,4.88-8.81" style="fill: #2d368e; fill-rule: evenodd;"/>
  <path d="M1306.19,183.98v-29.35h8.78l5.86,19.57,3.9-19.57h8.78v29.35h-4.88v-23.48l-5.86,23.48h-4.88l-5.85-23.48v23.48h-5.86ZM1288.64,183.98v-24.45h-8.78v-4.9h22.44v4.9h-7.81v24.45h-5.85Z" style="fill: #2d368e; fill-rule: evenodd;"/>
</svg>