<?xml version="1.0" encoding="UTF-8"?>
<svg id="Layer_1" xmlns="http://www.w3.org/2000/svg" xmlns:xlink="http://www.w3.org/1999/xlink" version="1.1" viewBox="0 0 1326.58 418.27">
  <!-- Generator: Adobe Illustrator 30.3.0, SVG Export Plug-In . SVG Version: 2.1.3 Build 182)  -->
  <defs>
    <clipPath id="clippath">
      <path d="M1108.11,32.81c-84.68,0-154.59,63.2-165.15,145h138.92s-7.71,18.21-7.71,18.21c-1.6,3.78-4.03,7.46-6.42,10.79-2.74,3.82-5.68,7.49-8.78,11.03-3.07,3.51-6.35,6.87-9.89,9.91-4.26,3.66-9.18,6.77-15,6.77h-24.8l-22.24,79.16c30.36,32.14,73.37,52.21,121.08,52.21,91.97,0,166.54-74.56,166.54-166.54s-74.56-166.54-166.54-166.54" style="clip-rule: evenodd; fill: #fff;"/>
    </clipPath>
    <clipPath id="clippath-1">
      <rect x="908.12" y="5.15" width="390.65" height="372.44" style="fill: #fff;"/>
    </clipPath>
    <clipPath id="clippath-2">
      <path d="M1108.11,32.81c-84.68,0-154.59,63.2-165.15,145h138.92s-7.71,18.21-7.71,18.21c-1.6,3.78-4.03,7.46-6.42,10.79-2.74,3.82-5.68,7.49-8.78,11.03-3.07,3.51-6.35,6.87-9.89,9.91-4.26,3.66-9.18,6.77-15,6.77h-24.8l-22.24,79.16c30.36,32.14,73.37,52.21,121.08,52.21,91.97,0,166.54-74.56,166.54-166.54s-74.56-166.54-166.54-166.54" style="clip-rule: evenodd; fill: #da372f;"/>
    </clipPath>
    <clipPath id="clippath-4">
      <rect x="908.12" y="5.15" width="390.65" height="372.44" style="fill: #da372f;"/>
    </clipPath>
  </defs>
  <g>
    <g>
      <path d="M1289.22,93.41c-28.62-42.26-72.62-73.6-124.46-85.8l-5.31,22.01c42.61,12.87,78.43,41.34,100.85,78.77l28.92-14.97ZM1310.52,283.73c7.92-20.3,12.73-42.19,13.82-65.13,1.85-38.85-7.19-75.69-24.45-107.59l-30.07,15.57c10,22.2,15.57,46.83,15.57,72.76,0,23.43-4.55,45.79-12.81,66.26l37.93,18.12ZM1183.9,404.95c51.25-17.6,93.77-54.58,118.21-102.48l-38.29-18.3c-20.09,36.79-52.83,65.67-92.38,80.8l12.47,39.98ZM952.96,338.2c36.09,45.07,90.84,75,153.34,77.84,19.94.91,39.36-1.01,57.87-5.38l-12.31-39.47c-13.99,3.55-28.65,5.45-43.75,5.45-41.66,0-79.96-14.38-110.23-38.43h-44.92ZM934.91,107.13c-9.76,17.06-17.16,35.65-21.75,55.37h21.5c3.41-16.12,9.01-31.43,16.47-45.61l-16.22-9.76ZM1006.15,33.39c-23.59,14.64-44.09,33.83-60.17,56.43l15.75,9.48c13.89-20.28,31.88-37.53,52.78-50.54l-8.36-15.37ZM1126.05,2.22c-36.53-1.66-71.31,6.14-101.93,21.21l8.43,15.5c22.92-10.82,48.54-16.88,75.57-16.88,10.71,0,21.19.95,31.37,2.77l5.05-20.93c-6.08-.82-12.24-1.38-18.49-1.67Z" style="fill: #fff; fill-rule: evenodd;"/>
      <g>
        <path d="M1108.11,32.81c-84.68,0-154.59,63.2-165.15,145h138.92s-7.71,18.21-7.71,18.21c-1.6,3.78-4.03,7.46-6.42,10.79-2.74,3.82-5.68,7.49-8.78,11.03-3.07,3.51-6.35,6.87-9.89,9.91-4.26,3.66-9.18,6.77-15,6.77h-24.8l-22.24,79.16c30.36,32.14,73.37,52.21,121.08,52.21,91.97,0,166.54-74.56,166.54-166.54s-74.56-166.54-166.54-166.54" style="fill: #fff; fill-rule: evenodd;"/>
        <g style="clip-path: url(#clippath);">
          <g>
            <rect x="908.12" y="5.15" width="390.65" height="372.44" style="fill: #fff;"/>
            <g style="clip-path: url(#clippath-1);">
              <rect x="908.12" y="5.15" width="390.65" height="372.44" style="fill: #fff;"/>
            </g>
          </g>
          <polygon points="1216.97 101.18 1078.26 374.5 1026.93 374.5 1134.27 152.75 1030.94 152.75 1040.15 101.18 1216.97 101.18" style="fill: #fff;"/>
          <polygon points="1213.68 96.22 1074.96 369.54 1023.63 369.54 1130.97 147.79 1027.65 147.79 1036.85 96.22 1213.68 96.22" style="fill: #fff;"/>
        </g>
      </g>
      <path d="M75.49,235.98h59.91l-.09.23c1.9-.32,3.22-1.3,3.95-2.93.91-2.03,1.25-3.8,1.02-5.31l-.37-2.49c-.18-1.2-.63-2.22-1.35-3.05-.73-.83-2.14-1.24-4.25-1.24h-54.45l-4.36,14.79ZM224.5,190.91h154.55c-.89,2.11-2.56,4.86-4.99,8.25-2.44,3.39-5.11,6.74-8.01,10.05-2.9,3.32-5.75,6.18-8.56,8.58-2.81,2.41-4.96,3.61-6.47,3.61h-83.38l-4.25,14.57h86.57c-.11.3-.43.94-.96,1.92-.54.98-1.1,1.99-1.7,3.05-.6,1.06-1.21,2.03-1.83,2.94-.62.9-1,1.43-1.12,1.58-1.39,1.81-3.3,3.91-5.73,6.33-2.43,2.41-4.84,4.7-7.23,6.89-2.39,2.19-4.53,4.03-6.41,5.54-1.89,1.51-2.91,2.26-3.05,2.26h-13.35l-.14.13h-54l-3.87,13.56h103.71c-.11.3-.43.94-.96,1.92-.53.98-1.09,2-1.69,3.05-.6,1.05-1.21,2.03-1.83,2.94-.62.9-1,1.43-1.12,1.58-1.39,1.81-3.3,3.92-5.73,6.33-2.43,2.41-4.84,4.71-7.23,6.89-2.39,2.18-4.52,4.03-6.41,5.53-1.89,1.51-2.9,2.26-3.05,2.26h-136.25l34.51-119.76ZM433.03,235.98h61.61l.16-.21c.5-.68,1.06-1.47,1.68-2.37.62-.9,1.21-1.77,1.77-2.6.56-.83.87-1.47.96-1.92l.28-1.13c-.17-.15-.32-.38-.44-.68-.12-.3-.18-.45-.18-.45-.72-.75-1.85-1.77-3.39-3.05-1.54-1.28-2.47-1.92-2.77-1.92h-55.58l-4.11,14.34ZM359.46,310.67l34.51-119.76h124.5c5.42,0,10.08,1.17,13.96,3.51,3.88,2.33,7.09,5.19,9.63,8.58,2.54,3.39,4.5,7,5.9,10.85,1.39,3.84,2.32,7.27,2.76,10.28.94,6.33-.01,12.13-2.85,17.4-2.84,5.27-6.76,9.83-11.77,13.67-5,3.84-10.71,6.82-17.1,8.92-6.39,2.11-12.68,3.16-18.85,3.16h-76.14l-12.57,43.38h-51.97ZM901.29,310.67h-48.11l-27.36-83.02-.12-.35h0s-.08-.24-.08-.24l-.04.4-38.02,50.68.3,2.03h51.57c-.11.3-.43.94-.96,1.92-.53.98-1.1,2-1.7,3.05-.6,1.05-1.2,2.03-1.82,2.94-.62.9-1,1.43-1.12,1.58-1.39,1.81-3.3,3.92-5.73,6.33-2.43,2.41-4.84,4.7-7.23,6.89-2.39,2.18-4.53,4.03-6.41,5.54-1.89,1.51-2.91,2.26-3.05,2.26h-104.44c.08-1.51.15-2.03.22-1.58l-.1-.68,82.26-103.94c.47-.9,1.39-2.11,2.75-3.61,1.36-1.51,2.91-2.98,4.66-4.41,1.75-1.43,3.48-2.71,5.19-3.84,1.72-1.13,3.17-1.7,4.38-1.7h45.64c1.96,0,3.78.83,5.45,2.49,1.67,1.66,3.26,3.69,4.74,6.1,1.49,2.41,2.84,4.93,4.06,7.57,1.22,2.64,2.18,4.86,2.91,6.66l32.17,96.93ZM1007.92,190.91h54.18c-.89,2.11-2.56,4.86-5,8.25-2.44,3.39-5.11,6.74-8,10.05-2.9,3.32-5.75,6.17-8.56,8.59-2.81,2.41-4.97,3.62-6.47,3.62h-34.72l-25.08,89.25h-50.16l25.91-89.25h-2.51l-.09.11h-55.6c-.15,0-.65-.76-1.5-2.27-.85-1.51-1.72-3.37-2.61-5.56-.89-2.19-1.72-4.5-2.49-6.92-.77-2.42-1.22-4.54-1.37-6.35-.01-.15-.04-.68-.03-1.59,0-.91.07-1.89.2-2.94.13-1.06.27-2.08.41-3.06.14-.98.27-1.63.37-1.93h123.13ZM576.78,190.91h154.55c-.89,2.11-2.56,4.86-4.99,8.25-2.44,3.39-5.11,6.74-8.01,10.05-2.9,3.32-5.75,6.18-8.56,8.58-2.81,2.41-4.96,3.61-6.47,3.61h-83.38l-4.25,14.57h86.57c-.11.3-.43.94-.96,1.92-.53.98-1.1,1.99-1.7,3.05-.59,1.06-1.2,2.03-1.82,2.94-.62.9-1,1.43-1.12,1.58-1.39,1.81-3.3,3.91-5.73,6.33-2.43,2.41-4.84,4.7-7.23,6.89-2.39,2.19-4.53,4.03-6.41,5.54-1.89,1.51-2.91,2.26-3.06,2.26h-13.35l-.14.13h-54l-3.88,13.56h103.71c-.11.3-.43.94-.96,1.92-.53.98-1.1,2-1.69,3.05-.6,1.05-1.2,2.03-1.83,2.94-.62.9-.99,1.43-1.12,1.58-1.39,1.81-3.3,3.92-5.73,6.33-2.43,2.41-4.84,4.71-7.23,6.89-2.39,2.18-4.52,4.03-6.41,5.53-1.88,1.51-2.9,2.26-3.05,2.26h-136.25l34.5-119.76ZM2,310.67l34.51-119.76h120.89c6.17,0,11.39,1.13,15.64,3.39,4.25,2.26,7.72,5.12,10.42,8.59,2.7,3.46,4.72,7.23,6.08,11.3,1.35,4.07,2.28,7.83,2.8,11.3,1.13,7.68-.15,14.01-3.86,18.98-3.71,4.97-8.78,8.93-15.19,11.86-6.42,2.94-13.6,5.05-21.55,6.33-7.94,1.28-15.57,2.15-22.89,2.6l59.81,45.42h-57.85l-62.38-42.93-2.67,1.8-11.77,41.13H2Z"/>
    </g>
    <g>
      <path d="M1289.22,93.41c-28.62-42.26-72.62-73.6-124.46-85.8l-5.31,22.01c42.61,12.87,78.43,41.34,100.85,78.77l28.92-14.97ZM1310.52,283.73c7.92-20.3,12.73-42.19,13.82-65.13,1.85-38.85-7.19-75.69-24.45-107.59l-30.07,15.57c10,22.2,15.57,46.83,15.57,72.76,0,23.43-4.55,45.79-12.81,66.26l37.93,18.12ZM1183.9,404.95c51.25-17.6,93.77-54.58,118.21-102.48l-38.29-18.3c-20.09,36.79-52.83,65.67-92.38,80.8l12.47,39.98ZM952.96,338.2c36.09,45.07,90.84,75,153.34,77.84,19.94.91,39.36-1.01,57.87-5.38l-12.31-39.47c-13.99,3.55-28.65,5.45-43.75,5.45-41.66,0-79.96-14.38-110.23-38.43h-44.92ZM934.91,107.13c-9.76,17.06-17.16,35.65-21.75,55.37h21.5c3.41-16.12,9.01-31.43,16.47-45.61l-16.22-9.76ZM1006.15,33.39c-23.59,14.64-44.09,33.83-60.17,56.43l15.75,9.48c13.89-20.28,31.88-37.53,52.78-50.54l-8.36-15.37ZM1126.05,2.22c-36.53-1.66-71.31,6.14-101.93,21.21l8.43,15.5c22.92-10.82,48.54-16.88,75.57-16.88,10.71,0,21.19.95,31.37,2.77l5.05-20.93c-6.08-.82-12.24-1.38-18.49-1.67Z" style="fill: #8d1b1d; fill-rule: evenodd;"/>
      <g>
        <path d="M1108.11,32.81c-84.68,0-154.59,63.2-165.15,145h138.92s-7.71,18.21-7.71,18.21c-1.6,3.78-4.03,7.46-6.42,10.79-2.74,3.82-5.68,7.49-8.78,11.03-3.07,3.51-6.35,6.87-9.89,9.91-4.26,3.66-9.18,6.77-15,6.77h-24.8l-22.24,79.16c30.36,32.14,73.37,52.21,121.08,52.21,91.97,0,166.54-74.56,166.54-166.54s-74.56-166.54-166.54-166.54" style="fill: #da372f; fill-rule: evenodd;"/>
        <g style="clip-path: url(#clippath-2);">
          <g>
            <rect x="908.12" y="5.15" width="390.65" height="372.44" style="fill: #da372f;"/>
            <g style="clip-path: url(#clippath-4);">
              <rect x="908.12" y="5.15" width="390.65" height="372.44" style="fill: #da372f;"/>
            </g>
          </g>
          <polygon points="1213.68 96.22 1074.96 369.54 1023.63 369.54 1130.97 147.79 1027.65 147.79 1036.85 96.22 1213.68 96.22" style="fill: #fff;"/>
        </g>
      </g>
      <path d="M75.49,235.98h59.91l-.09.23c1.9-.32,3.22-1.3,3.95-2.93.91-2.03,1.25-3.8,1.02-5.31l-.37-2.49c-.18-1.2-.63-2.22-1.35-3.05-.73-.83-2.14-1.24-4.25-1.24h-54.45l-4.36,14.79ZM224.5,190.91h154.55c-.89,2.11-2.56,4.86-4.99,8.25-2.44,3.39-5.11,6.74-8.01,10.05-2.9,3.32-5.75,6.18-8.56,8.58-2.81,2.41-4.96,3.61-6.47,3.61h-83.38l-4.25,14.57h86.57c-.11.3-.43.94-.96,1.92-.54.98-1.1,1.99-1.7,3.05-.6,1.06-1.21,2.03-1.83,2.94-.62.9-1,1.43-1.12,1.58-1.39,1.81-3.3,3.91-5.73,6.33-2.43,2.41-4.84,4.7-7.23,6.89-2.39,2.19-4.53,4.03-6.41,5.54-1.89,1.51-2.91,2.26-3.05,2.26h-13.35l-.14.13h-54l-3.87,13.56h103.71c-.11.3-.43.94-.96,1.92-.53.98-1.09,2-1.69,3.05-.6,1.05-1.21,2.03-1.83,2.94-.62.9-1,1.43-1.12,1.58-1.39,1.81-3.3,3.92-5.73,6.33-2.43,2.41-4.84,4.71-7.23,6.89-2.39,2.18-4.52,4.03-6.41,5.53-1.89,1.51-2.9,2.26-3.05,2.26h-136.25l34.51-119.76ZM433.03,235.98h61.61l.16-.21c.5-.68,1.06-1.47,1.68-2.37.62-.9,1.21-1.77,1.77-2.6.56-.83.87-1.47.96-1.92l.28-1.13c-.17-.15-.32-.38-.44-.68-.12-.3-.18-.45-.18-.45-.72-.75-1.85-1.77-3.39-3.05-1.54-1.28-2.47-1.92-2.77-1.92h-55.58l-4.11,14.34ZM359.46,310.67l34.51-119.76h124.5c5.42,0,10.08,1.17,13.96,3.51,3.88,2.33,7.09,5.19,9.63,8.58,2.54,3.39,4.5,7,5.9,10.85,1.39,3.84,2.32,7.27,2.76,10.28.94,6.33-.01,12.13-2.85,17.4-2.84,5.27-6.76,9.83-11.77,13.67-5,3.84-10.71,6.82-17.1,8.92-6.39,2.11-12.68,3.16-18.85,3.16h-76.14l-12.57,43.38h-51.97ZM901.29,310.67h-48.11l-27.36-83.02-.12-.35h0s-.08-.24-.08-.24l-.04.4-38.02,50.68.3,2.03h51.57c-.11.3-.43.94-.96,1.92-.53.98-1.1,2-1.7,3.05-.6,1.05-1.2,2.03-1.82,2.94-.62.9-1,1.43-1.12,1.58-1.39,1.81-3.3,3.92-5.73,6.33-2.43,2.41-4.84,4.7-7.23,6.89-2.39,2.18-4.53,4.03-6.41,5.54-1.89,1.51-2.91,2.26-3.05,2.26h-104.44c.08-1.51.15-2.03.22-1.58l-.1-.68,82.26-103.94c.47-.9,1.39-2.11,2.75-3.61,1.36-1.51,2.91-2.98,4.66-4.41,1.75-1.43,3.48-2.71,5.19-3.84,1.72-1.13,3.17-1.7,4.38-1.7h45.64c1.96,0,3.78.83,5.45,2.49,1.67,1.66,3.26,3.69,4.74,6.1,1.49,2.41,2.84,4.93,4.06,7.57,1.22,2.64,2.18,4.86,2.91,6.66l32.17,96.93ZM1007.92,190.91h54.18c-.89,2.11-2.56,4.86-5,8.25-2.44,3.39-5.11,6.74-8,10.05-2.9,3.32-5.75,6.17-8.56,8.59-2.81,2.41-4.97,3.62-6.47,3.62h-34.72l-25.08,89.25h-50.16l25.91-89.25h-2.51l-.09.11h-55.6c-.15,0-.65-.76-1.5-2.27-.85-1.51-1.72-3.37-2.61-5.56-.89-2.19-1.72-4.5-2.49-6.92-.77-2.42-1.22-4.54-1.37-6.35-.01-.15-.04-.68-.03-1.59,0-.91.07-1.89.2-2.94.13-1.06.27-2.08.41-3.06.14-.98.27-1.63.37-1.93h123.13ZM576.78,190.91h154.55c-.89,2.11-2.56,4.86-4.99,8.25-2.44,3.39-5.11,6.74-8.01,10.05-2.9,3.32-5.75,6.18-8.56,8.58-2.81,2.41-4.96,3.61-6.47,3.61h-83.38l-4.25,14.57h86.57c-.11.3-.43.94-.96,1.92-.53.98-1.1,1.99-1.7,3.05-.59,1.06-1.2,2.03-1.82,2.94-.62.9-1,1.43-1.12,1.58-1.39,1.81-3.3,3.91-5.73,6.33-2.43,2.41-4.84,4.7-7.23,6.89-2.39,2.19-4.53,4.03-6.41,5.54-1.89,1.51-2.91,2.26-3.06,2.26h-13.35l-.14.13h-54l-3.88,13.56h103.71c-.11.3-.43.94-.96,1.92-.53.98-1.1,2-1.69,3.05-.6,1.05-1.2,2.03-1.83,2.94-.62.9-.99,1.43-1.12,1.58-1.39,1.81-3.3,3.92-5.73,6.33-2.43,2.41-4.84,4.71-7.23,6.89-2.39,2.18-4.52,4.03-6.41,5.53-1.88,1.51-2.9,2.26-3.05,2.26h-136.25l34.5-119.76ZM2,310.67l34.51-119.76h120.89c6.17,0,11.39,1.13,15.64,3.39,4.25,2.26,7.72,5.12,10.42,8.59,2.7,3.46,4.72,7.23,6.08,11.3,1.35,4.07,2.28,7.83,2.8,11.3,1.13,7.68-.15,14.01-3.86,18.98-3.71,4.97-8.78,8.93-15.19,11.86-6.42,2.94-13.6,5.05-21.55,6.33-7.94,1.28-15.57,2.15-22.89,2.6l59.81,45.42h-57.85l-62.38-42.93-2.67,1.8-11.77,41.13H2Z" style="fill: #fff;"/>
    </g>
  </g>
  <g>
    <path d="M2,379.18c0-13.11,9.41-23.69,22.52-23.69s22.52,10.58,22.52,23.69-9.48,23.69-22.52,23.69-22.52-10.58-22.52-23.69ZM40.34,379.18c0-9.54-6.28-16.98-15.81-16.98s-15.88,7.44-15.88,16.98,6.4,16.98,15.88,16.98,15.81-7.45,15.81-16.98Z" style="fill: #8d1b1d;"/>
    <path d="M135.65,356.1l-19.51,46.15h-7.69l-7.94-18.77-7.88,18.77h-7.63l-19.57-46.15h7.63l16,37.78,7.94-18.77-8-19.01h7.26l15.81,37.84,15.94-37.84h7.63Z" style="fill: #8d1b1d;"/>
    <path d="M195.47,356.1v46.15h-7.01l-26.03-35.13v35.13h-7.08v-46.15h7.02l26.09,35.13v-35.13h7.01Z" style="fill: #8d1b1d;"/>
    <path d="M255.96,380.35v21.91h-7.08v-21.72l-16.18-24.43h7.94l11.75,18.34,11.81-18.34h7.81l-16.06,24.24Z" style="fill: #8d1b1d;"/>
    <path d="M292.03,379.18c0-13.11,9.41-23.69,22.52-23.69s22.52,10.58,22.52,23.69-9.48,23.69-22.52,23.69-22.52-10.58-22.52-23.69ZM330.36,379.18c0-9.54-6.28-16.98-15.81-16.98s-15.88,7.44-15.88,16.98,6.4,16.98,15.88,16.98,15.81-7.45,15.81-16.98Z" style="fill: #8d1b1d;"/>
    <path d="M360.77,387.24v-31.14h7.08v29.9c0,5.91,4.86,10.65,11.01,10.65s11.02-4.74,11.02-10.65v-29.9h7.08v31.14c0,8.74-8,15.63-18.09,15.63s-18.09-6.89-18.09-15.63Z" style="fill: #8d1b1d;"/>
    <path d="M454.3,402.25h-7.94l-10.65-20.18h-6.71v20.18h-7.08v-46.15h17.78c7.32,0,13.23,5.91,13.23,13.35,0,6.15-4.31,11.02-10.09,12.18l11.44,20.61ZM439.53,376.29c3.88,0,6.95-3.14,6.95-7.02s-3.14-6.95-6.95-6.95h-10.52v13.97h10.52Z" style="fill: #8d1b1d;"/>
    <path d="M491.23,356.1h13.66c12.74,0,23.07,10.34,23.07,23.08s-10.34,23.07-23.07,23.07h-13.66v-46.15ZM504.83,396.04c8.98,0,16.06-7.45,16.06-16.86s-7.08-16.86-16.06-16.86h-6.58v33.72h6.58Z" style="fill: #8d1b1d;"/>
    <path d="M581.68,392.96h-22.52l-3.57,9.29h-7.69l18.52-46.15h7.94l18.52,46.15h-7.69l-3.51-9.29ZM579.41,387.06l-8.98-23.69-9.05,23.69h18.03Z" style="fill: #8d1b1d;"/>
    <path d="M634.05,380.35v21.91h-7.08v-21.72l-16.18-24.43h7.94l11.75,18.34,11.81-18.34h7.81l-16.06,24.24Z" style="fill: #8d1b1d;"/>
  </g>
</svg>