<?xml version="1.0" encoding="UTF-8"?>
<svg id="Layer_1" xmlns="http://www.w3.org/2000/svg" version="1.1" viewBox="0 0 1326.47 498.67">
  <!-- Generator: Adobe Illustrator 30.3.0, SVG Export Plug-In . SVG Version: 2.1.3 Build 182)  -->
  <path d="M43.27,175.78l25.43,34.52c-5.04,1.67-10.42,2.57-16.03,2.57-28.01,0-50.67-22.32-50.67-49.83,0-11.93,4.24-22.85,11.34-31.43,15.01-.2,29.71-.3,31-.3,6.11,0,11.02,1.82,14.74,5.46,3.69,3.64,5.56,8.4,5.56,14.22s-2.3,10.87-6.91,14.74c-4.59,3.83-11.42,5.76-20.48,5.76-.4,0-.95,0-1.6-.02-.49-.02-1.05-.02-1.67-.02v4.37l1.52.07c.72.03,1.37.03,1.97.03,1.5,0,3.45-.05,5.79-.13" style="fill: #fff;"/>
  <path d="M68.71,210.3c1.99-.65,3.92-1.42,5.78-2.3-1.86.9-3.79,1.67-5.78,2.3" style="fill: #fff;"/>
  <path d="M103.33,163.04c0,17.66-9.33,33.17-23.42,42.02-1.07-1.32-2.17-2.75-3.29-4.31l-19.61-26.78c7.98-1.73,13.87-4.72,17.65-8.94,3.82-4.21,5.72-9.2,5.72-14.94,0-5.35-1.67-9.97-4.99-13.87-3.35-3.89-7.41-6.53-12.2-7.98-4.76-1.42-12.19-2.17-22.27-2.17h-22.24c8.98-8.01,20.89-12.87,33.99-12.87,27.98,0,50.65,22.32,50.65,49.83" style="fill: #fff;"/>
  <rect x="237.07" y="123.33" width="73.17" height="267.1" style="fill: #2d9647;"/>
  <polygon points="263.86 2 143.59 2 143.59 53.56 197.2 53.56 197.2 238.53 197.2 377.7 197.2 390.43 222.7 390.43 222.7 108.98 263.86 108.98 263.86 2" style="fill: #fff;"/>
  <path d="M182.22,66.29h-98.16v38.44c21.23,11.1,35.74,33.09,35.74,58.31s-14.51,47.21-35.74,58.31v169.08h98.16V66.29Z" style="fill: #2d9647;"/>
  <path d="M45.61,390.43h26.61v-164.25c-6.19,1.86-12.76,2.86-19.55,2.86-2.39,0-4.73-.12-7.06-.36v161.74Z" style="fill: #fff;"/>
  <path d="M1217.82,279.69h54.36c16.4,0,29.15,4.75,38.34,14.22,9.17,9.48,13.76,22.67,13.76,39.63,0,6.95-.94,13.33-2.88,19.15-1.92,5.82-4.84,11.11-8.72,15.92-4.59,5.79-10.14,9.91-16.63,12.41-6.46,2.49-15.04,3.76-25.72,3.76h-24.28v38.1h-28.23v-143.18ZM1246.05,302.39v59.87h17.24c11.39,0,19.51-2.37,24.25-7.11,4.76-4.72,7.13-12.6,7.13-23.64s-2.16-18.19-6.53-22.54c-4.36-4.38-11.93-6.58-22.68-6.58h-19.41ZM1158.42,384.77c-17.68,0-31.07-4.43-40.17-13.3-9.1-8.84-13.62-21.94-13.62-39.19s4.56-30.35,13.65-39.26c9.13-8.88,22.53-13.33,40.14-13.33h41.22v21.9h-37.36c-10.21,0-17.11,1.43-20.66,4.29-3.52,2.86-5.42,8.01-5.68,15.49h63.7v21.91h-63.7c.27,7.55,2.03,12.67,5.31,15.42,3.25,2.76,10.21,4.15,20.86,4.15h37.54v21.91h-41.22ZM1051.54,384.77c-17.68,0-31.07-4.43-40.16-13.3-9.1-8.84-13.63-21.94-13.63-39.19s4.56-30.35,13.66-39.26c9.13-8.88,22.51-13.33,40.13-13.33h41.22v21.9h-37.36c-10.21,0-17.11,1.43-20.66,4.29-3.51,2.86-5.41,8.01-5.67,15.49h63.69v21.91h-63.69c.27,7.55,2.02,12.67,5.3,15.42,3.25,2.76,10.21,4.15,20.86,4.15h37.54v21.91h-41.22ZM979.36,384.77h-54.19c-16.36,0-29.15-4.75-38.34-14.23-9.17-9.48-13.76-22.67-13.76-39.63,0-6.95.95-13.33,2.88-19.15,1.92-5.82,4.84-11.1,8.72-15.93,4.64-5.78,10.18-9.9,16.71-12.4,6.49-2.49,15.04-3.76,25.69-3.76h24.17v-38.09h28.13v143.18ZM951.23,362.27v-59.87h-17.04c-11.43,0-19.54,2.36-24.34,7.05-4.78,4.72-7.17,12.57-7.17,23.53s2.2,18.19,6.59,22.6c4.4,4.46,11.93,6.69,22.65,6.69h19.3ZM753.79,279.69h57.85c14.6,0,25.59,3.28,33,9.88,7.4,6.61,11.09,16.38,11.09,29.34v65.86h-75.91c-10.61,0-18.79-2.62-24.51-7.88-5.71-5.28-8.55-12.73-8.55-22.41,0-11.97,3.28-20.51,9.87-25.73,6.56-5.18,17.49-7.77,32.73-7.77h37.16v-2.63c0-6.25-1.86-10.63-5.58-13.17-3.76-2.53-10.41-3.79-19.99-3.79h-47.16v-21.71ZM791.32,363.63h35.4v-21.71h-33.31c-6.59,0-11.15.87-13.68,2.62-2.51,1.76-3.76,4.82-3.76,9.14,0,3.72,1.02,6.28,3,7.74,2.03,1.47,6.16,2.2,12.34,2.2M629.47,241.59h28.03v38.09h25.05c15.72,0,27.12,3.03,34.15,9.1,7.03,6.05,10.55,15.86,10.55,29.36v66.62h-28.44v-63.4c0-7.21-1.35-12.14-4.02-14.73-2.68-2.6-7.61-3.89-14.81-3.89h-22.49v82.01h-28.03v-143.18ZM507.28,362.86h59.5c5.28,0,9.13-.79,11.53-2.43,2.4-1.63,3.62-4.21,3.62-7.81s-1.22-6.18-3.66-7.81c-2.46-1.66-6.29-2.49-11.49-2.49h-24.37c-14.44,0-24.21-2.17-29.32-6.52-5.07-4.36-7.6-12.1-7.6-23.21s3.07-19.62,9.19-24.93c6.16-5.32,15.66-7.98,28.54-7.98h60.62v21.9h-49.84c-8.12,0-13.39.71-15.85,2.09-2.44,1.41-3.66,3.9-3.66,7.45,0,3.26,1.08,5.65,3.22,7.18,2.16,1.53,5.54,2.3,10.14,2.3h25.56c11.69,0,20.62,2.68,26.74,8.04,6.15,5.35,9.23,13.1,9.23,23.2s-2.74,17.66-8.18,23.78c-5.44,6.09-12.47,9.14-21.06,9.14h-72.86v-21.91ZM394.22,221.13h37.09l70.98,163.64h-38.95l-15.27-38.94h-72.33l-14.84,38.94h-37.13l70.44-163.64ZM411.41,253.66l-24.35,62.99h49.58l-25.23-62.99Z" style="fill: #fff;"/>
  <rect x="1062.63" y="493.06" width="261.85" height="3.52" style="fill: #231f20;"/>
  <rect x="1062.63" y="493.06" width="261.85" height="3.52" style="fill: #231f20;"/>
  <rect x="1062.63" y="493.06" width="261.85" height="3.52" style="fill: #fff;"/>
  <path d="M1019.76,495.76l-9.89-29.55-9.33,29.55h-5.13l-11.33-33.96h4.72l9.29,29.88,9.35-29.88h5.23l9.8,29.72,9.03-29.72h4.56l-11.17,33.96h-5.13ZM963.94,493.17c3.37,0,6.15-1.35,8.33-4.05,2.18-2.71,3.28-6.15,3.28-10.3s-1.08-7.67-3.24-10.4-4.92-4.09-8.3-4.09-6.29,1.35-8.47,4.05c-2.19,2.71-3.29,6.21-3.29,10.5s1.1,7.52,3.29,10.23c2.18,2.7,4.97,4.05,8.4,4.05M964.01,496.6c-4.89,0-8.82-1.62-11.78-4.86-2.97-3.25-4.46-7.55-4.46-12.92s1.48-9.8,4.42-13.02c2.94-3.23,6.91-4.83,11.89-4.83s8.72,1.6,11.61,4.83c2.9,3.22,4.34,7.56,4.34,13.02s-1.48,9.61-4.42,12.88c-2.94,3.26-6.81,4.9-11.61,4.9M940.22,461.38c.48,0,1.43.14,2.85.42v4.34c-.85-.28-1.71-.42-2.56-.42-2.85,0-5.08,1.08-6.7,3.26-1.61,2.17-2.42,4.7-2.42,7.59v19.19h-4.34v-20.3l-.43-13.66h4.56l-.08,7.29c.85-2.43,1.99-4.32,3.38-5.67,1.41-1.35,3.32-2.03,5.73-2.03M916.94,461.38c.47,0,1.42.14,2.84.42v4.34c-.85-.28-1.7-.42-2.56-.42-2.84,0-5.08,1.08-6.69,3.26-1.61,2.17-2.42,4.7-2.42,7.59v19.19h-4.34v-20.3l-.43-13.66h4.56l-.08,7.29c.86-2.43,1.99-4.32,3.38-5.67,1.4-1.35,3.32-2.03,5.73-2.03M878.99,493.17c3.37,0,6.15-1.35,8.33-4.05,2.18-2.71,3.27-6.15,3.27-10.3s-1.07-7.67-3.24-10.4c-2.15-2.73-4.92-4.09-8.29-4.09s-6.29,1.35-8.47,4.05c-2.18,2.71-3.28,6.21-3.28,10.5s1.1,7.52,3.28,10.23c2.18,2.7,4.98,4.05,8.4,4.05M879.06,496.6c-4.89,0-8.82-1.62-11.78-4.86-2.97-3.25-4.46-7.55-4.46-12.92s1.48-9.8,4.42-13.02c2.94-3.23,6.91-4.83,11.9-4.83s8.7,1.6,11.61,4.83c2.89,3.22,4.34,7.56,4.34,13.02s-1.48,9.61-4.42,12.88c-2.94,3.26-6.82,4.9-11.61,4.9M832.25,468.94c.81-2.29,2.25-4.12,4.32-5.49,2.07-1.38,4.4-2.07,7.01-2.07,4.48,0,7.43,1.53,8.88,4.59,1.45,3.06,2.18,7.06,2.18,12v17.79h-4.34v-17.65c0-3.78-.43-6.9-1.29-9.35-.85-2.45-2.82-3.67-5.91-3.67-2.7,0-5,1.13-6.87,3.39-1.87,2.27-2.81,5.08-2.81,8.43v18.84h-4.34v-16.03c0-4.43-.37-7.99-1.1-10.64-.74-2.66-2.74-3.99-6.02-3.99-1.85,0-3.54.58-5.06,1.71-1.52,1.14-2.59,2.49-3.24,4.03-.64,1.54-1.03,2.82-1.17,3.85-.14,1.03-.21,2.55-.21,4.55v16.53h-4.35v-16.63l-.43-17.54h4.13v6.72c2.34-4.62,5.98-6.93,10.92-6.93,2.62,0,4.81.68,6.57,2.03,1.76,1.35,2.8,3.19,3.13,5.53M783.21,493.17c3.37,0,6.15-1.35,8.33-4.05,2.18-2.71,3.28-6.15,3.28-10.3s-1.08-7.67-3.25-10.4c-2.16-2.73-4.92-4.09-8.29-4.09s-6.29,1.35-8.47,4.05c-2.18,2.71-3.28,6.21-3.28,10.5s1.1,7.52,3.28,10.23c2.18,2.7,4.98,4.05,8.4,4.05M783.28,496.6c-4.89,0-8.82-1.62-11.78-4.86-2.97-3.25-4.45-7.55-4.45-12.92s1.47-9.8,4.41-13.02c2.94-3.23,6.91-4.83,11.89-4.83s8.72,1.6,11.61,4.83c2.89,3.22,4.34,7.56,4.34,13.02s-1.47,9.61-4.41,12.88c-2.94,3.26-6.82,4.9-11.61,4.9M741.98,461.8h7.05v-8.34l4.34-1.48v9.83h8.19v3.51h-8.19v16.95c0,2.61.05,4.34.14,5.21.09.87.31,1.67.64,2.41.91,1.59,2.46,2.39,4.7,2.39,1,0,2.06-.21,3.2-.63l.21,3.71c-1.51.42-2.97.63-4.34.63-3.42,0-5.76-.87-7.01-2.63-1.26-1.75-1.89-4.4-1.89-7.95v-20.09h-7.05v-3.51ZM716.27,461.38c.48,0,1.42.14,2.85.42v4.34c-.85-.28-1.71-.42-2.56-.42-2.84,0-5.08,1.08-6.69,3.26-1.61,2.17-2.43,4.7-2.43,7.59v19.19h-4.34v-20.3l-.42-13.66h4.56l-.08,7.29c.86-2.43,1.99-4.32,3.38-5.67,1.4-1.35,3.31-2.03,5.73-2.03M669.84,476.15h20.22c0-3.22-.81-5.94-2.41-8.15-1.61-2.22-4.05-3.32-7.31-3.32-3.01,0-5.42,1.13-7.23,3.39-1.8,2.27-2.9,4.96-3.28,8.09M691.61,490.15l.14,4.34c-3.1,1.35-6.33,2.03-9.71,2.03-5.22,0-9.29-1.58-12.18-4.76-2.91-3.17-4.36-7.65-4.36-13.45,0-5.32,1.37-9.55,4.1-12.7,2.73-3.15,6.4-4.72,11-4.72,5.13,0,8.71,1.77,10.75,5.32,2.05,3.55,3.07,8.03,3.07,13.45h-24.58c0,4.02,1.12,7.21,3.36,9.59,2.23,2.38,5.16,3.57,8.77,3.57s6.73-.9,9.64-2.67M640.51,461.8h7.05v-8.34l4.35-1.48v9.83h8.18v3.51h-8.18v16.95c0,2.61.05,4.34.14,5.21.1.87.3,1.67.64,2.41.91,1.59,2.47,2.39,4.7,2.39,1,0,2.07-.21,3.21-.63l.21,3.71c-1.52.42-2.97.63-4.34.63-3.42,0-5.76-.87-7.01-2.63-1.26-1.75-1.89-4.4-1.89-7.95v-20.09h-7.05v-3.51ZM617.08,461.8h7.05v-8.34l4.34-1.48v9.83h8.19v3.51h-8.19v16.95c0,2.61.05,4.34.14,5.21.1.87.31,1.67.64,2.41.91,1.59,2.47,2.39,4.7,2.39,1,0,2.07-.21,3.2-.63l.22,3.71c-1.52.42-2.97.63-4.34.63-3.42,0-5.77-.87-7.02-2.63-1.26-1.75-1.89-4.4-1.89-7.95v-20.09h-7.05v-3.51ZM588.02,476.15h20.22c0-3.22-.81-5.94-2.41-8.15-1.61-2.22-4.04-3.32-7.3-3.32-3.02,0-5.43,1.13-7.23,3.39-1.8,2.27-2.9,4.96-3.28,8.09M609.79,490.15l.14,4.34c-3.1,1.35-6.33,2.03-9.71,2.03-5.22,0-9.29-1.58-12.18-4.76-2.91-3.17-4.36-7.65-4.36-13.45,0-5.32,1.37-9.55,4.1-12.7,2.73-3.15,6.39-4.72,11-4.72,5.13,0,8.72,1.77,10.76,5.32,2.05,3.55,3.06,8.03,3.06,13.45h-24.57c0,4.02,1.12,7.21,3.36,9.59,2.23,2.38,5.16,3.57,8.77,3.57s6.73-.9,9.64-2.67M552.14,478.64c0,4.22.98,7.64,2.97,10.28,1.97,2.65,4.56,3.96,7.75,3.96s5.71-1.25,7.54-3.76c1.84-2.49,2.75-5.9,2.75-10.21s-.88-7.86-2.65-10.35c-1.76-2.5-4.19-3.76-7.29-3.76s-5.89,1.29-7.96,3.89c-2.08,2.59-3.11,5.91-3.11,9.93M551.92,468.39c.96-2.11,2.51-3.8,4.67-5.09,2.16-1.28,4.5-1.92,7.02-1.92,4.22,0,7.61,1.56,10.18,4.67,2.56,3.1,3.84,7.26,3.84,12.44s-1.16,9.17-3.48,12.63c-2.33,3.46-5.89,5.19-10.69,5.19-5.31,0-9.16-2.31-11.54-6.94l.22,6.38h-4.34v-50.49h4.34v18.69c0,1.65-.08,3.12-.22,4.43M495.31,486.62c0,1.83.67,3.33,1.99,4.5,1.33,1.18,3.07,1.76,5.2,1.76,3.7,0,6.38-1.2,8.04-3.59,1.67-2.4,2.49-5.48,2.49-9.27v-1.28l-2.71-.14c-3.99,0-7.48.54-10.5,1.63-3.02,1.07-4.53,3.21-4.53,6.4M516.03,467.27c.43.93.74,2.05.94,3.35.18,1.31.27,3.15.27,5.53l.43,19.61h-4.06l.07-2.45v-3.73c-2.51,4.49-6.46,6.75-11.81,6.75-3.32,0-6-.91-8.02-2.71-2.02-1.8-3.03-4.2-3.03-7.2,0-3.65,1.63-6.45,4.89-8.39,3.27-1.95,7.96-2.92,14.12-2.92.71,0,1.79.07,3.21.21,0-3.35-.62-5.9-1.89-7.64-1.26-1.73-3.54-2.59-6.83-2.59-1.6,0-3.12.21-4.5.63-1.39.42-3.07,1.22-5.07,2.38l.07-4.48c3.32-1.5,6.85-2.24,10.61-2.24,5.32,0,8.85,1.96,10.6,5.89M463.48,461.38c.48,0,1.43.14,2.85.42v4.34c-.85-.28-1.71-.42-2.56-.42-2.85,0-5.08,1.08-6.7,3.26-1.6,2.17-2.42,4.7-2.42,7.59v19.19h-4.34v-20.3l-.43-13.66h4.56l-.08,7.29c.86-2.43,1.98-4.32,3.38-5.67,1.4-1.35,3.31-2.03,5.73-2.03M425.53,493.17c3.37,0,6.14-1.35,8.32-4.05,2.19-2.71,3.28-6.15,3.28-10.3s-1.08-7.67-3.24-10.4c-2.16-2.73-4.92-4.09-8.3-4.09s-6.29,1.35-8.47,4.05c-2.18,2.71-3.28,6.21-3.28,10.5s1.1,7.52,3.28,10.23c2.18,2.7,4.98,4.05,8.4,4.05M425.6,496.6c-4.88,0-8.82-1.62-11.78-4.86-2.97-3.25-4.45-7.55-4.45-12.92s1.48-9.8,4.41-13.02c2.94-3.23,6.91-4.83,11.9-4.83s8.71,1.6,11.61,4.83c2.9,3.22,4.34,7.56,4.34,13.02s-1.47,9.61-4.42,12.88c-2.94,3.26-6.81,4.9-11.61,4.9M401.53,448.78c-2.27,0-3.75.86-4.41,2.59-.67,1.73-1,3.92-1,6.59v3.85h8.05v3.51h-8.05v30.46h-4.34v-30.46h-7.26v-3.51h7.26v-3.64c0-4.11.62-7.32,1.88-9.66,1.26-2.34,3.81-3.5,7.66-3.5,1.1,0,2.35.21,3.77.63l-.36,3.78c-1.23-.42-2.3-.63-3.2-.63M332.75,478.57c0,4.44.9,7.95,2.7,10.49,1.81,2.56,4.31,3.83,7.48,3.83s5.82-1.29,7.79-3.89c1.98-2.59,2.96-6,2.96-10.21s-1.02-7.42-3.06-10.04c-2.05-2.62-4.68-3.93-7.9-3.93-3.04,0-5.46,1.24-7.27,3.72-1.8,2.47-2.7,5.83-2.7,10.04M354.11,495.76v-6.94c-.71,2.19-2.14,4.01-4.28,5.4-2.15,1.41-4.54,2.11-7.22,2.11-4.37,0-7.86-1.58-10.46-4.75-2.59-3.15-3.89-7.37-3.89-12.66s1.27-9.53,3.81-12.73c2.54-3.21,5.89-4.81,10.07-4.81,5.32,0,9.17,2.31,11.54,6.94l-.14-5.98v-17.08h4.35v50.49h-3.78ZM297.64,476.15h20.22c0-3.22-.81-5.94-2.41-8.15-1.61-2.22-4.05-3.32-7.31-3.32-3.01,0-5.42,1.13-7.23,3.39-1.8,2.27-2.9,4.96-3.28,8.09M319.41,490.15l.14,4.34c-3.1,1.35-6.32,2.03-9.71,2.03-5.23,0-9.29-1.58-12.18-4.76-2.91-3.17-4.36-7.65-4.36-13.45,0-5.32,1.37-9.55,4.09-12.7,2.73-3.15,6.4-4.72,11.01-4.72,5.13,0,8.71,1.77,10.75,5.32,2.05,3.55,3.07,8.03,3.07,13.45h-24.57c0,4.02,1.12,7.21,3.36,9.59,2.23,2.38,5.16,3.57,8.76,3.57s6.74-.9,9.64-2.67M268.3,461.8h7.05v-8.34l4.34-1.48v9.83h8.19v3.51h-8.19v16.95c0,2.61.05,4.34.14,5.21.09.87.3,1.67.64,2.41.91,1.59,2.47,2.39,4.7,2.39,1,0,2.07-.21,3.21-.63l.21,3.71c-1.53.42-2.97.63-4.35.63-3.42,0-5.76-.87-7.01-2.63-1.25-1.75-1.89-4.4-1.89-7.95v-20.09h-7.05v-3.51ZM244.87,461.8h7.05v-8.34l4.34-1.48v9.83h8.19v3.51h-8.19v16.95c0,2.61.05,4.34.14,5.21.1.87.31,1.67.65,2.41.91,1.59,2.46,2.39,4.7,2.39,1,0,2.07-.21,3.2-.63l.22,3.71c-1.52.42-2.97.63-4.35.63-3.42,0-5.76-.87-7.01-2.63-1.26-1.75-1.89-4.4-1.89-7.95v-20.09h-7.05v-3.51ZM233.91,461.8h4.34v33.96h-4.34v-33.96ZM233.56,446.33h5.06v5.74h-5.06v-5.74ZM201.2,468.94c.81-2.29,2.26-4.12,4.33-5.49,2.06-1.38,4.4-2.07,7.01-2.07,4.48,0,7.43,1.53,8.88,4.59,1.45,3.06,2.18,7.06,2.18,12v17.79h-4.34v-17.65c0-3.78-.43-6.9-1.28-9.35-.86-2.45-2.83-3.67-5.92-3.67-2.7,0-5,1.13-6.87,3.39-1.87,2.27-2.81,5.08-2.81,8.43v18.84h-4.34v-16.03c0-4.43-.37-7.99-1.1-10.64-.75-2.66-2.75-3.99-6.02-3.99-1.86,0-3.54.58-5.06,1.71-1.52,1.14-2.6,2.49-3.24,4.03-.64,1.54-1.03,2.82-1.17,3.85-.14,1.03-.21,2.55-.21,4.55v16.53h-4.34v-16.63l-.43-17.54h4.14v6.72c2.34-4.62,5.96-6.93,10.91-6.93,2.62,0,4.81.68,6.57,2.03,1.76,1.35,2.8,3.19,3.13,5.53M143.8,468.94c.81-2.29,2.26-4.12,4.32-5.49,2.07-1.38,4.41-2.07,7.02-2.07,4.47,0,7.42,1.53,8.87,4.59,1.45,3.06,2.18,7.06,2.18,12v17.79h-4.34v-17.65c0-3.78-.43-6.9-1.28-9.35-.85-2.45-2.82-3.67-5.92-3.67-2.7,0-4.99,1.13-6.87,3.39-1.87,2.27-2.81,5.08-2.81,8.43v18.84h-4.34v-16.03c0-4.43-.37-7.99-1.1-10.64-.74-2.66-2.74-3.99-6.02-3.99-1.85,0-3.54.58-5.05,1.71-1.52,1.14-2.6,2.49-3.25,4.03-.64,1.54-1.03,2.82-1.17,3.85-.14,1.03-.21,2.55-.21,4.55v16.53h-4.34v-16.63l-.43-17.54h4.12v6.72c2.34-4.62,5.98-6.93,10.92-6.93,2.62,0,4.81.68,6.58,2.03,1.75,1.35,2.8,3.19,3.13,5.53M94.77,493.17c3.37,0,6.15-1.35,8.33-4.05,2.18-2.71,3.28-6.15,3.28-10.3s-1.08-7.67-3.24-10.4c-2.16-2.73-4.93-4.09-8.3-4.09s-6.29,1.35-8.47,4.05c-2.18,2.71-3.28,6.21-3.28,10.5s1.1,7.52,3.28,10.23c2.18,2.7,4.98,4.05,8.4,4.05M94.84,496.6c-4.89,0-8.82-1.62-11.78-4.86-2.97-3.25-4.45-7.55-4.45-12.92s1.47-9.8,4.42-13.02c2.94-3.23,6.91-4.83,11.89-4.83s8.71,1.6,11.61,4.83c2.9,3.22,4.34,7.56,4.34,13.02s-1.48,9.61-4.41,12.88c-2.94,3.26-6.82,4.9-11.61,4.9M65.71,464.88c-4.03,0-7.32,1.28-9.87,3.83-2.54,2.55-3.8,5.84-3.8,9.87s1.26,7.47,3.77,10.18c2.52,2.72,5.64,4.08,9.4,4.08,3.18,0,6.02-.7,8.54-2.11l.43,4.41c-1.04.46-2.41.84-4.1,1.12-1.68.28-3.38.43-5.09.43-5.13,0-9.34-1.7-12.64-5.08-3.29-3.39-4.94-7.71-4.94-12.99s1.67-9.48,5.03-12.77c3.34-3.29,7.67-4.94,12.99-4.94,1.57,0,3.03.09,4.41.27,1.38.18,2.71.5,3.99.96l-.21,4.5c-2.8-1.17-5.43-1.75-7.9-1.75" style="fill: #fff;"/>
  <path d="M1270.47,217.12h6.03c2.88,0,4.85-.42,5.9-1.26,1.05-.84,1.58-1.96,1.58-3.33,0-.9-.26-1.7-.76-2.4-.51-.71-1.2-1.22-2.1-1.57-.91-.34-2.56-.52-5-.52h-5.66v9.09ZM1265.51,234.15v-30.25h10.59c3.63,0,6.24.28,7.86.84,1.63.56,2.91,1.53,3.89,2.93.95,1.39,1.44,2.86,1.44,4.43,0,2.21-.81,4.14-2.43,5.77-1.6,1.64-3.74,2.56-6.41,2.75,1.09.46,1.97.99,2.62,1.61,1.25,1.18,2.76,3.18,4.56,5.99l3.75,5.92h-6.03l-2.75-4.76c-2.15-3.75-3.89-6.11-5.22-7.05-.91-.68-2.23-1.03-3.97-1.02h-2.93v12.83h-4.97ZM1278.07,195.13c-4.03,0-7.95,1.01-11.75,3.04-3.81,2.03-6.78,4.93-8.93,8.7-2.16,3.76-3.23,7.69-3.23,11.76s1.06,7.94,3.17,11.66c2.11,3.72,5.07,6.62,8.85,8.7,3.8,2.07,7.76,3.12,11.89,3.12s8.08-1.05,11.87-3.12c3.8-2.08,6.75-4.98,8.84-8.7,2.11-3.72,3.16-7.6,3.16-11.66s-1.08-7.99-3.22-11.76c-2.13-3.77-5.11-6.67-8.93-8.7-3.83-2.02-7.74-3.04-11.72-3.04M1278.07,190.46c4.81,0,9.49,1.21,14.07,3.64,4.57,2.42,8.15,5.89,10.69,10.4,2.56,4.52,3.84,9.23,3.84,14.12s-1.26,9.52-3.79,14c-2.51,4.47-6.03,7.96-10.57,10.42-4.55,2.49-9.29,3.72-14.25,3.72s-9.71-1.23-14.25-3.72c-4.54-2.47-8.08-5.95-10.6-10.42-2.53-4.47-3.8-9.14-3.8-14s1.28-9.6,3.85-14.12c2.58-4.51,6.15-7.98,10.72-10.4,4.59-2.43,9.27-3.64,14.09-3.64" style="fill: #fff;"/>
</svg>