<?xml version="1.0" encoding="UTF-8"?>
<svg id="Layer_1" xmlns="http://www.w3.org/2000/svg" version="1.1" viewBox="0 0 1331.9 162.07">
  <!-- Generator: Adobe Illustrator 30.3.0, SVG Export Plug-In . SVG Version: 2.1.3 Build 182)  -->
  <path d="M245.71,66.72c-9.63-4.89-13.32,23.2-7.39,43.25.91,3.08,4.33,8.21,3.93,10.94-2.46,16.52-66.22,12.03-55.67-2.73l6.71-9.39c4.02-15.25,3.5-40.13-6.44-42.53-9.65-2.33-12.12,24.77-6.7,44.44,1.04,3.77,3.51,8.51,2.54,11.04-5.24,13.58-55.63,12.49-56.34-.43-.24-4.25,18.99-16.17,8.05-54.99-.73-2.57-6.85-6.56-6.39-9.15,2.23-12.73,28.65-17.04,47.44-19.24l4.52,16.58c12.74-15.08,30.89-21.51,46.77-12.04,3.18,1.9,7.35,8.86,10.05,11.79,11-12.84,23.63-18.63,38.79-15.03,9.56,2.26,17.58,10.36,17.7,20.89l.53,47.12c5.75,5.78,8.73,13.47,2.79,19.61-22.91,9.89-54.22.84-50.37-7.31l4.37-9.25c4.18-8.84,4.79-38.64-4.88-43.55Z" style="fill: #fff;"/>
  <path d="M806.42,100.64c6.41,4.12,12.61,3.53,16.28.82,4.23-3.12,5.91-11.1-1.09-12.88-6.13-1.56-13.17-1.83-13.57-8.92-1.02-18.26,38.74-18.38,62.6-13.06,6.07,1.35,9.56,7.87,9.7,13.16-1.05,5.15-6.58,8.26-13.26,9.78-3.49,16.36-13.78,28.52-28.73,35.71-17.97,7.39-37.99,7.63-56.2,1.17-25.63-9.09-41.73-30.75-43-56.24-1.35-27.15,13.71-50.61,39.33-61.27,31.8-13.24,48.4,2.12,72.05-3.63,13.89,7.54,20.08,28.95,9.99,41.23-8.44,10.27-21.56,2.01-27.65-6.54-5.09-7.14-12.54-12.17-19.53-13.07-7.87-1.02-17.93,2.25-22.09,10.17-10.89,20.72-4.65,50.83,15.19,63.59Z" style="fill: #fff;"/>
  <path d="M58.19,77.6c-2.21,9.44-1.23,19.95,1.17,29.59,15.01,4.69,35.59,3.72,44.08-10.07l6.39-10.39c1.66-2.69,11.18-2.39,12.47.86,5.73,14.51-1.17,31.9-11.55,42.93-32.2-2.21-63.08-1.69-95.56-1.48-5.92.04-11.91-1.88-12.46-7.6-.46-4.79,3.97-9.28,10.82-11.17,5.38-27.25,5.38-56.64.25-84.32-5.73-2.29-11.09-5.44-11.67-8.93-.86-5.23,2.24-10.31,7.67-11.65l80.51-.39c4.07-1.55,13.2-4.32,16.55-2.27,10.9,6.7,12.57,24.7,7.92,34.92-1.07,2.34-8.87,4.4-10.59,2.62l-8.12-8.41c-9.65-10-26.39-9.18-39.46-4.57-.83,7.84-1.1,18.44-.36,24.95.38,3.39,10.28,4.51,12.79,2.65,6.94-5.17,3.36-17.76,11.79-18.69,15.92-1.76,16.62,57.51-.5,57.04-6.97-.19-3.59-9.16-10.3-17.27-1.78-2.15-11.11-1.52-11.84,1.62Z" style="fill: #fff;"/>
  <path d="M363.32,140.14c2.95,2.89,6.03,6.6,5.78,9.16-1.95,20.24-71.43,8.76-66.11-8.16,1.07-3.4,5.75-7.16,10.36-10.21,4.49-18.74,4.18-40.62.93-59.52-5.55-1.66-10.66-4.26-11.49-7.46-4.1-15.85,30.52-25.19,52.47-25.79l4.7,8.97c14.99-11.12,34.58-12.93,47.35.48,18.74,19.68,16.84,51.29-.94,70.9-12.17,13.18-29.26,16.12-46.21,7.93-3.81,3.57-2.76,10.73,3.15,13.69ZM375.91,85.96l-3.1-15.84c-.58-2.97-10.43-5.67-11.95-2.85-5.26,9.73-6.43,25.92-1.88,36.38,1.65,3.78,11.42,1.51,13.21-1.67,2.07-3.68,4.69-11.06,3.72-16.02Z" style="fill: #fff;"/>
  <path d="M1278.74,148.02c6.87,17.17-64.97,15.74-66.14-5.92-.1-1.92,2.42-4.41,4.23-6.36l9-9.67-.49-54.43c-6.53-1.85-11.91-4.17-12.77-7.51-4.19-16.33,30.26-24.98,52.13-26l4.77,9.3c16.03-11.87,33.72-12.59,47.75-.04,16.85,19.83,16.8,49.03.53,69.17-12.36,13.91-30.18,18.95-47.58,10.09-1.37,1.53-3.79,6.53-2.65,7.78l5.75,6.35c2.1,2.32,4.65,5.16,5.48,7.23ZM1282.5,70.99c-1.01-2.2-5.29-4.71-7.41-5.27-8.61-2.29-10.31,17.92-8.48,35.68.3,2.89,7.52,5.39,10.03,4.43,10.3-3.92,11.71-22.05,5.86-34.84Z" style="fill: #fff;"/>
  <path d="M1200.07,104l8.42,7.6c9.4,8.49-19.04,22.45-46.02,18.75l-5.95-10.03c-13.97,12.76-34.87,15.32-48,2.72-15.19-14.57-1.85-50.31-12.28-61.41-2.93-3.12-6.95-5.91-7.56-8.6-2.91-12.83,29.22-15.04,51.17-14.51l.81,59.4c.04,3.03,4.77,8.56,7.58,9.43,12,3.71,14.91-27.96,8.99-45.48l-7.23-6.32c-10.17-8.89,21.74-21.43,49.24-15.67l.83,64.11Z" style="fill: #fff;"/>
  <path d="M1081.19,102.33c-17.42,30.96-62.75,38.72-88.51,15.41-14.44-13.07-14.85-34.4-7.39-51.01,13.52-30.09,64.73-39.13,87.91-13.58,11.04,12.17,17.72,31.89,7.99,49.18ZM1028.2,60.59c-12.7.74-2.01,52.74,11.52,45.76,9.27-4.78,1.58-46.52-11.52-45.76Z" style="fill: #fff;"/>
  <path d="M626.84,88.45c.72,9.37,7.18,13.82,12.82,15.57,15.59,4.84,25.06-9.75,31.72-5.99,3.35,1.89,6.42,11.01,3.37,14.93-16.42,21.11-51.02,24.53-72.2,7.17-17.16-14.08-20-38.48-10.22-57.22,9.29-17.8,30.91-27.17,52.13-24.05,11.1,1.63,21.45,7.39,27.37,14.86,7.59,10.36,10.4,21.16,4.88,33.81l-49.89.92ZM632.08,70.33c5.97-.64,9.56-1.12,11.31-2.41s.96-6.47-.37-8.18-6.09-3.56-9.09-3.33c-2.43.19-6.87,4.48-7.97,6.67s3.43,7.55,6.14,7.25Z" style="fill: #fff;"/>
  <path d="M948.96,115.95c3.14,17.79-31.24,16.67-56.39,13.65-4.8-.58-10.3-4.76-11.01-8.28-1.16-5.71,1.78-11.05,8.18-13.81,3.9-12.47,4.25-27.56,1.93-40.49-4.99-2.06-9.07-4.95-9.62-8.47-2.06-13.43,29.51-20.74,49.82-19.95l3.74,13.93c7.39-9.56,12.83-14.4,22.37-14.33,9.04.06,17.09,6.68,18.65,16.33,1.84,11.39-2.74,20.54-12.09,24.99-10.43,4.97-19.44,1.25-29.14-9.15-3.82,13.28-2.8,26.49,1.36,37.91,6.37.95,11.45,3.39,12.21,7.68Z" style="fill: #fff;"/>
  <path d="M547.32,129.09c-22.1,3.17-55.84,4.2-58.54-7.96-1.22-5.48,3.42-9.69,6.61-14.4,6.97-10.26,7.49-29.65,1.66-40.32-1.36-2.49-8.07-5.22-8.17-7.86-.56-14.12,30.02-20.66,49.9-19.87l3.45,13.73c7.35-8.22,11.44-13.1,19.55-14.06,7.03-.83,16.16,2.65,19.48,8.97,6.2,11.8,3.07,24.53-7.13,30.89-10.58,6.6-21.57,3.41-31.62-8.11-4.49,13.45-3.51,26.97,1.27,38.15,6.31.98,11.26,3.36,11.81,7.67.64,5.01-2.06,12.26-8.28,13.16Z" style="fill: #fff;"/>
  <path d="M474.5,129.51c-19.46,2.88-49.21,2.86-50.85-8.23-.71-4.79,4.41-8.39,7.04-12.99,6.04-10.56,5.49-29.61.61-40.89-1.19-2.75-8.42-6.17-8.78-9.08-1.58-12.48,31.8-19.81,52.51-19.95,1.83,23.5-1.86,45.35,2.61,68.09.76,3.86,9.9,8.13,8.36,13.07-1.41,4.51-5.62,9.1-11.5,9.97Z" style="fill: #fff;"/>
  <path d="M474.71,13.3c5.33,10.56-12.78,23.49-40.01,21.2-3.85-.32-8.84-5.45-9.81-9.02-1.07-3.92,1.72-10.88,5.87-13.18,15.6-8.63,38.2-10.4,43.96,1Z" style="fill: #fff;"/>
</svg>