<?xml version="1.0" encoding="UTF-8"?>
<svg id="Layer_1" xmlns="http://www.w3.org/2000/svg" version="1.1" viewBox="0 0 687.82 620.51">
  <!-- Generator: Adobe Illustrator 30.3.0, SVG Export Plug-In . SVG Version: 2.1.3 Build 182)  -->
  <circle cx="615.19" cy="549.77" r="64.29" style="fill: #f6b43a;"/>
  <g>
    <path d="M2.03,482.95c-.25-15.2.95-27.64,4.19-41.45,9.01-38.28,36.02-70.76,72.74-85.13,47.49-18.58,94.32-35.14,142.69-51.14l189.8-62.77,111.06-36.98,48.95-17.6c20.27-7.29,24.13-17.19,27.13-37,1.93-12.75-1.54-26.72-9.62-36.81-13.02-16.24-33.89-22.37-52.97-15.41-18.47,6.73-30.2,24.03-31,44.43l-1.59,40.51-86.57,27.02.8-17.13.74-58.53c.34-26.77,10.57-50.96,26.38-72.39l14.41-16.5c22.76-21.71,50.85-34.57,82.52-37.08,56.1-4.44,108.51,27.12,132.21,78.16,12.23,26.34,14.11,54.68,9.87,83.13-6.87,46.08-36.9,81.71-79.93,98.64-43.57,17.14-87.1,32.03-131.78,46.75l-116.9,38.53-199.56,66.36-44.16,16.36c-18.7,6.93-22.8,26.56-21.85,46.45,1.09,23.08,20.1,41.25,41.87,43.14,23.5,2.05,45.01-12.41,50.15-36.64,2.41-11.34.27-24,1.14-35.99l1.02-14.15,86.6-28.77-.33,68.63-.8,14.87c-7.69,66.12-62.17,117.06-128.76,119.43-73.76,2.62-137.23-56.41-138.45-130.94Z" style="fill: #ed3954;"/>
    <path d="M272.04,263.26l-91.42,29.15-.07-248.98,3.65-12.09c7.54-19.98,27.99-32.01,48.93-28.83,21,3.19,35.91,19.99,38.74,42.46l.16,218.29Z" style="fill: #3371c8;"/>
    <path d="M440.51,613.08c-13.29-7.34-23.7-22.83-23.71-37.38l-.03-213.55,34.66-10.81,55.93-17.72-.06,236.96c0,9.88-2.55,18.91-7.46,26.47-12.7,19.55-38.01,27.8-59.33,16.04Z" style="fill: #3371c8;"/>
  </g>
</svg>