<?xml version="1.0" encoding="UTF-8"?>
<svg id="Layer_1" xmlns="http://www.w3.org/2000/svg" version="1.1" viewBox="0 0 1317.01 532.84">
  <!-- Generator: Adobe Illustrator 30.3.0, SVG Export Plug-In . SVG Version: 2.1.3 Build 182)  -->
  <path d="M913.44,2.48c22.3-.82,76.94,6.69,101.23,11.28,79.31,14.99,186.62,54.4,183.08,155.32-1.15,32.79-13.98,63.03-27.82,85.65-13.96,22.83-34.35,47.46-50.09,62.37-35.72,33.84-79.98,64.75-132.35,92.74-92.92,49.67-228.67,92.47-351.39,98.65-67.44,3.4-141.39-3.42-196.13-28.94-27.91-13.01-50.17-28.05-66.43-46.06-9.61-10.64-16.05-18.3-24.39-32.74-7.13-12.35-10.04-28.27-16.21-39.68.79,64.73,54.51,109.74,109.56,135.15,58.26,26.9,137.24,36.34,208.71,34.37,142.25-3.91,275.38-46,381.97-103.62,54.74-29.59,123.05-78.82,154.64-120.08,32.75-42.77,65.31-88.05,58.1-152.68C1230.38,14.64,1023.55-1.33,913.44,2.48" style="fill: #0094d9; fill-rule: evenodd;"/>
  <path d="M520.43,145.53c27.32,1.37,38.69-14.26,76.58-32.64,139.1-67.48,410.86-133.1,530.65-15.78,15.24,14.93,34.98,41.25,39.67,71.22,3.98-35.51-28.02-78.06-49.05-94.27-144.46-111.31-425.46-52.17-579.26,32.17-21.03,11.53-21.66,7.69-18.58,39.3" style="fill: #747678; fill-rule: evenodd;"/>
  <path d="M648.73,488.8c-76.19-5.8-184.08-16.96-233.25-76.27-18.84-22.72-26.87-41.19-25.33-79.79-22.78-.16-26.48-5.02-43.71-9.65-5.09,77.37,41.48,115.65,96.68,138.15,46.28,18.86,97.8,26.34,149.05,27.96,14.65.46,45.7-1.93,56.56-.4" style="fill: #747678; fill-rule: evenodd;"/>
  <path d="M1075.91,317.23v-97.85c0-17.48-4.46-31.2-13.39-41.17-8.93-9.96-21.57-14.95-37.93-14.95-5.45,0-10.34.66-14.66,1.97-4.33,1.36-8.27,3.15-11.84,5.41-3.57,2.3-6.81,4.88-9.73,7.8-2.92,2.96-5.59,6.01-8.04,9.26v-21.62h-42.86v151.14h42.86v-84.12c0-10.11,2.39-17.76,7.19-22.89,4.79-5.17,11.32-7.76,19.6-7.76s14.66,2.59,19.17,7.76c4.51,5.12,6.77,12.84,6.77,22.89v84.12h42.86ZM882.07,242.51c0,5.54-.92,10.97-2.68,15.93-1.76,4.95-4.4,9.38-7.75,13.11-3.36,3.73-7.47,6.72-12.27,8.88-4.79,2.16-10.29,3.24-16.5,3.24s-11.45-1.15-16.21-3.38c-4.77-2.23-9-5.34-12.55-9.16-3.55-3.83-6.32-8.3-8.18-13.25-1.85-4.95-2.82-10.29-2.82-15.93v-.56c0-5.64.92-10.98,2.68-15.93,1.76-4.96,4.4-9.38,7.76-13.11,3.36-3.74,7.47-6.72,12.27-8.88,4.79-2.16,10.29-3.24,16.5-3.24,5.83,0,11.21,1.15,16.07,3.39,4.86,2.23,9.12,5.31,12.69,9.16,3.57,3.86,6.32,8.3,8.18,13.25,1.86,4.96,2.82,10.35,2.82,15.93v.57ZM924.37,241.94v-.56c0-10.9-2.07-21.1-6.2-30.6-4.14-9.49-9.82-17.77-17.06-24.81-7.24-7.05-15.86-12.62-25.8-16.64-9.94-4.02-20.77-6.06-32.43-6.06s-22.77,2.09-32.71,6.2c-9.94,4.11-18.61,9.78-25.94,16.92-7.33,7.15-13.09,15.49-17.2,24.96-4.11,9.46-6.2,19.74-6.2,30.59v.57c0,10.85,2.1,21.13,6.2,30.59,4.11,9.47,9.82,17.77,17.06,24.82,7.24,7.05,15.86,12.62,25.8,16.64,9.94,4.02,20.77,6.06,32.43,6.06s22.77-2.09,32.71-6.2c9.94-4.11,18.61-9.78,25.94-16.92,7.33-7.14,13.06-15.46,17.2-24.95,4.14-9.49,6.2-19.69,6.2-30.6ZM758.16,292.98l-25.1-25.38c-5.26,4.89-10.6,8.81-15.93,11.7-5.34,2.89-11.61,4.37-18.75,4.37-5.83,0-11.11-1.1-15.79-3.24-4.68-2.14-8.76-5.15-12.13-8.88-3.36-3.74-5.99-8.2-7.75-13.26-1.76-5.05-2.68-10.52-2.68-16.35v-.56c0-5.64.91-10.97,2.68-15.93,1.77-4.96,4.35-9.37,7.61-13.11,3.27-3.74,7.15-6.72,11.56-8.88,4.42-2.16,9.35-3.24,14.8-3.24,7.71,0,14.15,1.5,19.32,4.51,5.17,3.01,10.2,7.05,15.08,12.13l26.22-28.2c-7.14-7.9-15.41-14.1-24.81-18.61-9.4-4.51-21.24-6.77-35.53-6.77-11.66,0-22.34,2.09-32,6.2-9.66,4.12-18.02,9.8-24.96,16.92-6.93,7.12-12.43,15.53-16.35,25.09-3.93,9.57-5.92,19.78-5.92,30.45v.57c0,10.67,1.97,20.82,5.92,30.31,3.95,9.49,9.42,17.79,16.35,24.81,6.93,7.03,15.3,12.66,24.96,16.78,9.66,4.11,20.16,6.2,31.44,6.2,15.04,0,27.26-2.59,36.66-7.76,9.4-5.17,17.77-11.79,25.1-19.88ZM605.77,317.23v-97.85c0-17.48-4.46-31.2-13.4-41.17-8.93-9.96-21.57-14.95-37.93-14.95-5.45,0-10.34.66-14.66,1.97-4.33,1.36-8.27,3.15-11.84,5.41-3.57,2.3-6.82,4.88-9.73,7.8-2.91,2.96-5.59,6.01-8.04,9.26v-76.32h-42.86v205.84h42.86v-84.12c0-10.11,2.4-17.76,7.19-22.89,4.8-5.17,11.33-7.76,19.6-7.76s14.66,2.59,19.18,7.76c4.51,5.12,6.77,12.81,6.77,22.89v84.12h42.86ZM454.51,271.27v-.56c0-6.95-1.42-12.89-4.23-17.76-2.81-4.88-6.4-9.03-10.71-12.41-4.31-3.37-9.23-6.26-14.66-8.6-5.44-2.34-10.81-4.37-16.08-6.06-4.14-1.32-8.05-2.65-11.7-3.95-3.66-1.31-6.92-2.69-9.73-4.09-2.81-1.4-5.09-2.93-6.77-4.51-1.68-1.59-2.54-3.43-2.54-5.5v-.56c0-3.01,1.33-5.51,3.95-7.48,2.62-1.96,6.58-2.96,11.84-2.96s11.76,1.28,18.89,3.81c7.13,2.53,14.47,5.97,22,10.29l16.35-29.61c-8.27-5.45-17.34-9.73-27.21-12.83-9.87-3.1-19.6-4.65-29.18-4.65-7.71,0-14.91,1.05-21.57,3.1-6.67,2.06-12.51,5.18-17.48,9.31-4.97,4.12-8.94,9.17-11.84,15.08-2.9,5.91-4.37,12.76-4.37,20.44v.57c0,7.31,1.38,13.55,4.09,18.61,2.72,5.07,6.25,9.35,10.57,12.83,4.32,3.48,9.18,6.31,14.52,8.46,5.35,2.15,10.67,3.99,15.93,5.5,4.14,1.32,8.09,2.55,11.84,3.67,3.75,1.12,7.11,2.31,10.01,3.53,2.9,1.21,5.21,2.68,6.91,4.37,1.69,1.69,2.54,3.69,2.54,5.92v.57c0,3.36-1.46,6.11-4.37,8.18-2.91,2.07-7.47,3.1-13.68,3.1-7.14,0-14.81-1.51-22.98-4.51-8.16-3-16.4-7.52-24.67-13.54l-18.33,28.2c10.15,7.89,20.83,13.69,32,17.34,11.18,3.65,22.14,5.5,32.85,5.5,8.08,0,15.65-.99,22.7-2.96,7.05-1.97,13.22-4.94,18.47-8.88,5.25-3.93,9.37-8.98,12.27-15.08,2.9-6.1,4.37-13.4,4.37-21.85ZM288.31,242.51c0,5.62-.9,10.95-2.68,15.93-1.78,4.97-4.38,9.36-7.75,13.11-3.38,3.75-7.48,6.72-12.27,8.88-4.79,2.16-10.29,3.24-16.5,3.24s-11.42-1.13-16.21-3.38c-4.79-2.25-8.98-5.32-12.55-9.16-3.57-3.85-6.3-8.28-8.18-13.25-1.88-4.98-2.82-10.29-2.82-15.93v-.56c0-5.64.9-10.96,2.68-15.93,1.78-4.97,4.38-9.36,7.75-13.11,3.38-3.76,7.48-6.72,12.27-8.88,4.79-2.16,10.29-3.24,16.5-3.24,5.83,0,11.19,1.13,16.07,3.39,4.88,2.25,9.12,5.31,12.69,9.16,3.57,3.86,6.3,8.28,8.18,13.25,1.88,4.98,2.82,10.31,2.82,15.93v.57ZM330.61,241.94v-.56c0-10.9-2.07-21.1-6.2-30.6-4.14-9.49-9.82-17.77-17.06-24.81-7.24-7.05-15.84-12.6-25.8-16.64-9.96-4.04-20.77-6.06-32.43-6.06s-22.75,2.07-32.71,6.2c-9.96,4.13-18.61,9.78-25.94,16.92-7.33,7.15-13.07,15.47-17.2,24.96-4.13,9.48-6.2,19.7-6.2,30.59v.57c0,10.89,2.08,21.1,6.2,30.59,4.13,9.49,9.82,17.77,17.06,24.82,7.24,7.05,15.84,12.6,25.8,16.64,9.96,4.04,20.77,6.06,32.43,6.06s22.75-2.07,32.71-6.2c9.96-4.13,18.61-9.78,25.94-16.92,7.33-7.14,13.06-15.46,17.2-24.95,4.14-9.49,6.2-19.69,6.2-30.6ZM165.55,159.89v-40.04H2v40.04h60.06v157.34h43.42v-157.34h60.06Z" style="fill: #ed2725;"/>
  <path d="M1258.01,54.48c5.19,0,8.97-.49,11.38-1.51,2.38-1.01,4.23-2.43,5.49-4.25,1.28-1.82,1.91-3.91,1.91-6.23,0-3.55-1.23-6.55-3.71-8.98-2.49-2.41-5.66-3.62-9.54-3.62-1.67,0-3.51.36-5.53,1.06v23.53ZM1242.39,26.99h25.44c6.37,0,11.22,1.45,14.55,4.32,3.36,2.88,5.02,6.37,5.02,10.46,0,3.33-1.13,6.26-3.4,8.8-2.27,2.52-6.01,4.45-11.25,5.83l13.79,19.64c1.66,2.34,3.15,3.94,4.48,4.81.83.52,2,.85,3.49.99v2.16h-12.13l-19.37-26.68h-5.01v20.36c.27,1.46.9,2.52,1.89,3.17.99.65,2.95.99,5.89.99v2.16h-24.18v-2.16c2.09,0,3.6-.25,4.47-.76.88-.5,1.51-1.24,1.91-2.21.31-.7.45-2.74.45-6.12v-34.48c0-3.24-.07-5.15-.18-5.73-.31-1.01-.88-1.78-1.69-2.34-.81-.54-2.2-.81-4.18-.81v-2.39ZM1268.22,13.02c-7.15,0-14.15,1.84-20.94,5.54-6.82,3.69-12.12,8.95-15.95,15.79-3.83,6.84-5.73,13.97-5.73,21.39s1.87,14.44,5.62,21.21c3.75,6.77,9.02,12.04,15.79,15.82,6.77,3.78,13.83,5.67,21.21,5.67s14.46-1.89,21.26-5.67c6.79-3.78,12.05-9.05,15.81-15.82,3.76-6.77,5.65-13.83,5.65-21.21s-1.91-14.55-5.74-21.39c-3.82-6.84-9.13-12.1-15.95-15.79-6.82-3.69-13.81-5.54-21.03-5.54ZM1268.22,9.02c7.87,0,15.54,2,23.01,6.03,7.47,4,13.29,9.76,17.5,17.25,4.19,7.49,6.28,15.3,6.28,23.44s-2.05,15.83-6.19,23.26c-4.14,7.42-9.9,13.18-17.34,17.3-7.42,4.12-15.16,6.16-23.26,6.16s-15.81-2.05-23.21-6.16c-7.42-4.12-13.18-9.87-17.3-17.3-4.14-7.43-6.21-15.18-6.21-23.26s2.09-15.95,6.3-23.44c4.19-7.49,10.03-13.25,17.5-17.25,7.47-4.03,15.11-6.03,22.92-6.03Z" style="fill: #fff;"/>
</svg>