<?xml version="1.0" encoding="UTF-8"?>
<svg id="Layer_1" xmlns="http://www.w3.org/2000/svg" version="1.1" viewBox="0 0 752.72 482.53">
  <!-- Generator: Adobe Illustrator 30.3.0, SVG Export Plug-In . SVG Version: 2.1.3 Build 182)  -->
  <g id="ZSqBdt.tif">
    <g>
      <path d="M209.13,480.24h-3.21c-7.03-.42-12.93-5.51-12.96-12.95l-.1-21.22c-.02-3.86-4.62-1.99-5.16-3.53l14.24-.04.3.66-2.54.23c-1.54.14-2.45,1.39-2.44,2.94l.07,19.8c.01,3.38,1.16,6.65,3.34,9.06,2.36,2.61,5.74,3.36,9.13,3.24,6.81-.25,10.31-5.5,10.3-12.29l-.02-18.23c-.42-2.75-2.11-4.76-5.05-4.63-.07.03-.48-.61-.29-.64l.62-.11h10.64c.11.03.51.13.49.22l-.09.53c-2.57-.21-4.63,1.74-4.66,4.47l-.21,20.14c-.08,7.09-5.71,11.96-12.39,12.38Z" style="fill: #da372f;"/>
      <path d="M660.05,478.66c1.62-.13,2.41-1.28,2.34-2.78l-1.18-27.34-13.11,30.34c-.17.16-.44.41-.57.48-.18.1-.58-.29-.69-.53l-14.42-30.24-.44,26.06c-.04,2.46,2.06,4.15,4.19,4.08l.77.12c.17.03-.05.55-.19.66l-11.62-.15c2.9-1.03,5.15-1.82,5.22-5.02l.6-28.31c-.74-1.74-2.71-2.61-4.41-2.81l-.58-.07c-.12-.01-.23-.6-.11-.6h.58s7.15-.04,7.15-.04c.6.16,1.35.82,1.7,1.53l13.91,28.72,12.69-29.17c.16-.38.97-.98,1.24-1.06h7.43s.49.2.49.2c.14.06-.21.41-.35.43l-2.64.37c-1.6.22-2.68,1.71-2.6,3.4l1.33,29.08c.04.86.74,2.29,1.44,2.39l3.12.44s.25.38.41.61l-14.14-.03c.63-.86,1.57-.7,2.47-.78Z" style="fill: #da372f;"/>
      <path d="M69.62,478.56c1.34.32,2.59-.18,3.66.88h-15.28c.86-.94,1.94-.66,2.93-.8,1.45-.11,2.48-1.22,2.48-2.75l.04-14.97h-22.06s.04,15.19.04,15.19c0,1.36,1.04,2.38,2.29,2.52,1.1.19,2.37-.2,3.18.83l-15.24-.03c.86-.9,1.94-.68,2.93-.78,1.44-.15,2.45-1.2,2.45-2.78v-29.81c0-1.46-.97-2.38-2.26-2.67-1.02-.23-2.32.38-3.11-.85l14.43-.02c.18,0,.59,0,.55.11l-.17.53-2.95.34c-1.17.13-2.09,1.38-2.1,2.59l-.04,13.53h22.06s-.06-13.57-.06-13.57c0-1.54-1.19-2.46-2.55-2.68-1-.16-2.24.33-2.97-.82l14.93-.04.06.65-3.02.31c-1.19.12-2.13,1.32-2.13,2.62v29.77c0,1.23.71,2.43,1.91,2.71Z" style="fill: #da372f;"/>
      <path d="M150.1,460.97c0,10.8-8.76,19.56-19.56,19.56s-19.56-8.76-19.56-19.56,8.76-19.56,19.56-19.56,19.56,8.76,19.56,19.56ZM128.73,478.6c6.67,1.39,12.8-1.93,15.19-8.22s1.91-13.01-.96-18.77c-2.83-5.66-8.4-8.61-14.6-8.33-5.33.23-9.75,3.31-11.42,8.54-3.3,10.34.87,24.49,11.79,26.78Z" style="fill: #da372f;"/>
      <path d="M476.99,460.97c0,10.8-8.76,19.56-19.56,19.56s-19.56-8.76-19.56-19.56,8.76-19.56,19.56-19.56,19.56,8.76,19.56,19.56ZM456.99,478.82c6.22.68,11.53-2.59,13.77-8.32,2.26-5.79,1.98-12.54-.58-18.21-2.75-6.09-8.55-9.39-15.12-9-5.14.31-9.41,3.2-11.13,8.25-3.71,10.88,1.14,25.99,13.06,27.29Z" style="fill: #da372f;"/>
      <path d="M343.07,461.02l-8.32-.11.02,14.46c0,1.44.98,2.73,2.46,2.72l7.54-.05c2.74-.02,4.71-2.49,5.75-4.9.44-1.02.42-2.08,1.41-2.92l-.52,9.28h-25.95s0-.59,0-.59l2.73-.3c1.27-.14,2.23-1.14,2.23-2.58v-30.16c0-1.4-1.1-2.35-2.31-2.48l-2.71-.29.06-.63h24.6s.15,8.14.15,8.14c-.38.06-.74-.35-.78-.74-.35-3.08-2.45-5.67-5.6-5.96h-6.49c-1.41,0-2.52,1.16-2.53,2.62l-.04,13.08,8.63-.07c2.24-.42,3.9-1.59,3.73-4.17l.74-.12.06,10.58s-.69.15-.7.02l-.02-.65c-.07-2.25-1.59-4.16-4.12-4.19Z" style="fill: #da372f;"/>
      <path d="M536.65,466.21c.08-2.67-1.68-4.09-4.12-4.51l-7.59-.07.04,13.89c.01,4.25,5.56,2.4,7.28,3.92h-17.04c.85-.93,1.94-.68,2.93-.79,1.43-.16,2.46-1.2,2.46-2.79v-29.52c0-1.57-.74-2.76-2.26-2.93l-2.77-.3.1-.62h24.56s.12,8.3.12,8.3c-.56-.34-.76-.77-.84-1.32-.46-3.11-2.84-5.64-6.02-5.61l-5.91.06c-1.5.02-2.63,1.22-2.63,2.72l-.02,13.66,7.86-.12c2.75-.04,3.32-2,4.44-4.51l.18,10.33c0,.2-.18.62-.25.72-.11.15-.51-.4-.51-.5Z" style="fill: #da372f;"/>
      <path d="M284.13,476.72c-2.6,2.75-6.03,3.42-9.58,3.39-3.13-.03-6.41-.31-9-2.4-.43-2.99-.72-6.32-.62-9.62,1.64,3.31,2.43,6.31,4.91,8.71,3.95,3.83,10.98,2.72,12.33-1.28,1.27-3.77.06-7.64-2.94-10.22l-5.59-3.86c-1.81-1.25-3.73-2.35-5.29-3.87-2.4-2.34-3.19-5.55-2.35-8.91,1.71-6.9,12-8.48,18.81-5.1.23,2.8.51,5.47.25,8.46-1.46-2.88-1.81-5.43-4.1-7.43-2.46-2.15-6.74-2.59-9.33-.33-2.85,2.5-2.66,7-.38,9.77,1.17,1.42,2.54,2.41,4.05,3.39l7.35,4.77c4.92,3.19,5.62,10.17,1.49,14.54Z" style="fill: #da372f;"/>
      <path d="M720.07,480.11c-3.34-.03-6.76-.35-9.19-2.48-.37-3.1-.68-6.3-.58-9.54,1.65,3.32,2.43,6.31,4.91,8.72,3.94,3.81,10.98,2.72,12.33-1.29,1.27-3.77.07-7.63-2.94-10.22l-5.77-3.97c-1.81-1.25-3.73-2.35-5.25-3.9-2.34-2.38-3.07-5.63-2.14-8.99,1.89-6.8,12.31-8.22,18.79-4.8.16,2.89.48,5.47.18,8.39-1.44-2.9-1.79-5.44-4.08-7.44-2.45-2.15-6.74-2.59-9.33-.33-2.85,2.49-2.66,7-.38,9.77,1.17,1.42,2.54,2.41,4.05,3.39l7.35,4.77c5.08,3.3,5.58,10.51,1.26,14.77-2.46,2.42-5.65,3.19-9.21,3.16Z" style="fill: #da372f;"/>
      <g>
        <path d="M2,400.16v-2.96l.5-1.36c.13-.45,1-.96,1.57-.96,18.81.12,35.54-6.41,43.84-24,2.55-5.41,4.2-10.88,5.39-16.82,1.23-6.83,1.97-13.69,2.11-20.71l5.69-287.85c-12.13-18.83-29.43-28.78-52.03-29.02-.57,0-1.8-.18-2.02-.64-1.23-2.61-.87-7.04,1.43-6.97l25.18.76c14.2.79,28.12.67,42.28-.37,3.68-.27,7.05-.39,10.67-.33,5.38.09,10.12,2.65,13.28,6.93,2.38,3.23,4.35,6.44,6.33,9.98,3.3,5.91,6.46,11.95,9.45,18.12l138.59,286.39c.13.27.51.79.58.62l.28-.65L386.46,28.11l3.11-6.76c1.29-2.81,3.17-5.2,5.33-7.38,3.43-3.47,7.92-5.43,12.82-5.07l9.47.69,14.82.54,32.69-.72,21.37-.45c.89,2.36.77,4.96.14,7.12l-1.23.42c-8.33-.01-16.37.52-24.53,2.01-10.46,2.09-21.15,5.85-26.89,15.15-2.28,3.69-3.81,7.6-4.67,11.91-.98,4.9-1.53,9.87-1.3,15.03l13.25,291.26,1.79,16.07c.39,3.49,1.39,6.67,2.46,9.97,2.02,6.2,6.54,10.81,12.68,13.1,9.68,3.62,24.92,3.87,35.78,3.91,2.08,0,2.5,4.26,1.36,6.87-.19.43-1.16.73-1.66.73l-31.38-.55-43.78-.63-42.6.64-28.32.49c-.95-2.42-.98-5.12.03-7.51,10.74-.19,24.45-.27,34.09-4.32,6.35-2.67,10.86-7.79,12.38-14.59,1.17-5.23,1.81-10.64,1.57-16.19l-12.23-287.18-.03-.77c0-.12-.35-.1-.38.01l-.19.69-140.16,325.33c-.58,1.35-1.7,2.09-2.98,2.44-2.85.72-5.66-.14-7.76-2.21L76.29,72.74l-5.14,261.04c-.15,7.77.49,15.22,1.71,22.7,1.07,5.51,2.51,10.56,4.87,15.58,8.66,18.46,27.48,22.81,46.74,22.89,1.12,2.24,1.01,4.97.13,7.5l-27.03-.48-34.61-.64-34.61.65-23.99.54c-1.14.03-1.77-.42-2.05-1.54l-.31-.81Z" style="fill: #da372f;"/>
        <path d="M711.43,383.09c-19.17,14.49-41.86,22.53-65.73,25.43-20.38,2.48-41.03,1.99-61.26-1.59-19.07-3.37-37.26-9.81-53.99-19.33-2.2-1.25-4.08-2.79-5.01-5.12-.87-2.19-1.48-4.44-1.67-6.95l-7.04-89.66c.84-1.41,2.33-1.76,3.79-1.9,1.73-.16,2.87.54,3.32,2.21,3.79,13.98,8.62,27.54,14.97,40.63,7.61,15.69,16.97,30.57,28.66,43.47,12.7,14.02,29.41,23.27,47.99,26.65,12.45,2.27,25.06,2.39,37.51.21,11.44-2.01,21.96-6.35,31.32-13.08,13.14-9.43,19.63-23.28,21.88-39.13,1.75-12.27,1.49-24.56-.74-36.75-2.11-11.6-6.59-22.19-13.07-31.94-8.52-12.83-18.88-24.04-31.21-33.28l-20.16-14.18-24.78-15.48-30.05-19.62-19.96-14.4c-9.88-7.69-17.96-17.07-24.86-27.49-6.22-9.39-10.48-19.53-12.56-30.68-2.58-13.81-2.54-27.94.24-41.71,2.89-14.32,9.41-27.2,18.98-38.16,9.67-11.06,21.57-19.85,35.04-25.91,17.67-7.95,36.7-12.3,56.04-13.14l4.51-.2h7.39s4.8.2,4.8.2c22.82.92,45.17,5.77,66.28,14.4,4.1,1.67,8.86,5.73,9.08,10.23l3.86,77.31c-.65,1.76-2.57,2.26-4.11,2.48-1.89.26-3.22-.51-3.57-2.36-4.49-23.53-14.9-45.31-29.49-64.24-10-12.98-23.97-21.8-39.96-25.49-12.26-2.83-24.87-3.19-37.31-1.32-13.72,2.06-26.11,7.89-35.37,18.24-7.97,8.9-13.24,19.62-15.65,31.38-2.27,11.05-2.35,22.24-.41,33.35,1.83,10.46,5.94,19.96,11.87,28.68,8.49,12.48,19.02,23,31.39,31.66l35.38,22.89,37.83,23.7,22.02,15.59c10.87,8.36,19.89,18.49,27.58,29.81,6.68,9.86,11.33,20.6,13.53,32.33,1.01,5.19,1.66,10.18,1.73,15.46l.27,1.17-.14,9.41c-1.19,30.28-14.86,57.85-39.15,76.21Z" style="fill: #da372f;"/>
      </g>
    </g>
  </g>
</svg>